<svg width="134" height="58" xmlns="http://www.w3.org/2000/svg"><g fill="none" fill-rule="evenodd"><path d="M35.608 20.192c-3.296 0-5.744-2.544-5.744-5.76V14.4c0-3.184 2.4-5.792 5.84-5.792 2.112 0 3.376.704 4.416 1.728l-1.568 1.808c-.864-.784-1.744-1.264-2.864-1.264-1.888 0-3.248 1.568-3.248 3.488v.032c0 1.92 1.328 3.52 3.248 3.52 1.28 0 2.064-.512 2.944-1.312l1.568 1.584c-1.152 1.232-2.432 2-4.592 2zm6.56-.192V8.8h8.448v2.192h-6v2.272h5.28v2.192h-5.28v2.352h6.08V20h-8.528zm14.704.16a7.127 7.127 0 0 1-4.752-1.792l1.456-1.744c1.008.832 2.064 1.36 3.344 1.36 1.008 0 1.616-.4 1.616-1.056v-.032c0-.624-.384-.944-2.256-1.424-2.256-.576-3.712-1.2-3.712-3.424v-.032c0-2.032 1.632-3.376 3.92-3.376 1.632 0 3.024.512 4.16 1.424l-1.28 1.856c-.992-.688-1.968-1.104-2.912-1.104s-1.44.432-1.44.976v.032c0 .736.48.976 2.416 1.472 2.272.592 3.552 1.408 3.552 3.36v.032c0 2.224-1.696 3.472-4.112 3.472zM67.368 20v-1.952l3.728-3.056c1.392-1.152 1.936-1.76 1.936-2.688 0-.944-.624-1.456-1.504-1.456-.864 0-1.456.48-2.288 1.504l-1.728-1.392c1.104-1.504 2.176-2.32 4.176-2.32 2.32 0 3.856 1.36 3.856 3.456v.032c0 1.872-.96 2.8-2.944 4.336l-1.824 1.408h4.88V20h-8.288zm15.008.192c-2.992 0-4.96-2.512-4.96-5.76V14.4c0-3.248 2.016-5.792 4.992-5.792 2.96 0 4.96 2.512 4.96 5.76v.032c0 3.248-2 5.792-4.992 5.792zm.032-2.224c1.488 0 2.432-1.504 2.432-3.536V14.4c0-2.032-.992-3.568-2.464-3.568s-2.432 1.488-2.432 3.536v.032c0 2.048.976 3.568 2.464 3.568zM91 20v-8.784l-1.952.48-.512-2.016 3.216-.96h1.68V20H91zm8.944.16c-2.48 0-4.32-1.28-4.32-3.232v-.032c0-1.36.624-2.16 1.808-2.704-.864-.528-1.424-1.248-1.424-2.448v-.032c0-1.712 1.568-3.072 3.936-3.072s3.936 1.344 3.936 3.072v.032c0 1.2-.56 1.92-1.424 2.448 1.136.592 1.808 1.312 1.808 2.64v.032c0 2.08-1.84 3.296-4.32 3.296zm0-6.784c.976 0 1.6-.576 1.6-1.36v-.032c0-.688-.592-1.312-1.6-1.312s-1.6.608-1.6 1.296V12c0 .784.624 1.376 1.6 1.376zm0 4.752c1.216 0 1.936-.608 1.936-1.392v-.032c0-.864-.816-1.376-1.936-1.376s-1.936.512-1.936 1.376v.032c0 .768.72 1.392 1.936 1.392zM28.618 37v-8.4h.948V37h-.948zm3.408 0v-8.4h.888l5.292 6.732V28.6h.924V37h-.756l-5.424-6.888V37h-.924zm9.48 0v-8.4h.888l5.292 6.732V28.6h.924V37h-.756l-5.424-6.888V37h-.924zm13.38.144c-2.556 0-4.272-2.004-4.272-4.32V32.8c0-2.316 1.74-4.344 4.296-4.344s4.272 2.004 4.272 4.32v.024c0 2.316-1.74 4.344-4.296 4.344zm.024-.876c1.92 0 3.288-1.536 3.288-3.444V32.8c0-1.908-1.392-3.468-3.312-3.468s-3.288 1.536-3.288 3.444v.024c0 1.908 1.392 3.468 3.312 3.468zm8.676.792l-3.612-8.46h1.056l2.988 7.236 3-7.236h1.02l-3.612 8.46h-.84zm4.188-.06l3.828-8.46h.888L76.318 37h-1.02l-.984-2.22h-4.572L68.746 37h-.972zm2.34-3.084h3.828l-1.908-4.272-1.92 4.272zm9 3.084v-7.524h-2.82V28.6h6.6v.876h-2.82V37h-.96zm5.64 0v-8.4h.948V37h-.948zm7.308.144c-2.556 0-4.272-2.004-4.272-4.32V32.8c0-2.316 1.74-4.344 4.296-4.344s4.272 2.004 4.272 4.32v.024c0 2.316-1.74 4.344-4.296 4.344zm.024-.876c1.92 0 3.288-1.536 3.288-3.444V32.8c0-1.908-1.392-3.468-3.312-3.468s-3.288 1.536-3.288 3.444v.024c0 1.908 1.392 3.468 3.312 3.468zm6.276.732v-8.4h.888l5.292 6.732V28.6h.924V37h-.756l-5.424-6.888V37h-.924zM39.616 49l3.828-8.46h.888L48.16 49h-1.02l-.984-2.22h-4.572L40.588 49h-.972zm2.34-3.084h3.828l-1.908-4.272-1.92 4.272zm9.132 3.144l-3-8.46h1.032l2.4 6.996 2.304-7.02h.78l2.304 7.02 2.4-6.996h.996l-3 8.46H56.5l-2.304-6.816-2.316 6.816h-.792zM60.22 49l3.828-8.46h.888L68.764 49h-1.02l-.984-2.22h-4.572L61.192 49h-.972zm2.34-3.084h3.828l-1.908-4.272-1.92 4.272zM70.42 49v-8.4h3.612c1.032 0 1.86.312 2.388.84.408.408.648.996.648 1.656v.024c0 1.392-.96 2.208-2.28 2.448L77.368 49h-1.164l-2.436-3.264h-2.4V49h-.948zm.948-4.116h2.58c1.26 0 2.16-.648 2.16-1.728v-.024c0-1.032-.792-1.656-2.148-1.656h-2.592v3.408zM79.096 49v-8.4h2.916c2.64 0 4.464 1.812 4.464 4.176v.024c0 2.364-1.824 4.2-4.464 4.2h-2.916zm2.916-7.524h-1.968v6.648h1.968c2.124 0 3.48-1.44 3.48-3.3V44.8c0-1.86-1.356-3.324-3.48-3.324zm9.228 7.644c-1.332 0-2.424-.444-3.432-1.344l.588-.696c.876.792 1.716 1.188 2.88 1.188 1.128 0 1.872-.6 1.872-1.428v-.024c0-.78-.42-1.224-2.184-1.596-1.932-.42-2.82-1.044-2.82-2.424v-.024c0-1.32 1.164-2.292 2.76-2.292 1.224 0 2.1.348 2.952 1.032l-.552.732c-.78-.636-1.56-.912-2.424-.912-1.092 0-1.788.6-1.788 1.356v.024c0 .792.432 1.236 2.28 1.632 1.872.408 2.736 1.092 2.736 2.376v.024c0 1.44-1.2 2.376-2.868 2.376z" fill="#212529"/><path d="M27.87 54.535s-.058-.017-.17-.056l-.492-.16c-.218-.064-.482-.158-.794-.266-.314-.102-.669-.238-1.069-.387-.201-.07-.408-.158-.626-.25-.217-.093-.45-.177-.682-.29l-.735-.334-.61-.305c.325-.253.702-.666 1.044-1.236.533-.875.97-2.092 1.205-3.572.296-1.856-.395-3.024-1.186-3.898a8.015 8.015 0 0 0-1.15-1.019 5.662 5.662 0 0 0-.404-.28l-.158-.097s-.02.123-.074.35c-.054.227-.143.562-.28.994a27.973 27.973 0 0 1-1.442 3.607c-.748 1.534-.49 2.83.073 3.739-.388-.267-.78-.554-1.17-.868a21.808 21.808 0 0 1-2.003-1.822c.38-.139.888-.45 1.401-.958.35-.342.702-.77 1.03-1.28.328-.508.635-1.1.905-1.772.669-1.682.211-3.007-.396-4.027a8.545 8.545 0 0 0-.922-1.234c-.276-.299-.47-.48-.47-.48s-.164.456-.566 1.22c-.205.386-.468.85-.798 1.376a24.156 24.156 0 0 1-1.225 1.761c-.967 1.256-1.013 2.461-.725 3.409-.135-.177-.268-.356-.404-.535-.245-.355-.504-.705-.75-1.07l-.859-1.203c.357-.092.807-.286 1.285-.605.78-.516 1.617-1.35 2.348-2.526.913-1.476.684-2.837.272-3.912a8.816 8.816 0 0 0-.339-.74c-.115-.224-.241-.418-.34-.586-.204-.332-.369-.529-.369-.529s-.212.403-.717 1.068a20.528 20.528 0 0 1-2.386 2.643c-1.1 1.02-1.347 2.127-1.247 3.053-.26-.387-.516-.782-.753-1.19-.249-.404-.463-.828-.68-1.253-.1-.22-.2-.439-.295-.66.363.007.905-.095 1.521-.37.813-.358 1.729-1.004 2.6-1.993 1.087-1.242 1.087-2.566.872-3.634a5.174 5.174 0 0 0-.2-.743 5.995 5.995 0 0 0-.32-.82 2.685 2.685 0 0 0-.07-.133c-.04-.072-.067-.113-.067-.113s-.07.07-.216.199c-.072.067-.167.14-.274.241-.104.109-.226.232-.368.368a18.19 18.19 0 0 1-1.084.956c-.436.357-.954.75-1.562 1.157-.707.472-1.135 1.016-1.387 1.57-.13.303-.208.608-.245.904-.325-.997-.66-1.994-.957-3.005.328.028.77-.005 1.278-.14.806-.21 1.777-.676 2.73-1.463a4.48 4.48 0 0 0 .76-.685 3.17 3.17 0 0 0 .711-1.468c.047-.246.076-.497.082-.736.03-.954-.206-1.796-.206-1.796s-.328.256-.965.627c-.647.372-1.6.87-2.886 1.366-1.241.473-1.83 1.29-2.058 2.076a21.484 21.484 0 0 1-.415-3.175c.285.134.777.238 1.406.214.78-.027 1.771-.254 2.816-.764 1.328-.643 1.794-1.704 2-2.651.094-.473.133-.915.131-1.243.008-.327-.012-.539-.012-.539s-.085.05-.253.132c-.165.082-.423.195-.746.326-.65.26-1.629.592-2.894.854-1.488.3-2.17 1.202-2.461 2.022.017-.287.047-.574.09-.859.086-.469.166-.934.233-1.397l.149-1.265c.253.15.655.294 1.171.362.727.098 1.656.04 2.715-.282 1.32-.408 1.937-1.35 2.268-2.215.17-.43.255-.845.317-1.15.055-.307.063-.51.063-.51s-.338.144-.985.299c-.653.152-1.584.335-2.802.4-1.367.07-2.14.763-2.541 1.458.17-1.206.491-2.356.884-3.444.176.198.57.446 1.136.611.647.192 1.521.276 2.529.12a3.008 3.008 0 0 0 1.525-.664c.4-.314.67-.71.898-1.086.11-.19.2-.378.272-.555a5.1 5.1 0 0 0 .19-.475c.095-.278.132-.466.132-.466s-.332.091-.948.153c-.307.031-.69.054-1.13.06-.437.008-.94-.005-1.5-.055-1.312-.122-2.126.449-2.593 1.05l.07-.168c.17-.386.349-.762.516-1.135.18-.369.36-.73.527-1.089l.338-.663c.161.19.458.421.878.614.563.26 1.348.452 2.29.437a2.782 2.782 0 0 0 1.49-.42 3.48 3.48 0 0 0 .976-.897c.26-.322.445-.651.566-.901.132-.244.196-.411.196-.411s-.325.042-.9.027a11.935 11.935 0 0 1-2.409-.308c-.593-.136-1.085-.094-1.505.036a2.453 2.453 0 0 0-.857.473l.01-.018c.48-.857.97-1.647 1.452-2.368.114.197.363.46.746.7.48.302 1.159.56 2.032.658a2.585 2.585 0 0 0 1.41-.228c.407-.18.732-.452 1.005-.727.278-.271.488-.556.63-.775.07-.11.127-.2.168-.262l.058-.1s-.076.003-.217-.004a9.153 9.153 0 0 1-.608-.054 10.485 10.485 0 0 1-2.164-.523 2.583 2.583 0 0 0-1.374-.125c-.392.078-.733.24-.988.438-.002.002-.003.004-.006.005.01-.012.018-.024.027-.037.364-.48.71-.928 1.046-1.33.232-.262.445-.513.652-.745.076.19.274.463.605.727.4.322.984.623 1.761.791.492.109.93.06 1.31-.077.375-.14.724-.342.997-.576a4.79 4.79 0 0 0 .37-.349 4.57 4.57 0 0 0 .287-.308c.156-.184.242-.315.242-.315s-.276-.011-.746-.116a8.649 8.649 0 0 1-.844-.236 9.518 9.518 0 0 1-1.067-.42c-.852-.396-1.58-.262-2.08.015l.292-.289c.249-.23.469-.418.645-.571l.409-.345c.093-.077.143-.115.143-.115a.293.293 0 0 0 .09-.108c.305.043.594.062.86.031.412-.044.776-.2 1.138-.49.362-.292.583-.74.775-1.209.186-.474.313-1 .434-1.486a8.535 8.535 0 0 0-1.552.086c-.14.023-.28.05-.417.084a4.014 4.014 0 0 0-.392.13c-.252.1-.485.228-.677.386a1.847 1.847 0 0 0-.666 1.084 3.119 3.119 0 0 0-.045.837.326.326 0 0 0-.122.083l-.123.14-.362.405-.593.641c-.105.12-.218.248-.339.382.264-.529.457-1.247.046-2.148a6.403 6.403 0 0 1-.383-1.087 5.402 5.402 0 0 1-.14-.87C15.354.302 15.4 0 15.4 0s-.167.097-.415.276c-.124.089-.268.198-.42.326a5.57 5.57 0 0 0-.456.45c-.3.338-.602.723-.768 1.173-.17.444-.232.923-.096 1.407a3.29 3.29 0 0 0 1.015 1.627c.336.287.66.433.865.466-.21.241-.43.5-.67.768a69.494 69.494 0 0 0-1.178 1.435l.038-.09c.113-.306.21-.655.195-1.056-.01-.398-.13-.849-.4-1.315a6.495 6.495 0 0 1-.79-2.097 4.104 4.104 0 0 1-.074-.643c-.005-.15 0-.234 0-.234l-.12.09c-.077.059-.189.143-.312.26-.25.23-.578.562-.885.961-.3.405-.564.89-.71 1.392-.142.509-.143 1.053.066 1.569.33.82.85 1.344 1.316 1.66.396.265.76.384.99.401-.53.717-1.07 1.505-1.605 2.366l-.048.082c.063-.318.095-.67.037-1.053-.065-.43-.253-.903-.61-1.378A7.04 7.04 0 0 1 9.23 6.656c-.17-.58-.184-.95-.184-.95s-.178.16-.432.439a8.37 8.37 0 0 0-.842 1.171c-.27.487-.504 1.047-.591 1.621-.076.582-.016 1.168.287 1.704.49.855 1.118 1.347 1.672 1.625.429.213.81.297 1.067.3-.12.226-.24.454-.357.687a41.46 41.46 0 0 0-.512 1.127c-.154.39-.315.783-.464 1.186-.035.093-.066.19-.1.284.005-.038.012-.074.015-.113.072-.761-.072-1.74-.991-2.662a8.11 8.11 0 0 1-.977-1.17 6.842 6.842 0 0 1-.573-1.026c-.271-.603-.347-1.008-.347-1.008s-.165.203-.392.546a9.87 9.87 0 0 0-.374.612 8.77 8.77 0 0 0-.36.785 5.12 5.12 0 0 0-.39 1.848c.008.64.17 1.267.582 1.797.665.848 1.42 1.277 2.061 1.489.584.191 1.07.2 1.327.13-.37 1.147-.715 2.338-1.088 3.56-.059-.822-.372-1.836-1.507-2.677-.978-.72-1.633-1.508-2.012-2.112-.386-.606-.531-1.03-.531-1.03s-.145.244-.333.65a8.052 8.052 0 0 0-.558 1.62c-.29 1.291-.253 2.885.827 3.89.841.796 1.738 1.131 2.452 1.25.529.085.968.056 1.256-.02-.089.43-.174.865-.22 1.307-.062.48-.049.97-.054 1.459.012.334.002.667-.012 1-.008-.036-.013-.07-.023-.106-.202-.862-.725-1.893-2.068-2.607a8.568 8.568 0 0 1-2.493-1.934 6.099 6.099 0 0 1-.555-.73c-.117-.181-.172-.288-.172-.288s-.12.283-.254.748c-.123.467-.276 1.113-.313 1.834-.097 1.435.243 3.158 1.565 4.05 1.053.71 2.044.903 2.829.9.649-.005 1.152-.147 1.429-.3-.027 1.122-.02 2.26.097 3.4-.449-.749-1.183-1.523-2.5-1.96a8.93 8.93 0 0 1-2.987-1.637c-.654-.547-.953-.974-.953-.974l-.045.228a6.765 6.765 0 0 0-.083.626 9.332 9.332 0 0 0 .017 2.06c.05.4.124.813.249 1.227.116.41.282.82.489 1.201.203.38.47.741.766 1.041.311.307.666.565 1.066.735 1.272.48 2.353.45 3.166.265.528-.122.94-.31 1.215-.493.252 1.093.564 2.174.983 3.207a4.19 4.19 0 0 0-.833-.667c-.539-.34-1.23-.6-2.1-.685a10.727 10.727 0 0 1-2.006-.391 9.237 9.237 0 0 1-2.017-.878c-.155-.098-.285-.203-.39-.286-.21-.168-.319-.276-.319-.276l.017.278.029.325a12.726 12.726 0 0 0 .22 1.33c.087.35.197.73.334 1.119.558 1.55 1.694 3.194 3.485 3.556 1.407.295 2.553.074 3.368-.255.64-.262 1.088-.595 1.32-.864.112.228.22.457.322.687.217.442.405.893.618 1.331.208.459.424.911.648 1.357-.78-.614-1.89-1.126-3.46-1.039-1.596.101-2.908-.156-3.826-.444-.908-.292-1.422-.602-1.422-.602a10.513 10.513 0 0 0 .6 1.892c.144.357.33.736.55 1.119.433.766 1.02 1.538 1.746 2.127.727.588 1.586.992 2.557 1.033 1.53.074 2.685-.357 3.474-.843.503-.313.863-.653 1.085-.942.285.44.583.866.906 1.267.283.364.597.7.891 1.041l.523.566c-.936-.512-2.198-.87-3.844-.51-.826.187-1.587.264-2.276.278a10.104 10.104 0 0 1-1.8-.117c-1.012-.155-1.595-.405-1.595-.405s.131.378.425.939c.286.563.733 1.315 1.34 2.051.304.369.643.736 1.025 1.068.374.337.791.64 1.232.89.882.499 1.873.775 2.898.647a6.502 6.502 0 0 0 2.062-.59 5.663 5.663 0 0 0 1.384-.931c.545-.504.873-1.01 1.013-1.377a49.729 49.729 0 0 0 2.097 1.917c.42.357.834.696 1.24 1.02-1.11-.344-2.529-.493-4.222.244-.806.354-1.593.595-2.305.74-.71.143-1.363.205-1.908.216a9.71 9.71 0 0 1-1.287-.06c-.307-.034-.472-.073-.472-.073s.056.093.17.252a12.708 12.708 0 0 0 2.394 2.573c.41.33.867.646 1.348.926.494.271.996.52 1.536.685.534.17 1.076.279 1.625.29A4.354 4.354 0 0 0 18 57.76c1.641-.57 2.6-1.531 3.156-2.38.37-.572.563-1.101.635-1.501l.615.408.737.45c.236.146.476.265.699.39.224.121.437.24.647.338.416.206.79.384 1.127.517.333.142.62.256.857.334l.54.185c.123.042.188.058.188.058.526.141 1.075-.184 1.235-.738.162-.565-.092-1.142-.567-1.286M105.616 54.535s.058-.017.169-.056l.493-.16c.218-.064.482-.158.794-.266.314-.102.669-.238 1.068-.387.202-.07.409-.158.627-.25.216-.093.45-.177.682-.29l.734-.334.61-.305c-.324-.253-.702-.666-1.043-1.236-.533-.875-.97-2.092-1.205-3.572-.296-1.856.395-3.024 1.186-3.898.395-.433.82-.775 1.15-1.019.162-.123.303-.216.404-.28l.158-.097s.02.123.074.35c.054.227.143.562.28.994a27.973 27.973 0 0 0 1.442 3.607c.748 1.534.49 2.83-.073 3.739.388-.267.779-.554 1.17-.868a21.808 21.808 0 0 0 2.003-1.822c-.38-.139-.888-.45-1.402-.958a7.445 7.445 0 0 1-1.03-1.28c-.327-.508-.634-1.1-.904-1.772-.669-1.682-.211-3.007.396-4.027a8.545 8.545 0 0 1 1.391-1.714s.164.456.567 1.22c.204.386.468.85.797 1.376.332.528.741 1.125 1.226 1.761.967 1.256 1.013 2.461.725 3.409.134-.177.267-.356.404-.535.245-.355.504-.705.75-1.07l.858-1.203c-.356-.092-.806-.286-1.285-.605-.78-.516-1.616-1.35-2.347-2.526-.913-1.476-.685-2.837-.272-3.912.104-.268.226-.514.338-.74.115-.224.242-.418.34-.586.205-.332.37-.529.37-.529s.212.403.717 1.068c.493.661 1.271 1.595 2.386 2.643 1.1 1.02 1.346 2.127 1.247 3.053.26-.387.515-.782.753-1.19.249-.404.462-.828.68-1.253.1-.22.2-.439.295-.66-.363.007-.905-.095-1.521-.37-.813-.358-1.729-1.004-2.601-1.993-1.086-1.242-1.086-2.566-.871-3.634.05-.268.121-.518.2-.743a5.995 5.995 0 0 1 .32-.82c.025-.051.049-.096.07-.133.04-.072.067-.113.067-.113s.07.07.216.199c.072.067.166.14.274.241.104.109.226.232.368.368a19.734 19.734 0 0 0 2.647 2.112c.705.473 1.134 1.017 1.386 1.57.13.304.208.61.245.905.324-.997.66-1.994.956-3.005-.327.028-.77-.005-1.277-.14-.807-.21-1.777-.676-2.73-1.463a4.48 4.48 0 0 1-.76-.685 3.17 3.17 0 0 1-.711-1.468 4.636 4.636 0 0 1-.083-.736c-.028-.954.206-1.796.206-1.796s.329.256.966.627c.647.372 1.6.87 2.886 1.366 1.241.473 1.83 1.29 2.057 2.076.214-1.045.36-2.11.415-3.175-.284.134-.776.238-1.405.214-.78-.027-1.772-.254-2.816-.764-1.328-.643-1.794-1.704-2-2.651a6.444 6.444 0 0 1-.131-1.243c-.008-.327.012-.539.012-.539s.085.05.253.132c.165.082.423.195.745.326.652.26 1.63.592 2.895.854 1.488.3 2.17 1.202 2.46 2.022a9.577 9.577 0 0 0-.089-.859c-.087-.469-.166-.934-.234-1.397l-.148-1.265c-.253.15-.655.294-1.171.362-.727.098-1.656.04-2.716-.282-1.32-.408-1.936-1.35-2.267-2.215a6.626 6.626 0 0 1-.317-1.15c-.055-.307-.063-.51-.063-.51s.338.144.985.299c.652.152 1.584.335 2.801.4 1.368.07 2.14.763 2.542 1.458-.17-1.206-.492-2.356-.884-3.444-.176.198-.57.446-1.136.611-.647.192-1.521.276-2.529.12a3.008 3.008 0 0 1-1.525-.664c-.401-.314-.67-.71-.899-1.086a4.582 4.582 0 0 1-.271-.555 5.1 5.1 0 0 1-.19-.475 3.989 3.989 0 0 1-.133-.466s.333.091.949.153c.307.031.69.054 1.13.06.437.008.94-.005 1.5-.055 1.311-.122 2.126.449 2.592 1.05l-.07-.168c-.169-.386-.348-.762-.516-1.135-.179-.369-.358-.73-.526-1.089l-.338-.663c-.161.19-.459.421-.878.614-.563.26-1.348.452-2.29.437a2.782 2.782 0 0 1-1.491-.42 3.48 3.48 0 0 1-.975-.897 4.716 4.716 0 0 1-.567-.901c-.131-.244-.195-.411-.195-.411s.325.042.9.027c.567-.01 1.391-.077 2.409-.308.593-.136 1.084-.094 1.505.036.343.107.628.28.857.473l-.01-.018a34.43 34.43 0 0 0-1.452-2.368c-.114.197-.364.46-.746.7-.48.302-1.159.56-2.032.658a2.585 2.585 0 0 1-1.41-.228c-.408-.18-.733-.452-1.005-.727a4.526 4.526 0 0 1-.63-.775l-.168-.262a56.93 56.93 0 0 0-.058-.1s.075.003.217-.004c.143-.008.35-.023.607-.054a10.485 10.485 0 0 0 2.165-.523c.527-.187.977-.2 1.374-.125.392.078.733.24.988.438.002.002.003.004.006.005-.01-.012-.018-.024-.027-.037a35.52 35.52 0 0 0-1.046-1.33c-.232-.262-.445-.513-.653-.745-.075.19-.273.463-.604.727-.401.322-.984.623-1.762.791a2.33 2.33 0 0 1-1.31-.077 3.365 3.365 0 0 1-.996-.576 4.79 4.79 0 0 1-.37-.349 4.57 4.57 0 0 1-.529-.623s.275-.011.746-.116c.235-.053.52-.129.844-.236.319-.104.678-.24 1.067-.42.851-.396 1.58-.262 2.08.015-.102-.101-.2-.199-.293-.289-.248-.23-.468-.418-.645-.571l-.408-.345a3.538 3.538 0 0 0-.144-.115.293.293 0 0 1-.09-.108 3.47 3.47 0 0 1-.86.031c-.411-.044-.775-.2-1.138-.49-.362-.292-.582-.74-.774-1.209-.186-.474-.313-1-.434-1.486.427-.012.99-.004 1.551.086.14.023.28.05.417.084.135.037.266.08.393.13.252.1.484.228.677.386.389.313.577.687.665 1.084.056.265.064.543.046.837a.326.326 0 0 1 .122.083l.122.14.362.405c.162.174.36.39.594.641.105.12.218.248.338.382-.264-.529-.456-1.247-.046-2.148.177-.387.3-.754.384-1.087.08-.329.12-.622.14-.87.038-.492-.009-.793-.009-.793s.168.097.416.276c.124.089.268.198.42.326.15.13.303.283.456.45.3.338.601.723.767 1.173.17.444.233.923.096 1.407a3.29 3.29 0 0 1-1.014 1.627c-.336.287-.66.433-.865.466.21.241.43.5.67.768a69.496 69.496 0 0 1 1.177 1.435l-.037-.09c-.113-.306-.21-.655-.195-1.056.01-.398.13-.849.399-1.315a6.495 6.495 0 0 0 .791-2.097c.052-.273.07-.493.074-.643.005-.15 0-.234 0-.234l.12.09c.077.059.189.143.312.26.25.23.578.562.884.961.3.405.565.89.712 1.392.14.509.142 1.053-.068 1.569a3.594 3.594 0 0 1-1.315 1.66c-.396.265-.76.384-.99.401.53.717 1.07 1.505 1.605 2.366l.048.082a3.025 3.025 0 0 1-.038-1.053c.066-.43.253-.903.612-1.378a7.04 7.04 0 0 0 1.133-2.187c.171-.58.184-.95.184-.95s.179.16.433.439c.244.284.559.692.842 1.171.27.487.504 1.047.59 1.621.077.582.017 1.168-.286 1.704-.49.855-1.119 1.347-1.673 1.625-.428.213-.81.297-1.066.3.12.226.24.454.357.687.172.368.345.743.512 1.127.154.39.314.783.464 1.186.035.093.066.19.099.284-.004-.038-.011-.074-.014-.113-.072-.761.072-1.74.991-2.662a8.11 8.11 0 0 0 .977-1.17c.254-.376.436-.724.573-1.026.271-.603.347-1.008.347-1.008s.165.203.392.546c.113.172.242.378.373.612.123.238.248.503.36.785a5.12 5.12 0 0 1 .39 1.848c-.007.64-.17 1.267-.582 1.797-.664.848-1.42 1.277-2.06 1.489-.584.191-1.071.2-1.328.13.371 1.147.715 2.338 1.089 3.56.058-.822.372-1.836 1.507-2.677.977-.72 1.633-1.508 2.012-2.112.386-.606.53-1.03.53-1.03s.145.244.333.65c.195.402.409.975.559 1.62.29 1.291.253 2.885-.827 3.89-.841.796-1.738 1.131-2.453 1.25-.528.085-.968.056-1.255-.02.088.43.173.865.22 1.307.062.48.049.97.053 1.459-.011.334-.001.667.012 1 .009-.036.014-.07.023-.106.203-.862.726-1.893 2.069-2.607a8.568 8.568 0 0 0 2.492-1.934c.262-.294.436-.548.555-.73.118-.181.173-.288.173-.288s.119.283.253.748c.124.467.277 1.113.314 1.834.096 1.435-.243 3.158-1.566 4.05-1.053.71-2.043.903-2.828.9-.65-.005-1.152-.147-1.43-.3.028 1.122.02 2.26-.096 3.4.448-.749 1.183-1.523 2.5-1.96a8.93 8.93 0 0 0 2.987-1.637c.653-.547.952-.974.952-.974l.046.228c.028.147.058.362.083.626.055.528.08 1.26-.017 2.06-.05.4-.124.813-.249 1.227a5.93 5.93 0 0 1-.489 1.201c-.203.38-.47.741-.767 1.041-.31.307-.665.565-1.065.735-1.273.48-2.354.45-3.167.265-.527-.122-.94-.31-1.214-.493-.252 1.093-.564 2.174-.983 3.207a4.19 4.19 0 0 1 .833-.667c.538-.34 1.229-.6 2.1-.685a10.727 10.727 0 0 0 2.005-.391 9.237 9.237 0 0 0 2.018-.878c.155-.098.285-.203.39-.286.21-.168.319-.276.319-.276l-.018.278-.028.325a12.726 12.726 0 0 1-.22 1.33c-.088.35-.197.73-.334 1.119-.558 1.55-1.694 3.194-3.485 3.556-1.407.295-2.554.074-3.368-.255-.641-.262-1.088-.595-1.321-.864-.11.228-.22.457-.321.687-.217.442-.405.893-.618 1.331-.208.459-.425.911-.648 1.357.78-.614 1.89-1.126 3.46-1.039 1.596.101 2.908-.156 3.826-.444.908-.292 1.421-.602 1.421-.602s-.072.365-.245.928c-.082.283-.208.608-.354.964a9.314 9.314 0 0 1-.55 1.119c-.433.766-1.021 1.538-1.746 2.127-.727.588-1.586.992-2.558 1.033-1.53.074-2.684-.357-3.473-.843-.503-.313-.863-.653-1.085-.942-.285.44-.583.866-.906 1.267-.283.364-.597.7-.892 1.041l-.522.566c.936-.512 2.198-.87 3.844-.51.826.187 1.586.264 2.276.278.691.016 1.299-.038 1.8-.117 1.012-.155 1.595-.405 1.595-.405s-.131.378-.425.939a11.394 11.394 0 0 1-1.34 2.051 8.915 8.915 0 0 1-1.025 1.068c-.374.337-.791.64-1.233.89-.881.499-1.872.775-2.898.647a6.502 6.502 0 0 1-2.061-.59 5.663 5.663 0 0 1-1.385-.931c-.544-.504-.872-1.01-1.013-1.377a49.729 49.729 0 0 1-2.097 1.917c-.42.357-.833.696-1.24 1.02 1.11-.344 2.53-.493 4.222.244.806.354 1.594.595 2.306.74.71.143 1.363.205 1.907.216a9.71 9.71 0 0 0 1.288-.06c.306-.034.472-.073.472-.073s-.056.093-.17.252a12.707 12.707 0 0 1-2.394 2.573c-.41.33-.867.646-1.348.926-.495.271-.996.52-1.537.685-.533.17-1.075.279-1.624.29a4.354 4.354 0 0 1-1.601-.237c-1.642-.57-2.6-1.531-3.156-2.38-.37-.572-.564-1.101-.636-1.501l-.614.408-.738.45c-.235.146-.475.265-.698.39-.224.121-.438.24-.648.338-.415.206-.79.384-1.126.517-.333.142-.62.256-.857.334l-.541.185c-.122.042-.188.058-.188.058-.525.141-1.074-.184-1.234-.738-.163-.565.092-1.142.567-1.286" fill="#D6BD82"/></g></svg>