<svg width="64" height="64" xmlns="http://www.w3.org/2000/svg"><g fill="none" fill-rule="evenodd" opacity=".44"><path fill="#FFF" opacity=".01" d="M0 0h64v64H0z"/><path d="M33.971 22.157c.072-5.697 4.748-10.257 10.446-10.185.35.004.693.026 1.034.064l-.04 3.119a7.22 7.22 0 0 0-8.156 5.5l6.023.075-.039 3.092-6.023-.076c.669 3.253 3.525 5.721 6.979 5.764.353.005.697-.016 1.036-.061l-.04 3.115c-.34.03-.685.044-1.035.04-5.697-.073-10.257-4.75-10.185-10.447m-17.535-.221c.071-5.697 4.75-10.257 10.445-10.185.351.004.695.026 1.032.064l-.04 3.118a7.222 7.222 0 1 0-.18 14.294l-.04 3.115a9.714 9.714 0 0 1-1.031.04c-5.697-.072-10.258-4.75-10.186-10.446" fill="#181916"/><path d="M13.66 50.096c-1.648 0-2.872-1.272-2.872-2.88V47.2c0-1.592 1.2-2.896 2.92-2.896 1.056 0 1.688.352 2.208.864l-.784.904c-.432-.392-.872-.632-1.432-.632-.944 0-1.624.784-1.624 1.744v.016c0 .96.664 1.76 1.624 1.76.64 0 1.032-.256 1.472-.656l.784.792c-.576.616-1.216 1-2.296 1zM16.807 50v-5.6h4.224v1.096h-3v1.136h2.64v1.096h-2.64v1.176h3.04V50h-4.264zm5.226 0v-5.6h2.56c.712 0 1.264.2 1.632.568.312.312.48.752.48 1.28v.016c0 .904-.488 1.472-1.2 1.736l1.368 2h-1.44l-1.2-1.792h-.968V50h-1.232zm1.232-2.88h1.248c.6 0 .944-.32.944-.792v-.016c0-.528-.368-.8-.968-.8h-1.224v1.608zM28.988 50v-4.464h-1.704V44.4h4.64v1.136H30.22V50h-1.232zm3.803 0v-5.6h1.232V50H32.79zm2.498 0v-5.6h4.264v1.12h-3.032v1.192h2.672v1.12h-2.672V50H35.29zm5.171 0v-5.6h1.232V50H40.46zm2.499 0v-5.6h4.224v1.096h-3v1.136h2.64v1.096h-2.64v1.176h3.04V50h-4.264zm5.226 0v-5.6h2.184c1.76 0 2.976 1.208 2.976 2.784v.016c0 1.576-1.216 2.8-2.976 2.8h-2.184zm2.184-4.488h-.952v3.376h.952c1.008 0 1.688-.68 1.688-1.672V47.2c0-.992-.68-1.688-1.688-1.688z" fill="#000"/></g></svg>