<?xml version="1.0" encoding="UTF-8"?>
<svg width="89px" height="18px" viewBox="0 0 89 18" version="1.1" xmlns="http://www.w3.org/2000/svg" xmlns:xlink="http://www.w3.org/1999/xlink">
    <!-- Generator: Sketch 48.2 (47327) - http://www.bohemiancoding.com/sketch -->
    <title>logo_rapael</title>
    <desc>Created with Sketch.</desc>
    <defs></defs>
    <g id="1-page" stroke="none" stroke-width="1" fill="none" fill-rule="evenodd" transform="translate(-160.000000, -40.000000)">
        <g id="logo_rapael" transform="translate(160.000000, 40.000000)" fill="#F76707">
            <path d="M3.6328,7.6758 L4.8048,7.6758 C5.9528,7.6758 6.8008,7.4848 7.3478,7.1018 C7.8948,6.7188 8.1678,6.1168 8.1678,5.2968 C8.1678,4.4848 7.8888,3.9058 7.3298,3.5628 C6.7718,3.2188 5.9058,3.0468 4.7348,3.0468 L3.6328,3.0468 L3.6328,7.6758 Z M3.6328,10.6288 L3.6328,17.2028 L-0.0002,17.2028 L-0.0002,0.0708 L4.9918,0.0708 C7.3208,0.0708 9.0428,0.4938 10.1598,1.3418 C11.2778,2.1898 11.8358,3.4768 11.8358,5.2028 C11.8358,6.2108 11.5588,7.1078 11.0038,7.8928 C10.4488,8.6778 9.6638,9.2928 8.6488,9.7388 C11.2268,13.5898 12.9058,16.0778 13.6878,17.2028 L9.6558,17.2028 L5.5668,10.6288 L3.6328,10.6288 Z" id="Fill-1"></path>
            <path d="M24.2227,10.0781 C23.0747,6.3831 22.4277,4.2931 22.2837,3.8081 C22.1387,3.3241 22.0347,2.9411 21.9727,2.6601 C21.7147,3.6601 20.9767,6.1331 19.7577,10.0781 L24.2227,10.0781 Z M26.3317,17.2031 L25.0897,13.1251 L18.8437,13.1251 L17.6017,17.2031 L13.6877,17.2031 L19.7347,0.0001 L24.1757,0.0001 L30.2457,17.2031 L26.3317,17.2031 Z" id="Fill-4"></path>
            <path d="M36.0352,8.1328 L37.2302,8.1328 C38.3482,8.1328 39.1832,7.9118 39.7382,7.4708 C40.2932,7.0288 40.5702,6.3868 40.5702,5.5428 C40.5702,4.6918 40.3382,4.0628 39.8732,3.6558 C39.4082,3.2498 38.6802,3.0468 37.6872,3.0468 L36.0352,3.0468 L36.0352,8.1328 Z M44.2382,5.4138 C44.2382,7.2578 43.6622,8.6678 42.5102,9.6448 C41.3572,10.6208 39.7192,11.1098 37.5942,11.1098 L36.0352,11.1098 L36.0352,17.2028 L32.4022,17.2028 L32.4022,0.0698 L37.8752,0.0698 C39.9532,0.0698 41.5332,0.5178 42.6152,1.4118 C43.6972,2.3068 44.2382,3.6408 44.2382,5.4138 Z" id="Fill-6"></path>
            <path d="M55.8516,10.0781 C54.7036,6.3831 54.0566,4.2931 53.9126,3.8081 C53.7676,3.3241 53.6636,2.9411 53.6016,2.6601 C53.3436,3.6601 52.6056,6.1331 51.3866,10.0781 L55.8516,10.0781 Z M57.9606,17.2031 L56.7186,13.1251 L50.4726,13.1251 L49.2306,17.2031 L45.3166,17.2031 L51.3636,0.0001 L55.8046,0.0001 L61.8746,17.2031 L57.9606,17.2031 Z" id="Fill-8"></path>
            <polygon id="Fill-10" points="73.8984 17.2031 64.0314 17.2031 64.0314 0.0701 73.8984 0.0701 73.8984 3.0471 67.6644 3.0471 67.6644 6.8081 73.4644 6.8081 73.4644 9.7851 67.6644 9.7851 67.6644 14.2031 73.8984 14.2031"></polygon>
            <polygon id="Fill-12" points="77.4727 17.2031 77.4727 0.0701 81.1057 0.0701 81.1057 14.2031 88.0547 14.2031 88.0547 17.2031"></polygon>
        </g>
    </g>
</svg>