<?xml version="1.0" encoding="UTF-8"?>
<svg width="119px" height="58px" viewBox="0 0 119 58" version="1.1" xmlns="http://www.w3.org/2000/svg" xmlns:xlink="http://www.w3.org/1999/xlink">
    <!-- Generator: Sketch 48.2 (47327) - http://www.bohemiancoding.com/sketch -->
    <title>Awads PCA 2017</title>
    <desc>Created with Sketch.</desc>
    <defs></defs>
    <g id="1-page" stroke="none" stroke-width="1" fill="none" fill-rule="evenodd" transform="translate(-456.000000, -239.000000)">
        <g id="Awards" transform="translate(160.000000, 239.000000)">
            <g id="Awads-PCA-2017" transform="translate(296.000000, 0.000000)">
                <text id="2017-Popular-Science" font-family="Gotham-Bold, Gotham" font-size="14" font-weight="bold" line-spacing="14" fill="#212529">
                    <tspan x="42.777" y="15">2017</tspan>
                    <tspan x="76.223" y="15" font-family="Gotham-Book, Gotham" font-size="10" font-weight="300"></tspan>
                    <tspan x="40.32" y="29" font-family="Gotham-Book, Gotham" font-size="10" font-weight="300" line-spacing="10">Popular</tspan>
                    <tspan x="40.35" y="39" font-family="Gotham-Book, Gotham" font-size="10" font-weight="300" line-spacing="10">Science</tspan>
                    <tspan x="40.96" y="49" font-family="Gotham-Book, Gotham" font-size="10" font-weight="300" line-spacing="10">Awards</tspan>
                </text>
                <path d="M27.8697776,54.5345537 C27.8697776,54.5345537 27.8115701,54.5179867 27.7008803,54.4793303 C27.5892363,54.4429748 27.4236788,54.3891319 27.2075476,54.3191822 C26.9895078,54.255215 26.7256655,54.1613351 26.414112,54.052729 C26.0996959,53.9510258 25.7452024,53.8152681 25.3453834,53.6657045 C25.1435655,53.5957548 24.9369764,53.5078575 24.7189367,53.4167387 C24.5023283,53.323319 24.2690211,53.2386431 24.0371451,53.1254349 C23.8019294,53.0186696 23.5566944,52.9073023 23.3023942,52.7917932 C23.1053474,52.6933113 22.9006668,52.5911479 22.6921693,52.4871437 C23.0170819,52.2344964 23.3944766,51.8212407 23.7360881,51.2510585 C24.2685439,50.3762267 24.7051005,49.1590095 24.9407933,47.6794808 C25.2366021,45.8230519 24.5462225,44.6546154 23.7546954,43.780704 C23.3596475,43.3481202 22.9340645,43.0057347 22.6053351,42.7622913 C22.4426402,42.6389589 22.3014154,42.5455392 22.2012221,42.4824924 C22.0995974,42.4199058 22.0428212,42.3849309 22.0428212,42.3849309 C22.0428212,42.3849309 22.0223055,42.5082633 21.968869,42.7346795 C21.9149555,42.9620161 21.8257357,43.2970385 21.6883278,43.7291621 C21.5533054,44.1580644 21.3777285,44.6762446 21.1386959,45.2860037 C20.9010947,45.893922 20.6153052,46.5750114 20.2464984,47.3357147 C19.4988655,48.8695465 19.7569825,50.1654571 20.3199735,51.0748036 C19.9320823,50.8078901 19.5408513,50.5207281 19.1505745,50.2073349 C18.4730769,49.6698265 17.8046444,49.0559257 17.1467084,48.3845004 C17.5264887,48.2464417 18.0346119,47.9344291 18.5484604,47.4272936 C18.8972286,47.0853683 19.2498136,46.6569262 19.578543,46.1470296 C19.9058412,45.6394339 20.2131006,45.046702 20.4826683,44.3752767 C21.1515779,42.6932619 20.6940285,41.3678987 20.0871433,40.3481054 C19.7817923,39.8423505 19.4344555,39.4185104 19.1648878,39.1143211 C18.8886406,38.815194 18.6954106,38.6343371 18.6954106,38.6343371 C18.6954106,38.6343371 18.5312844,39.0899307 18.1290799,39.8543156 C17.9243993,40.2399594 17.661034,40.7042968 17.3313503,41.2303003 C16.9997582,41.7576844 16.590397,42.3554784 16.1061294,42.9914687 C15.1390254,44.2468821 15.0927456,45.4521343 15.3809207,46.3996769 C15.2463754,46.223422 15.1132614,46.0439458 14.9768077,45.8653899 C14.7320497,45.5101189 14.4729785,45.1599101 14.2272663,44.794975 C13.9443395,44.3987467 13.6575958,43.9969959 13.3684666,43.5915637 C13.7248685,43.4999847 14.1747841,43.3062424 14.6533264,42.9868667 C15.4329258,42.4714477 16.2697784,41.6371131 17.0011895,40.4608533 C17.9139028,38.9854664 17.6853667,37.6242079 17.2731428,36.5491911 C17.1686555,36.2813573 17.0469922,36.0351527 16.934394,35.8096568 C16.8194103,35.5850814 16.6929759,35.3908789 16.5942139,35.2233677 C16.3895333,34.8911065 16.2254071,34.6941428 16.2254071,34.6941428 C16.2254071,34.6941428 16.0126156,35.0972741 15.5078322,35.7622567 C15.0144994,36.4230975 14.2363314,37.3572945 13.1218002,38.4051598 C12.0220594,39.4249531 11.775393,40.5317234 11.8746321,41.4580971 C11.6141295,41.0710726 11.3593522,40.6757646 11.121751,40.267111 C10.8731762,39.8639797 10.6594304,39.4396794 10.4423449,39.0149189 C10.3421516,38.7958658 10.2414812,38.5763525 10.1465361,38.3540781 C10.5096176,38.3623616 11.0520928,38.259738 11.668043,37.9854614 C12.480563,37.6274293 13.3966161,36.9813147 14.268775,35.9918943 C15.3551567,34.7498265 15.3546796,33.4263041 15.1399796,32.35773 C15.089883,32.0898962 15.0187934,31.84001 14.9405472,31.6145142 C14.8699348,31.3876378 14.7935971,31.1851517 14.720122,31.0157998 C14.68577,30.9348053 14.6452155,30.8464478 14.6199287,30.7958263 C14.5946418,30.7438242 14.5707862,30.6991852 14.5502705,30.6623696 C14.509716,30.5896587 14.4829978,30.5491615 14.4829978,30.5491615 C14.4829978,30.5491615 14.4128625,30.6195714 14.2668665,30.7479659 C14.1948228,30.8146943 14.1003548,30.8874052 13.9930048,30.9891084 C13.8889946,31.0977146 13.7668542,31.221047 13.6251523,31.3572649 C13.3431797,31.6297006 12.9767585,31.9550589 12.540679,32.3126308 C12.1050767,32.6702028 11.5869342,33.0632098 10.9786177,33.4695624 C10.2724934,33.9421833 9.84357067,34.4856742 9.59213319,35.0397497 C9.46140478,35.3425584 9.3841128,35.6481282 9.34689814,35.9440339 C9.02246268,34.9467902 8.68609944,33.9504668 8.39029064,32.9394172 C8.71758877,32.9670289 9.15987064,32.9338948 9.66751672,32.7995177 C10.4743114,32.5892084 11.4452322,32.1225701 12.3980228,31.3360959 C12.7090992,31.1064583 12.9605367,30.8818828 13.1571064,30.6508647 C13.3641726,30.409262 13.5068288,30.1773235 13.6256294,29.9278975 C13.7415674,29.6807725 13.8145653,29.4354882 13.868956,29.1833011 C13.9157129,28.9370964 13.9452937,28.6862899 13.9514962,28.4469882 C13.9801228,27.493463 13.7453842,26.6513051 13.7453842,26.6513051 C13.7453842,26.6513051 13.4171319,26.9067137 12.7801887,27.2776313 C12.1332262,27.6503897 11.1804356,28.1478611 9.89366732,28.6444121 C8.65270167,29.1170329 8.06394673,29.9348004 7.83636479,30.719894 C7.62309619,29.6752501 7.47662312,28.6103576 7.42127824,27.5445447 C7.7061135,27.679382 8.1975378,27.7833862 8.82684718,27.7585356 C9.60692363,27.7323045 10.5983602,27.5045077 11.6432333,26.994611 C12.9710331,26.3517178 13.4371705,25.2909671 13.6432825,24.3438846 C13.7367962,23.8712638 13.7763965,23.429476 13.7740109,23.1008964 C13.7816447,22.7736974 13.7620831,22.5620074 13.7620831,22.5620074 C13.7620831,22.5620074 13.6771574,22.6121687 13.5092143,22.6940835 C13.3436568,22.7764586 13.0860169,22.8892065 12.7634898,23.0203622 C12.1122334,23.2808329 11.1341559,23.6121737 9.86885755,23.8744851 C8.38122553,24.1731521 7.69847972,25.0755955 7.40791913,25.8961242 C7.42461802,25.608502 7.45515312,25.3218002 7.497616,25.0373993 C7.5844502,24.5679998 7.66412773,24.1032023 7.73140038,23.6397854 C7.78149703,23.2154851 7.83063946,22.7944062 7.87978189,22.375168 C8.13312782,22.5247316 8.53485526,22.669233 9.05108934,22.7368817 C9.77820647,22.8349034 10.7071415,22.7773789 11.7663279,22.4547819 C13.086494,22.0465884 13.7029214,21.1041079 14.0335593,20.2398607 C14.2038879,19.8095778 14.2888136,19.3949416 14.3508381,19.089832 C14.4057058,18.7828815 14.4138167,18.5803955 14.4138167,18.5803955 C14.4138167,18.5803955 14.075545,18.7235163 13.4290597,18.8786022 C12.7763718,19.0313871 11.8445741,19.2136246 10.627464,19.2785121 C9.26006395,19.3489221 8.48714416,20.0424368 8.08589383,20.7368719 C8.25669956,19.5311595 8.57731814,18.3811308 8.96950336,17.2932285 C9.14603442,17.4911126 9.54012809,17.7386978 10.1059817,17.9043682 C10.7529442,18.0962698 11.6270115,18.1800254 12.6346699,18.0240191 C13.2787697,17.929679 13.7749651,17.6807132 14.1595166,17.3599569 C14.5607669,17.0461035 14.8298575,16.6503353 15.0583936,16.2743556 C15.1681292,16.084755 15.2573489,15.8960748 15.3298698,15.7193597 C15.4095473,15.545866 15.4720489,15.3838772 15.51976,15.2444379 C15.6151822,14.9660196 15.6523968,14.7782598 15.6523968,14.7782598 C15.6523968,14.7782598 15.3198505,14.8693785 14.7039002,14.9305846 C14.3971178,14.962338 14.0135206,14.9853478 13.5745785,14.9917906 C13.1370677,14.9991537 12.6341928,14.9862682 12.0731103,14.9356467 C10.7624864,14.8136949 9.94805798,15.3847976 9.48144344,15.9862732 C9.50529899,15.9301293 9.52820032,15.8735252 9.55157875,15.8178416 C9.72047604,15.4317375 9.89986977,15.0557577 10.0673357,14.6825392 C10.2467294,14.3143827 10.4261232,13.9531292 10.5940662,13.5941767 C10.7085729,13.369141 10.8197397,13.1514685 10.9318608,12.9314951 C11.0931243,13.1215558 11.3903645,13.3521138 11.8102221,13.5449357 C12.3732131,13.8058666 13.1575835,13.997308 14.1003548,13.9821215 C14.7015146,13.9775196 15.1958016,13.8118492 15.5908495,13.561963 C15.9978252,13.3180593 16.3174895,12.9931613 16.5660643,12.6645816 C16.8265669,12.342905 17.0107318,12.0138651 17.1323951,11.7635188 C17.2640777,11.5196151 17.3275335,11.3525641 17.3275335,11.3525641 C17.3275335,11.3525641 17.0026209,11.3949021 16.4281793,11.3797157 C15.8608943,11.3691312 15.0364465,11.302863 14.0192459,11.0718448 C13.426197,10.9356269 12.9342956,10.9775047 12.5139608,11.1082003 C12.170918,11.2154258 11.8860828,11.3870788 11.6570695,11.5812813 C11.6604093,11.5752988 11.663749,11.5693162 11.6670888,11.5633337 C12.1461082,10.7055292 12.6361012,9.9158336 13.1189375,9.19470717 C13.2329671,9.39167087 13.4824961,9.65490272 13.864662,9.89420441 C14.3446356,10.1965529 15.0235645,10.4547226 15.8971547,10.5527442 C16.4482179,10.615791 16.9071987,10.5085655 17.3074948,10.3249474 C17.7144705,10.1454712 18.039383,9.87349561 18.3118134,9.59783847 C18.5899691,9.32678329 18.800375,9.04192224 18.942077,8.82286916 C19.0122123,8.71334262 19.0694656,8.62360449 19.109543,8.56101789 C19.1467576,8.49705071 19.1677505,8.46115546 19.1677505,8.46115546 C19.1677505,8.46115546 19.092367,8.46391663 18.950665,8.4570137 C18.8075317,8.44919037 18.6009427,8.43446411 18.3433027,8.40317082 C17.8246831,8.33828324 17.0784815,8.19608282 16.1791273,7.87992847 C15.6519197,7.69262888 15.2020041,7.6806638 14.8050477,7.75475528 C14.4128625,7.83252833 14.0717281,7.99543756 13.8169509,8.19332164 C13.8150424,8.19516243 13.8136111,8.19700321 13.8112256,8.19838379 C13.8202907,8.18641871 13.8288787,8.17353323 13.8379438,8.16110795 C14.2015023,7.6802036 14.5488391,7.23335372 14.8842481,6.831603 C15.115647,6.56883134 15.3289156,6.31802476 15.5364588,6.08562601 C15.6118424,6.27660716 15.8098434,6.54858273 16.1409585,6.81319518 C16.5417317,7.13487187 17.1252384,7.43583976 17.9024522,7.60427133 C18.3943536,7.71287749 18.8323415,7.66317637 19.2121218,7.52741868 C19.587131,7.38705903 19.9363763,7.18457299 20.2088066,6.95079365 C20.3476459,6.83620495 20.468355,6.71471333 20.5785677,6.60242561 C20.6911658,6.49197868 20.7875423,6.3865939 20.8657885,6.29409459 C21.0222809,6.10955617 21.1076837,5.97932083 21.1076837,5.97932083 C21.1076837,5.97932083 20.8323907,5.96781594 20.3619593,5.86289136 C20.1267436,5.81042906 19.8414312,5.7344968 19.5179499,5.62681104 C19.1987627,5.52326704 18.8394981,5.38658896 18.4506527,5.2061923 C17.5994867,4.81088432 16.8704611,4.94480123 16.3709259,5.22183895 C16.4725506,5.12059593 16.5713126,5.02349467 16.663395,4.93329634 C16.9119698,4.70273837 17.131918,4.51543878 17.308449,4.36173346 C17.4873656,4.21078932 17.6242965,4.09528024 17.716856,4.01704699 C17.8098927,3.93973414 17.8604664,3.9024583 17.8604664,3.9024583 C17.8762111,3.89095341 17.8924329,3.87622715 17.9062691,3.86150089 C17.9243993,3.84125229 17.9391897,3.81824251 17.9506404,3.79477254 C18.2550372,3.83711053 18.5436893,3.85551835 18.8108715,3.82514544 C19.2221411,3.78050648 19.5856997,3.62542057 19.948304,3.33457698 C20.3104313,3.042813 20.5308566,2.59458253 20.7226552,2.12610346 C20.9092056,1.65210204 21.0361171,1.12517813 21.1568262,0.63967182 C20.7298118,0.628166931 20.1663438,0.635990256 19.6052613,0.726188584 C19.4654677,0.748738166 19.3251971,0.7763499 19.1882663,0.809944175 C19.0541981,0.847220015 18.9225154,0.890938593 18.796081,0.940639712 C18.5436893,1.04050215 18.3113363,1.16751612 18.1190606,1.32628359 C17.7302151,1.63921656 17.5412792,2.01335555 17.4534908,2.41004412 C17.3976688,2.67511676 17.3895579,2.95307487 17.4076881,3.24713983 C17.3618854,3.26508746 17.3203768,3.29269919 17.2860248,3.32997503 C17.2860248,3.32997503 17.2435619,3.37691498 17.1634073,3.47033467 C17.0813442,3.56191359 16.9596809,3.69813147 16.80128,3.87530676 C16.6400165,4.04926068 16.4410613,4.264172 16.207754,4.51635917 C16.1027896,4.63601001 15.9897143,4.76394438 15.8694823,4.89832148 C16.1333247,4.36909659 16.3256004,3.65119153 15.915285,2.75012863 C15.7387539,2.36264397 15.6161364,1.99586812 15.5321648,1.66314673 C15.4515331,1.33410691 15.4109787,1.04050215 15.3918942,0.793837331 C15.3537253,0.300507697 15.4004822,0 15.4004822,0 C15.4004822,0 15.2325392,0.0971012619 14.9849186,0.275657137 C14.8608697,0.364935074 14.7172593,0.474001421 14.5650609,0.601935785 C14.4147709,0.731710931 14.2616183,0.88495605 14.1089428,1.05154684 C13.80884,1.38979057 13.5073059,1.77497425 13.3412712,2.22458531 C13.1709426,2.66913421 13.1089182,3.14773759 13.2453719,3.63186331 C13.4629345,4.40315106 13.8737271,4.92869438 14.2597099,5.25911479 C14.5960731,5.54581662 14.9200315,5.69169861 15.1247121,5.72529289 C14.9143061,5.96597516 14.6953122,6.22414487 14.4548483,6.49335927 C14.109897,6.89833135 13.7468156,7.34426085 13.3603557,7.82194383 C13.3326832,7.8559983 13.3045337,7.89235375 13.2773384,7.92778881 C13.2897433,7.8974159 13.3031024,7.86888378 13.3150301,7.83759048 C13.4281054,7.53202063 13.5254361,7.1831924 13.5101685,6.78190188 C13.5001492,6.38429292 13.3803943,5.93330128 13.1108266,5.46666299 C12.639441,4.66086057 12.4190157,3.91534377 12.3192995,3.37047224 C12.2672944,3.09665588 12.2501184,2.8771426 12.2458244,2.72711885 C12.2410533,2.57663491 12.2463016,2.49287932 12.2463016,2.49287932 C12.2463016,2.49287932 12.2028845,2.525093 12.1251154,2.58261745 C12.0487776,2.64198268 11.9371336,2.72619846 11.8135619,2.84308813 C11.5635557,3.07318591 11.2357805,3.4049869 10.9294753,3.80443664 C10.6293725,4.20894854 10.365053,4.69307426 10.2181028,5.196068 C10.077355,5.70458409 10.0759237,6.24853523 10.2853754,6.76487464 C10.6155362,7.58448293 11.1341559,8.10910586 11.6007704,8.42433981 C11.9972496,8.69033284 12.3608082,8.80906329 12.5907757,8.82609053 C12.0611825,9.54261501 11.5201386,10.33093 10.9857743,11.1924161 C10.9700297,11.2191074 10.9533308,11.2467191 10.9380633,11.2738707 C11.0010419,10.9563357 11.0330083,10.603826 10.9752779,10.2214034 C10.9099137,9.79066041 10.7224091,9.31803958 10.3640987,8.84265757 C9.74433159,8.02581046 9.40844546,7.23979646 9.23048307,6.6558083 C9.05967734,6.0764221 9.04631823,5.70596467 9.04631823,5.70596467 C9.04631823,5.70596467 8.86787872,5.86611273 8.61405568,6.14453104 C8.36929775,6.42939208 8.05488162,6.83712535 7.77195481,7.31618892 C7.50143289,7.80261562 7.26812562,8.3631338 7.18081431,8.93745785 C7.10495366,9.51868484 7.16506965,10.1054342 7.46755801,10.6406416 C7.95802809,11.4961451 8.58638325,11.987634 9.14030909,12.2655921 C9.56875475,12.4786626 9.95092064,12.5633386 10.2066521,12.56656 C10.0868973,12.7920558 9.96714241,13.0198526 9.85025022,13.2531718 C9.67753605,13.620868 9.50434477,13.9959274 9.33783304,14.3797305 C9.18372619,14.7690559 9.0234169,15.1625231 8.87408117,15.5656544 C8.83925207,15.6586139 8.80823985,15.7561754 8.77484208,15.8495951 C8.77913608,15.811859 8.78581564,15.7759638 8.78915541,15.7368472 C8.86119917,14.9756837 8.71663454,13.9968478 7.7977188,13.0750761 C7.39933114,12.6788477 7.07823545,12.2807786 6.82107263,11.9047988 C6.56629537,11.5292792 6.3849932,11.1809112 6.24806235,10.8790229 C5.9765862,10.2757065 5.90120267,9.87119463 5.90120267,9.87119463 C5.90120267,9.87119463 5.73612227,10.0736807 5.50901745,10.4169866 C5.39546503,10.5886395 5.26664507,10.7952673 5.13543955,11.0290466 C5.01234492,11.2665076 4.88781895,11.5315802 4.77522076,11.8141403 C4.54095927,12.376039 4.39591754,13.0285963 4.38589821,13.6618254 C4.39257776,14.3014972 4.5552726,14.929204 4.96749649,15.4593492 C5.63211208,16.3065693 6.38785587,16.7359317 7.0281388,16.9476217 C7.61212263,17.139063 8.09877583,17.1478067 8.35546153,17.0783172 C7.98474631,18.2246643 7.64027218,19.4156504 7.2671714,20.6379298 C7.20848675,19.8160206 6.89454772,18.8022097 5.75950071,17.9609723 C4.78237743,17.2412264 4.12682695,16.4533716 3.74800083,15.8491349 C3.36154094,15.2430573 3.21697631,14.8192172 3.21697631,14.8192172 C3.21697631,14.8192172 3.07241169,15.0626607 2.88442996,15.468093 C2.6902458,15.8707641 2.47602297,16.4437075 2.32621012,17.0889017 C2.03517242,18.3802104 2.07286419,19.9743278 3.15256633,20.9784745 C3.9941901,21.7746128 4.89068162,22.1100954 5.60539386,22.2288258 C6.13355572,22.3144222 6.57345204,22.2849697 6.86067284,22.2090374 C6.77240731,22.6393203 6.68748156,23.0737449 6.64167891,23.5159928 C6.57870026,23.9959768 6.59205936,24.4865452 6.58728825,24.9748127 C6.59873892,25.3089147 6.5891967,25.6416361 6.57536048,25.9752778 C6.56724959,25.9393826 6.56200137,25.9053281 6.55245915,25.8689727 C6.34968699,25.0065662 5.82725047,23.9761884 4.48418307,23.2619649 C3.31287562,22.6517456 2.50751229,21.9168133 1.99127821,21.3282231 C1.72934429,21.033698 1.55567589,20.77967 1.43639815,20.598353 C1.31902885,20.4170359 1.26416109,20.3102706 1.26416109,20.3102706 C1.26416109,20.3102706 1.14488334,20.5932908 1.01033805,21.0580884 C0.886766303,21.5247266 0.734090791,22.1713014 0.696876134,22.8915074 C0.600499717,24.3268574 0.940202733,26.0498295 2.26227725,26.9412283 C3.31526118,27.6513101 4.30622067,27.8445922 5.09059112,27.8422912 C5.73993916,27.8367689 6.24281413,27.6954888 6.52001561,27.5417835 C6.49282028,28.6642005 6.50093117,29.8018039 6.61686913,30.9421685 C6.16838482,30.1929701 5.43363391,29.4193814 4.11633051,28.9812752 C2.77374022,28.543169 1.77228428,27.8896914 1.1300929,27.3448198 C0.476450863,26.7981075 0.177302281,26.3705858 0.177302281,26.3705858 C0.177302281,26.3705858 0.160603396,26.4529608 0.131976738,26.599303 C0.103350079,26.7461054 0.0737691986,26.9605565 0.0489594278,27.225169 C-0.00590833454,27.7525531 -0.0321494383,28.4851844 0.065658312,29.2845441 C0.116232076,29.684454 0.189707166,30.0981698 0.314710242,30.5118856 C0.430648209,30.9214597 0.59715994,31.3328745 0.803748993,31.7134562 C1.00652116,32.0921972 1.27322619,32.4543711 1.57046633,32.7544186 C1.88106558,33.061369 2.23603615,33.3190785 2.63585514,33.4893509 C3.90831012,33.9693348 4.98944359,33.9389619 5.8024407,33.7539633 C6.32964833,33.6320115 6.74187221,33.4442517 7.01668813,33.2610939 C7.26907984,34.3540583 7.58111042,35.4345975 7.99953675,36.4677365 C7.76670659,36.2293552 7.49523044,35.9997176 7.16650098,35.8009131 C6.6283198,35.4608286 5.93794021,35.2012783 5.06673557,35.1156819 C4.320534,35.0420507 3.64923886,34.8998502 3.06143814,34.7249759 C2.47363741,34.5501016 1.98364444,34.3384117 1.57810011,34.1373062 C1.37675928,34.0365234 1.19784266,33.9385017 1.04373581,33.847383 C0.889151858,33.7493613 0.758900561,33.6435164 0.653936146,33.5611414 C0.444007317,33.3927098 0.335226014,33.285024 0.335226014,33.285024 C0.335226014,33.285024 0.341428457,33.3848865 0.352402009,33.5634423 C0.360035785,33.6527203 0.370055115,33.7617866 0.381028668,33.8878802 C0.394387775,34.0153544 0.409178215,34.1267217 0.429216876,34.2675415 C0.468817087,34.5413579 0.523207739,34.8648754 0.60193105,35.2178454 C0.688288137,35.5680542 0.79754655,35.9481757 0.934954512,36.3365807 C1.49317435,37.8879 2.62917559,39.5307981 4.4202502,39.8925118 C5.82725047,40.1884175 6.97327103,39.9666033 7.78769947,39.6380237 C8.42893662,39.3761724 8.87598961,39.0425306 9.10881977,38.7737764 C9.21950951,39.0020334 9.32829082,39.2307506 9.42991545,39.4613086 C9.64652384,39.9026361 9.83498267,40.3540879 10.0477742,40.7921941 C10.2557946,41.2510091 10.4724029,41.7033813 10.6956909,42.1493108 C9.91513732,41.5349497 8.80537719,41.0232123 7.23663629,41.1101892 C5.63974585,41.2109721 4.32816778,40.9541829 3.40972915,40.6661005 C2.50178696,40.3743365 1.98841555,40.0641647 1.98841555,40.0641647 C1.98841555,40.0641647 2.06093642,40.4286396 2.23365059,40.991919 C2.31619079,41.2749392 2.44167098,41.6002975 2.58766694,41.9560287 C2.73223156,42.3131404 2.91878195,42.6923415 3.13777589,43.074764 C3.57051555,43.8414498 4.15879338,44.6127376 4.88400207,45.2017879 C5.61064208,45.7899178 6.46991895,46.1939695 7.4413169,46.2353871 C8.97141181,46.3085582 10.1260204,45.8782754 10.9146848,45.3918487 C11.4175598,45.0789157 11.7782557,44.7388312 11.9996352,44.4498284 C12.2849475,44.8897753 12.5831419,45.3159164 12.9056689,45.7167467 C13.1890728,46.0812216 13.5030119,46.4171644 13.7973893,46.7581693 C13.9739204,46.9491504 14.1461575,47.1355296 14.3198259,47.3237496 C13.3842112,46.8115519 12.1222527,46.4530596 10.4762198,46.8133927 C9.64986361,47.0006923 8.88934872,47.0780052 8.19992336,47.0922712 C7.50858955,47.1079179 6.90122728,47.054075 6.39978364,46.9749214 C5.38783126,46.8198355 4.80480164,46.5704095 4.80480164,46.5704095 C4.80480164,46.5704095 4.93600716,46.9477698 5.22990753,47.5087482 C5.51617411,48.0724878 5.96274999,48.8235269 6.57058937,49.5603 C6.87403195,49.9289166 7.21278075,50.2956925 7.59494664,50.6279537 C7.96900164,50.9648168 8.38599664,51.2676255 8.82732429,51.5170515 C9.70902538,52.0168239 10.6999849,52.2929412 11.7252964,52.1645466 C12.5335224,52.0679056 13.2157911,51.8502331 13.7868929,51.5754963 C14.3565634,51.30168 14.8117273,50.9740207 15.1714689,50.6436003 C15.7158526,50.1401464 16.0436278,49.6348517 16.1843756,49.2666952 C16.8904998,49.953307 17.596624,50.5906778 18.2812783,51.1843301 C18.701136,51.5409817 19.1147912,51.8801458 19.5212897,52.2032031 C18.4110525,51.8598972 16.9921244,51.711254 15.2993347,52.4484873 C14.4934943,52.8019175 13.705784,53.0425997 12.9939345,53.1871012 C12.2839933,53.3311424 11.6308284,53.3928086 11.0864448,53.4043135 C10.5454009,53.4139776 10.1040733,53.3799231 9.79919935,53.344488 C9.49241699,53.3095132 9.32685948,53.2708567 9.32685948,53.2708567 C9.32685948,53.2708567 9.38268147,53.3642764 9.49623388,53.5230439 C9.60835496,53.6827318 9.77438958,53.9105286 9.98908952,54.1825041 C10.4218292,54.7241543 11.070223,55.4337758 11.8903768,56.0964574 C12.3011693,56.4264177 12.7582416,56.7421118 13.2391695,57.0223709 C13.7334565,57.2934261 14.2349001,57.5419317 14.7754668,57.7066817 C15.3088769,57.876954 15.850875,57.9860204 16.3995526,57.9975253 C16.9425049,58.0145525 17.4792547,57.9446028 18.0012142,57.7600644 C19.6424759,57.1903423 20.601469,56.2289938 21.1568262,55.3803932 C21.5261101,54.8083701 21.7202942,54.278685 21.792338,53.8787751 C22.0022668,54.0182143 22.2083787,54.1548924 22.4068569,54.2865083 C22.6621113,54.4425146 22.9083006,54.5925384 23.1444705,54.7370398 C23.3801633,54.883382 23.6201501,55.0016522 23.842961,55.1263652 C24.066726,55.248317 24.2804717,55.3661271 24.4904005,55.4650691 C24.9059642,55.6707766 25.2804963,55.8488722 25.6168596,55.9823289 C25.949883,56.123609 26.2361496,56.2381977 26.4737509,56.3164309 C26.710875,56.3969651 26.8926543,56.4590915 27.0147947,56.5009693 C27.1369351,56.5428471 27.2022993,56.558954 27.2022993,56.558954 C27.7280756,56.700234 28.2772304,56.375336 28.4365854,55.8208003 C28.5992803,55.2556802 28.3449801,54.6785949 27.8697776,54.5345537" id="Page-1" fill="#D6BD82"></path>
                <path d="M117.869778,54.5345537 C117.869778,54.5345537 117.81157,54.5179867 117.70088,54.4793303 C117.589236,54.4429748 117.423679,54.3891319 117.207548,54.3191822 C116.989508,54.255215 116.725665,54.1613351 116.414112,54.052729 C116.099696,53.9510258 115.745202,53.8152681 115.345383,53.6657045 C115.143565,53.5957548 114.936976,53.5078575 114.718937,53.4167387 C114.502328,53.323319 114.269021,53.2386431 114.037145,53.1254349 C113.801929,53.0186696 113.556694,52.9073023 113.302394,52.7917932 C113.105347,52.6933113 112.900667,52.5911479 112.692169,52.4871437 C113.017082,52.2344964 113.394477,51.8212407 113.736088,51.2510585 C114.268544,50.3762267 114.7051,49.1590095 114.940793,47.6794808 C115.236602,45.8230519 114.546223,44.6546154 113.754695,43.780704 C113.359648,43.3481202 112.934065,43.0057347 112.605335,42.7622913 C112.44264,42.6389589 112.301415,42.5455392 112.201222,42.4824924 C112.099597,42.4199058 112.042821,42.3849309 112.042821,42.3849309 C112.042821,42.3849309 112.022305,42.5082633 111.968869,42.7346795 C111.914955,42.9620161 111.825736,43.2970385 111.688328,43.7291621 C111.553305,44.1580644 111.377729,44.6762446 111.138696,45.2860037 C110.901095,45.893922 110.615305,46.5750114 110.246498,47.3357147 C109.498866,48.8695465 109.756983,50.1654571 110.319974,51.0748036 C109.932082,50.8078901 109.540851,50.5207281 109.150574,50.2073349 C108.473077,49.6698265 107.804644,49.0559257 107.146708,48.3845004 C107.526489,48.2464417 108.034612,47.9344291 108.54846,47.4272936 C108.897229,47.0853683 109.249814,46.6569262 109.578543,46.1470296 C109.905841,45.6394339 110.213101,45.046702 110.482668,44.3752767 C111.151578,42.6932619 110.694029,41.3678987 110.087143,40.3481054 C109.781792,39.8423505 109.434456,39.4185104 109.164888,39.1143211 C108.888641,38.815194 108.695411,38.6343371 108.695411,38.6343371 C108.695411,38.6343371 108.531284,39.0899307 108.12908,39.8543156 C107.924399,40.2399594 107.661034,40.7042968 107.33135,41.2303003 C106.999758,41.7576844 106.590397,42.3554784 106.106129,42.9914687 C105.139025,44.2468821 105.092746,45.4521343 105.380921,46.3996769 C105.246375,46.223422 105.113261,46.0439458 104.976808,45.8653899 C104.73205,45.5101189 104.472978,45.1599101 104.227266,44.794975 C103.94434,44.3987467 103.657596,43.9969959 103.368467,43.5915637 C103.724868,43.4999847 104.174784,43.3062424 104.653326,42.9868667 C105.432926,42.4714477 106.269778,41.6371131 107.00119,40.4608533 C107.913903,38.9854664 107.685367,37.6242079 107.273143,36.5491911 C107.168655,36.2813573 107.046992,36.0351527 106.934394,35.8096568 C106.81941,35.5850814 106.692976,35.3908789 106.594214,35.2233677 C106.389533,34.8911065 106.225407,34.6941428 106.225407,34.6941428 C106.225407,34.6941428 106.012616,35.0972741 105.507832,35.7622567 C105.014499,36.4230975 104.236331,37.3572945 103.1218,38.4051598 C102.022059,39.4249531 101.775393,40.5317234 101.874632,41.4580971 C101.61413,41.0710726 101.359352,40.6757646 101.121751,40.267111 C100.873176,39.8639797 100.65943,39.4396794 100.442345,39.0149189 C100.342152,38.7958658 100.241481,38.5763525 100.146536,38.3540781 C100.509618,38.3623616 101.052093,38.259738 101.668043,37.9854614 C102.480563,37.6274293 103.396616,36.9813147 104.268775,35.9918943 C105.355157,34.7498265 105.35468,33.4263041 105.13998,32.35773 C105.089883,32.0898962 105.018793,31.84001 104.940547,31.6145142 C104.869935,31.3876378 104.793597,31.1851517 104.720122,31.0157998 C104.68577,30.9348053 104.645216,30.8464478 104.619929,30.7958263 C104.594642,30.7438242 104.570786,30.6991852 104.55027,30.6623696 C104.509716,30.5896587 104.482998,30.5491615 104.482998,30.5491615 C104.482998,30.5491615 104.412862,30.6195714 104.266867,30.7479659 C104.194823,30.8146943 104.100355,30.8874052 103.993005,30.9891084 C103.888995,31.0977146 103.766854,31.221047 103.625152,31.3572649 C103.34318,31.6297006 102.976758,31.9550589 102.540679,32.3126308 C102.105077,32.6702028 101.586934,33.0632098 100.978618,33.4695624 C100.272493,33.9421833 99.8435707,34.4856742 99.5921332,35.0397497 C99.4614048,35.3425584 99.3841128,35.6481282 99.3468981,35.9440339 C99.0224627,34.9467902 98.6860994,33.9504668 98.3902906,32.9394172 C98.7175888,32.9670289 99.1598706,32.9338948 99.6675167,32.7995177 C100.474311,32.5892084 101.445232,32.1225701 102.398023,31.3360959 C102.709099,31.1064583 102.960537,30.8818828 103.157106,30.6508647 C103.364173,30.409262 103.506829,30.1773235 103.625629,29.9278975 C103.741567,29.6807725 103.814565,29.4354882 103.868956,29.1833011 C103.915713,28.9370964 103.945294,28.6862899 103.951496,28.4469882 C103.980123,27.493463 103.745384,26.6513051 103.745384,26.6513051 C103.745384,26.6513051 103.417132,26.9067137 102.780189,27.2776313 C102.133226,27.6503897 101.180436,28.1478611 99.8936673,28.6444121 C98.6527017,29.1170329 98.0639467,29.9348004 97.8363648,30.719894 C97.6230962,29.6752501 97.4766231,28.6103576 97.4212782,27.5445447 C97.7061135,27.679382 98.1975378,27.7833862 98.8268472,27.7585356 C99.6069236,27.7323045 100.59836,27.5045077 101.643233,26.994611 C102.971033,26.3517178 103.437171,25.2909671 103.643282,24.3438846 C103.736796,23.8712638 103.776396,23.429476 103.774011,23.1008964 C103.781645,22.7736974 103.762083,22.5620074 103.762083,22.5620074 C103.762083,22.5620074 103.677157,22.6121687 103.509214,22.6940835 C103.343657,22.7764586 103.086017,22.8892065 102.76349,23.0203622 C102.112233,23.2808329 101.134156,23.6121737 99.8688576,23.8744851 C98.3812255,24.1731521 97.6984797,25.0755955 97.4079191,25.8961242 C97.424618,25.608502 97.4551531,25.3218002 97.497616,25.0373993 C97.5844502,24.5679998 97.6641277,24.1032023 97.7314004,23.6397854 C97.781497,23.2154851 97.8306395,22.7944062 97.8797819,22.375168 C98.1331278,22.5247316 98.5348553,22.669233 99.0510893,22.7368817 C99.7782065,22.8349034 100.707142,22.7773789 101.766328,22.4547819 C103.086494,22.0465884 103.702921,21.1041079 104.033559,20.2398607 C104.203888,19.8095778 104.288814,19.3949416 104.350838,19.089832 C104.405706,18.7828815 104.413817,18.5803955 104.413817,18.5803955 C104.413817,18.5803955 104.075545,18.7235163 103.42906,18.8786022 C102.776372,19.0313871 101.844574,19.2136246 100.627464,19.2785121 C99.2600639,19.3489221 98.4871442,20.0424368 98.0858938,20.7368719 C98.2566996,19.5311595 98.5773181,18.3811308 98.9695034,17.2932285 C99.1460344,17.4911126 99.5401281,17.7386978 100.105982,17.9043682 C100.752944,18.0962698 101.627012,18.1800254 102.63467,18.0240191 C103.27877,17.929679 103.774965,17.6807132 104.159517,17.3599569 C104.560767,17.0461035 104.829857,16.6503353 105.058394,16.2743556 C105.168129,16.084755 105.257349,15.8960748 105.32987,15.7193597 C105.409547,15.545866 105.472049,15.3838772 105.51976,15.2444379 C105.615182,14.9660196 105.652397,14.7782598 105.652397,14.7782598 C105.652397,14.7782598 105.31985,14.8693785 104.7039,14.9305846 C104.397118,14.962338 104.013521,14.9853478 103.574579,14.9917906 C103.137068,14.9991537 102.634193,14.9862682 102.07311,14.9356467 C100.762486,14.8136949 99.948058,15.3847976 99.4814434,15.9862732 C99.505299,15.9301293 99.5282003,15.8735252 99.5515788,15.8178416 C99.720476,15.4317375 99.8998698,15.0557577 100.067336,14.6825392 C100.246729,14.3143827 100.426123,13.9531292 100.594066,13.5941767 C100.708573,13.369141 100.81974,13.1514685 100.931861,12.9314951 C101.093124,13.1215558 101.390364,13.3521138 101.810222,13.5449357 C102.373213,13.8058666 103.157584,13.997308 104.100355,13.9821215 C104.701515,13.9775196 105.195802,13.8118492 105.590849,13.561963 C105.997825,13.3180593 106.31749,12.9931613 106.566064,12.6645816 C106.826567,12.342905 107.010732,12.0138651 107.132395,11.7635188 C107.264078,11.5196151 107.327533,11.3525641 107.327533,11.3525641 C107.327533,11.3525641 107.002621,11.3949021 106.428179,11.3797157 C105.860894,11.3691312 105.036447,11.302863 104.019246,11.0718448 C103.426197,10.9356269 102.934296,10.9775047 102.513961,11.1082003 C102.170918,11.2154258 101.886083,11.3870788 101.657069,11.5812813 C101.660409,11.5752988 101.663749,11.5693162 101.667089,11.5633337 C102.146108,10.7055292 102.636101,9.9158336 103.118938,9.19470717 C103.232967,9.39167087 103.482496,9.65490272 103.864662,9.89420441 C104.344636,10.1965529 105.023565,10.4547226 105.897155,10.5527442 C106.448218,10.615791 106.907199,10.5085655 107.307495,10.3249474 C107.71447,10.1454712 108.039383,9.87349561 108.311813,9.59783847 C108.589969,9.32678329 108.800375,9.04192224 108.942077,8.82286916 C109.012212,8.71334262 109.069466,8.62360449 109.109543,8.56101789 C109.146758,8.49705071 109.16775,8.46115546 109.16775,8.46115546 C109.16775,8.46115546 109.092367,8.46391663 108.950665,8.4570137 C108.807532,8.44919037 108.600943,8.43446411 108.343303,8.40317082 C107.824683,8.33828324 107.078482,8.19608282 106.179127,7.87992847 C105.65192,7.69262888 105.202004,7.6806638 104.805048,7.75475528 C104.412862,7.83252833 104.071728,7.99543756 103.816951,8.19332164 C103.815042,8.19516243 103.813611,8.19700321 103.811226,8.19838379 C103.820291,8.18641871 103.828879,8.17353323 103.837944,8.16110795 C104.201502,7.6802036 104.548839,7.23335372 104.884248,6.831603 C105.115647,6.56883134 105.328916,6.31802476 105.536459,6.08562601 C105.611842,6.27660716 105.809843,6.54858273 106.140958,6.81319518 C106.541732,7.13487187 107.125238,7.43583976 107.902452,7.60427133 C108.394354,7.71287749 108.832341,7.66317637 109.212122,7.52741868 C109.587131,7.38705903 109.936376,7.18457299 110.208807,6.95079365 C110.347646,6.83620495 110.468355,6.71471333 110.578568,6.60242561 C110.691166,6.49197868 110.787542,6.3865939 110.865788,6.29409459 C111.022281,6.10955617 111.107684,5.97932083 111.107684,5.97932083 C111.107684,5.97932083 110.832391,5.96781594 110.361959,5.86289136 C110.126744,5.81042906 109.841431,5.7344968 109.51795,5.62681104 C109.198763,5.52326704 108.839498,5.38658896 108.450653,5.2061923 C107.599487,4.81088432 106.870461,4.94480123 106.370926,5.22183895 C106.472551,5.12059593 106.571313,5.02349467 106.663395,4.93329634 C106.91197,4.70273837 107.131918,4.51543878 107.308449,4.36173346 C107.487366,4.21078932 107.624296,4.09528024 107.716856,4.01704699 C107.809893,3.93973414 107.860466,3.9024583 107.860466,3.9024583 C107.876211,3.89095341 107.892433,3.87622715 107.906269,3.86150089 C107.924399,3.84125229 107.93919,3.81824251 107.95064,3.79477254 C108.255037,3.83711053 108.543689,3.85551835 108.810871,3.82514544 C109.222141,3.78050648 109.5857,3.62542057 109.948304,3.33457698 C110.310431,3.042813 110.530857,2.59458253 110.722655,2.12610346 C110.909206,1.65210204 111.036117,1.12517813 111.156826,0.63967182 C110.729812,0.628166931 110.166344,0.635990256 109.605261,0.726188584 C109.465468,0.748738166 109.325197,0.7763499 109.188266,0.809944175 C109.054198,0.847220015 108.922515,0.890938593 108.796081,0.940639712 C108.543689,1.04050215 108.311336,1.16751612 108.119061,1.32628359 C107.730215,1.63921656 107.541279,2.01335555 107.453491,2.41004412 C107.397669,2.67511676 107.389558,2.95307487 107.407688,3.24713983 C107.361885,3.26508746 107.320377,3.29269919 107.286025,3.32997503 C107.286025,3.32997503 107.243562,3.37691498 107.163407,3.47033467 C107.081344,3.56191359 106.959681,3.69813147 106.80128,3.87530676 C106.640017,4.04926068 106.441061,4.264172 106.207754,4.51635917 C106.10279,4.63601001 105.989714,4.76394438 105.869482,4.89832148 C106.133325,4.36909659 106.3256,3.65119153 105.915285,2.75012863 C105.738754,2.36264397 105.616136,1.99586812 105.532165,1.66314673 C105.451533,1.33410691 105.410979,1.04050215 105.391894,0.793837331 C105.353725,0.300507697 105.400482,0 105.400482,0 C105.400482,0 105.232539,0.0971012619 104.984919,0.275657137 C104.86087,0.364935074 104.717259,0.474001421 104.565061,0.601935785 C104.414771,0.731710931 104.261618,0.88495605 104.108943,1.05154684 C103.80884,1.38979057 103.507306,1.77497425 103.341271,2.22458531 C103.170943,2.66913421 103.108918,3.14773759 103.245372,3.63186331 C103.462935,4.40315106 103.873727,4.92869438 104.25971,5.25911479 C104.596073,5.54581662 104.920031,5.69169861 105.124712,5.72529289 C104.914306,5.96597516 104.695312,6.22414487 104.454848,6.49335927 C104.109897,6.89833135 103.746816,7.34426085 103.360356,7.82194383 C103.332683,7.8559983 103.304534,7.89235375 103.277338,7.92778881 C103.289743,7.8974159 103.303102,7.86888378 103.31503,7.83759048 C103.428105,7.53202063 103.525436,7.1831924 103.510169,6.78190188 C103.500149,6.38429292 103.380394,5.93330128 103.110827,5.46666299 C102.639441,4.66086057 102.419016,3.91534377 102.3193,3.37047224 C102.267294,3.09665588 102.250118,2.8771426 102.245824,2.72711885 C102.241053,2.57663491 102.246302,2.49287932 102.246302,2.49287932 C102.246302,2.49287932 102.202884,2.525093 102.125115,2.58261745 C102.048778,2.64198268 101.937134,2.72619846 101.813562,2.84308813 C101.563556,3.07318591 101.235781,3.4049869 100.929475,3.80443664 C100.629372,4.20894854 100.365053,4.69307426 100.218103,5.196068 C100.077355,5.70458409 100.075924,6.24853523 100.285375,6.76487464 C100.615536,7.58448293 101.134156,8.10910586 101.60077,8.42433981 C101.99725,8.69033284 102.360808,8.80906329 102.590776,8.82609053 C102.061182,9.54261501 101.520139,10.33093 100.985774,11.1924161 C100.97003,11.2191074 100.953331,11.2467191 100.938063,11.2738707 C101.001042,10.9563357 101.033008,10.603826 100.975278,10.2214034 C100.909914,9.79066041 100.722409,9.31803958 100.364099,8.84265757 C99.7443316,8.02581046 99.4084455,7.23979646 99.2304831,6.6558083 C99.0596773,6.0764221 99.0463182,5.70596467 99.0463182,5.70596467 C99.0463182,5.70596467 98.8678787,5.86611273 98.6140557,6.14453104 C98.3692978,6.42939208 98.0548816,6.83712535 97.7719548,7.31618892 C97.5014329,7.80261562 97.2681256,8.3631338 97.1808143,8.93745785 C97.1049537,9.51868484 97.1650696,10.1054342 97.467558,10.6406416 C97.9580281,11.4961451 98.5863832,11.987634 99.1403091,12.2655921 C99.5687547,12.4786626 99.9509206,12.5633386 100.206652,12.56656 C100.086897,12.7920558 99.9671424,13.0198526 99.8502502,13.2531718 C99.6775361,13.620868 99.5043448,13.9959274 99.337833,14.3797305 C99.1837262,14.7690559 99.0234169,15.1625231 98.8740812,15.5656544 C98.8392521,15.6586139 98.8082399,15.7561754 98.7748421,15.8495951 C98.7791361,15.811859 98.7858156,15.7759638 98.7891554,15.7368472 C98.8611992,14.9756837 98.7166345,13.9968478 97.7977188,13.0750761 C97.3993311,12.6788477 97.0782354,12.2807786 96.8210726,11.9047988 C96.5662954,11.5292792 96.3849932,11.1809112 96.2480623,10.8790229 C95.9765862,10.2757065 95.9012027,9.87119463 95.9012027,9.87119463 C95.9012027,9.87119463 95.7361223,10.0736807 95.5090174,10.4169866 C95.395465,10.5886395 95.2666451,10.7952673 95.1354396,11.0290466 C95.0123449,11.2665076 94.887819,11.5315802 94.7752208,11.8141403 C94.5409593,12.376039 94.3959175,13.0285963 94.3858982,13.6618254 C94.3925778,14.3014972 94.5552726,14.929204 94.9674965,15.4593492 C95.6321121,16.3065693 96.3878559,16.7359317 97.0281388,16.9476217 C97.6121226,17.139063 98.0987758,17.1478067 98.3554615,17.0783172 C97.9847463,18.2246643 97.6402722,19.4156504 97.2671714,20.6379298 C97.2084867,19.8160206 96.8945477,18.8022097 95.7595007,17.9609723 C94.7823774,17.2412264 94.1268269,16.4533716 93.7480008,15.8491349 C93.3615409,15.2430573 93.2169763,14.8192172 93.2169763,14.8192172 C93.2169763,14.8192172 93.0724117,15.0626607 92.88443,15.468093 C92.6902458,15.8707641 92.476023,16.4437075 92.3262101,17.0889017 C92.0351724,18.3802104 92.0728642,19.9743278 93.1525663,20.9784745 C93.9941901,21.7746128 94.8906816,22.1100954 95.6053939,22.2288258 C96.1335557,22.3144222 96.573452,22.2849697 96.8606728,22.2090374 C96.7724073,22.6393203 96.6874816,23.0737449 96.6416789,23.5159928 C96.5787003,23.9959768 96.5920594,24.4865452 96.5872883,24.9748127 C96.5987389,25.3089147 96.5891967,25.6416361 96.5753605,25.9752778 C96.5672496,25.9393826 96.5620014,25.9053281 96.5524592,25.8689727 C96.349687,25.0065662 95.8272505,23.9761884 94.4841831,23.2619649 C93.3128756,22.6517456 92.5075123,21.9168133 91.9912782,21.3282231 C91.7293443,21.033698 91.5556759,20.77967 91.4363981,20.598353 C91.3190288,20.4170359 91.2641611,20.3102706 91.2641611,20.3102706 C91.2641611,20.3102706 91.1448833,20.5932908 91.010338,21.0580884 C90.8867663,21.5247266 90.7340908,22.1713014 90.6968761,22.8915074 C90.6004997,24.3268574 90.9402027,26.0498295 92.2622772,26.9412283 C93.3152612,27.6513101 94.3062207,27.8445922 95.0905911,27.8422912 C95.7399392,27.8367689 96.2428141,27.6954888 96.5200156,27.5417835 C96.4928203,28.6642005 96.5009312,29.8018039 96.6168691,30.9421685 C96.1683848,30.1929701 95.4336339,29.4193814 94.1163305,28.9812752 C92.7737402,28.543169 91.7722843,27.8896914 91.1300929,27.3448198 C90.4764509,26.7981075 90.1773023,26.3705858 90.1773023,26.3705858 C90.1773023,26.3705858 90.1606034,26.4529608 90.1319767,26.599303 C90.1033501,26.7461054 90.0737692,26.9605565 90.0489594,27.225169 C89.9940917,27.7525531 89.9678506,28.4851844 90.0656583,29.2845441 C90.1162321,29.684454 90.1897072,30.0981698 90.3147102,30.5118856 C90.4306482,30.9214597 90.5971599,31.3328745 90.803749,31.7134562 C91.0065212,32.0921972 91.2732262,32.4543711 91.5704663,32.7544186 C91.8810656,33.061369 92.2360361,33.3190785 92.6358551,33.4893509 C93.9083101,33.9693348 94.9894436,33.9389619 95.8024407,33.7539633 C96.3296483,33.6320115 96.7418722,33.4442517 97.0166881,33.2610939 C97.2690798,34.3540583 97.5811104,35.4345975 97.9995367,36.4677365 C97.7667066,36.2293552 97.4952304,35.9997176 97.166501,35.8009131 C96.6283198,35.4608286 95.9379402,35.2012783 95.0667356,35.1156819 C94.320534,35.0420507 93.6492389,34.8998502 93.0614381,34.7249759 C92.4736374,34.5501016 91.9836444,34.3384117 91.5781001,34.1373062 C91.3767593,34.0365234 91.1978427,33.9385017 91.0437358,33.847383 C90.8891519,33.7493613 90.7589006,33.6435164 90.6539361,33.5611414 C90.4440073,33.3927098 90.335226,33.285024 90.335226,33.285024 C90.335226,33.285024 90.3414285,33.3848865 90.352402,33.5634423 C90.3600358,33.6527203 90.3700551,33.7617866 90.3810287,33.8878802 C90.3943878,34.0153544 90.4091782,34.1267217 90.4292169,34.2675415 C90.4688171,34.5413579 90.5232077,34.8648754 90.601931,35.2178454 C90.6882881,35.5680542 90.7975466,35.9481757 90.9349545,36.3365807 C91.4931744,37.8879 92.6291756,39.5307981 94.4202502,39.8925118 C95.8272505,40.1884175 96.973271,39.9666033 97.7876995,39.6380237 C98.4289366,39.3761724 98.8759896,39.0425306 99.1088198,38.7737764 C99.2195095,39.0020334 99.3282908,39.2307506 99.4299155,39.4613086 C99.6465238,39.9026361 99.8349827,40.3540879 100.047774,40.7921941 C100.255795,41.2510091 100.472403,41.7033813 100.695691,42.1493108 C99.9151373,41.5349497 98.8053772,41.0232123 97.2366363,41.1101892 C95.6397459,41.2109721 94.3281678,40.9541829 93.4097291,40.6661005 C92.501787,40.3743365 91.9884155,40.0641647 91.9884155,40.0641647 C91.9884155,40.0641647 92.0609364,40.4286396 92.2336506,40.991919 C92.3161908,41.2749392 92.441671,41.6002975 92.5876669,41.9560287 C92.7322316,42.3131404 92.918782,42.6923415 93.1377759,43.074764 C93.5705155,43.8414498 94.1587934,44.6127376 94.8840021,45.2017879 C95.6106421,45.7899178 96.469919,46.1939695 97.4413169,46.2353871 C98.9714118,46.3085582 100.12602,45.8782754 100.914685,45.3918487 C101.41756,45.0789157 101.778256,44.7388312 101.999635,44.4498284 C102.284948,44.8897753 102.583142,45.3159164 102.905669,45.7167467 C103.189073,46.0812216 103.503012,46.4171644 103.797389,46.7581693 C103.97392,46.9491504 104.146157,47.1355296 104.319826,47.3237496 C103.384211,46.8115519 102.122253,46.4530596 100.47622,46.8133927 C99.6498636,47.0006923 98.8893487,47.0780052 98.1999234,47.0922712 C97.5085896,47.1079179 96.9012273,47.054075 96.3997836,46.9749214 C95.3878313,46.8198355 94.8048016,46.5704095 94.8048016,46.5704095 C94.8048016,46.5704095 94.9360072,46.9477698 95.2299075,47.5087482 C95.5161741,48.0724878 95.96275,48.8235269 96.5705894,49.5603 C96.874032,49.9289166 97.2127807,50.2956925 97.5949466,50.6279537 C97.9690016,50.9648168 98.3859966,51.2676255 98.8273243,51.5170515 C99.7090254,52.0168239 100.699985,52.2929412 101.725296,52.1645466 C102.533522,52.0679056 103.215791,51.8502331 103.786893,51.5754963 C104.356563,51.30168 104.811727,50.9740207 105.171469,50.6436003 C105.715853,50.1401464 106.043628,49.6348517 106.184376,49.2666952 C106.8905,49.953307 107.596624,50.5906778 108.281278,51.1843301 C108.701136,51.5409817 109.114791,51.8801458 109.52129,52.2032031 C108.411052,51.8598972 106.992124,51.711254 105.299335,52.4484873 C104.493494,52.8019175 103.705784,53.0425997 102.993934,53.1871012 C102.283993,53.3311424 101.630828,53.3928086 101.086445,53.4043135 C100.545401,53.4139776 100.104073,53.3799231 99.7991994,53.344488 C99.492417,53.3095132 99.3268595,53.2708567 99.3268595,53.2708567 C99.3268595,53.2708567 99.3826815,53.3642764 99.4962339,53.5230439 C99.608355,53.6827318 99.7743896,53.9105286 99.9890895,54.1825041 C100.421829,54.7241543 101.070223,55.4337758 101.890377,56.0964574 C102.301169,56.4264177 102.758242,56.7421118 103.239169,57.0223709 C103.733456,57.2934261 104.2349,57.5419317 104.775467,57.7066817 C105.308877,57.876954 105.850875,57.9860204 106.399553,57.9975253 C106.942505,58.0145525 107.479255,57.9446028 108.001214,57.7600644 C109.642476,57.1903423 110.601469,56.2289938 111.156826,55.3803932 C111.52611,54.8083701 111.720294,54.278685 111.792338,53.8787751 C112.002267,54.0182143 112.208379,54.1548924 112.406857,54.2865083 C112.662111,54.4425146 112.908301,54.5925384 113.14447,54.7370398 C113.380163,54.883382 113.62015,55.0016522 113.842961,55.1263652 C114.066726,55.248317 114.280472,55.3661271 114.490401,55.4650691 C114.905964,55.6707766 115.280496,55.8488722 115.61686,55.9823289 C115.949883,56.123609 116.23615,56.2381977 116.473751,56.3164309 C116.710875,56.3969651 116.892654,56.4590915 117.014795,56.5009693 C117.136935,56.5428471 117.202299,56.558954 117.202299,56.558954 C117.728076,56.700234 118.27723,56.375336 118.436585,55.8208003 C118.59928,55.2556802 118.34498,54.6785949 117.869778,54.5345537" id="Page-1-Copy" fill="#D6BD82" transform="translate(104.242880, 29.000000) scale(-1, 1) translate(-104.242880, -29.000000) "></path>
            </g>
        </g>
    </g>
</svg>