<?xml version="1.0" encoding="UTF-8"?>
<svg width="128px" height="58px" viewBox="0 0 128 58" version="1.1" xmlns="http://www.w3.org/2000/svg" xmlns:xlink="http://www.w3.org/1999/xlink">
    <!-- Generator: Sketch 48.2 (47327) - http://www.bohemiancoding.com/sketch -->
    <title>Awards CES 2018</title>
    <desc>Created with Sketch.</desc>
    <defs></defs>
    <g id="1-page" stroke="none" stroke-width="1" fill="none" fill-rule="evenodd" transform="translate(-160.000000, -239.000000)">
        <g id="Awards" transform="translate(160.000000, 239.000000)">
            <g id="Awards-CES-2018">
                <text id="CES-2018-INNOVATION" font-family="Gotham-Bold, Gotham" font-size="14" font-weight="bold" line-spacing="14" fill="#212529">
                    <tspan x="29.264" y="21">CES 2018</tspan>
                    <tspan x="95.736" y="21" font-family="Gotham-Book, Gotham" font-size="10" font-weight="300"></tspan>
                    <tspan x="29.455" y="35" font-family="Gotham-Book, Gotham" font-size="10" font-weight="300" line-spacing="10">INNOVATION</tspan>
                    <tspan x="39.29" y="45" font-family="Gotham-Book, Gotham" font-size="10" font-weight="300" line-spacing="10">AWARDS</tspan>
                </text>
                <path d="M27.8697776,54.5345537 C27.8697776,54.5345537 27.8115701,54.5179867 27.7008803,54.4793303 C27.5892363,54.4429748 27.4236788,54.3891319 27.2075476,54.3191822 C26.9895078,54.255215 26.7256655,54.1613351 26.414112,54.052729 C26.0996959,53.9510258 25.7452024,53.8152681 25.3453834,53.6657045 C25.1435655,53.5957548 24.9369764,53.5078575 24.7189367,53.4167387 C24.5023283,53.323319 24.2690211,53.2386431 24.0371451,53.1254349 C23.8019294,53.0186696 23.5566944,52.9073023 23.3023942,52.7917932 C23.1053474,52.6933113 22.9006668,52.5911479 22.6921693,52.4871437 C23.0170819,52.2344964 23.3944766,51.8212407 23.7360881,51.2510585 C24.2685439,50.3762267 24.7051005,49.1590095 24.9407933,47.6794808 C25.2366021,45.8230519 24.5462225,44.6546154 23.7546954,43.780704 C23.3596475,43.3481202 22.9340645,43.0057347 22.6053351,42.7622913 C22.4426402,42.6389589 22.3014154,42.5455392 22.2012221,42.4824924 C22.0995974,42.4199058 22.0428212,42.3849309 22.0428212,42.3849309 C22.0428212,42.3849309 22.0223055,42.5082633 21.968869,42.7346795 C21.9149555,42.9620161 21.8257357,43.2970385 21.6883278,43.7291621 C21.5533054,44.1580644 21.3777285,44.6762446 21.1386959,45.2860037 C20.9010947,45.893922 20.6153052,46.5750114 20.2464984,47.3357147 C19.4988655,48.8695465 19.7569825,50.1654571 20.3199735,51.0748036 C19.9320823,50.8078901 19.5408513,50.5207281 19.1505745,50.2073349 C18.4730769,49.6698265 17.8046444,49.0559257 17.1467084,48.3845004 C17.5264887,48.2464417 18.0346119,47.9344291 18.5484604,47.4272936 C18.8972286,47.0853683 19.2498136,46.6569262 19.578543,46.1470296 C19.9058412,45.6394339 20.2131006,45.046702 20.4826683,44.3752767 C21.1515779,42.6932619 20.6940285,41.3678987 20.0871433,40.3481054 C19.7817923,39.8423505 19.4344555,39.4185104 19.1648878,39.1143211 C18.8886406,38.815194 18.6954106,38.6343371 18.6954106,38.6343371 C18.6954106,38.6343371 18.5312844,39.0899307 18.1290799,39.8543156 C17.9243993,40.2399594 17.661034,40.7042968 17.3313503,41.2303003 C16.9997582,41.7576844 16.590397,42.3554784 16.1061294,42.9914687 C15.1390254,44.2468821 15.0927456,45.4521343 15.3809207,46.3996769 C15.2463754,46.223422 15.1132614,46.0439458 14.9768077,45.8653899 C14.7320497,45.5101189 14.4729785,45.1599101 14.2272663,44.794975 C13.9443395,44.3987467 13.6575958,43.9969959 13.3684666,43.5915637 C13.7248685,43.4999847 14.1747841,43.3062424 14.6533264,42.9868667 C15.4329258,42.4714477 16.2697784,41.6371131 17.0011895,40.4608533 C17.9139028,38.9854664 17.6853667,37.6242079 17.2731428,36.5491911 C17.1686555,36.2813573 17.0469922,36.0351527 16.934394,35.8096568 C16.8194103,35.5850814 16.6929759,35.3908789 16.5942139,35.2233677 C16.3895333,34.8911065 16.2254071,34.6941428 16.2254071,34.6941428 C16.2254071,34.6941428 16.0126156,35.0972741 15.5078322,35.7622567 C15.0144994,36.4230975 14.2363314,37.3572945 13.1218002,38.4051598 C12.0220594,39.4249531 11.775393,40.5317234 11.8746321,41.4580971 C11.6141295,41.0710726 11.3593522,40.6757646 11.121751,40.267111 C10.8731762,39.8639797 10.6594304,39.4396794 10.4423449,39.0149189 C10.3421516,38.7958658 10.2414812,38.5763525 10.1465361,38.3540781 C10.5096176,38.3623616 11.0520928,38.259738 11.668043,37.9854614 C12.480563,37.6274293 13.3966161,36.9813147 14.268775,35.9918943 C15.3551567,34.7498265 15.3546796,33.4263041 15.1399796,32.35773 C15.089883,32.0898962 15.0187934,31.84001 14.9405472,31.6145142 C14.8699348,31.3876378 14.7935971,31.1851517 14.720122,31.0157998 C14.68577,30.9348053 14.6452155,30.8464478 14.6199287,30.7958263 C14.5946418,30.7438242 14.5707862,30.6991852 14.5502705,30.6623696 C14.509716,30.5896587 14.4829978,30.5491615 14.4829978,30.5491615 C14.4829978,30.5491615 14.4128625,30.6195714 14.2668665,30.7479659 C14.1948228,30.8146943 14.1003548,30.8874052 13.9930048,30.9891084 C13.8889946,31.0977146 13.7668542,31.221047 13.6251523,31.3572649 C13.3431797,31.6297006 12.9767585,31.9550589 12.540679,32.3126308 C12.1050767,32.6702028 11.5869342,33.0632098 10.9786177,33.4695624 C10.2724934,33.9421833 9.84357067,34.4856742 9.59213319,35.0397497 C9.46140478,35.3425584 9.3841128,35.6481282 9.34689814,35.9440339 C9.02246268,34.9467902 8.68609944,33.9504668 8.39029064,32.9394172 C8.71758877,32.9670289 9.15987064,32.9338948 9.66751672,32.7995177 C10.4743114,32.5892084 11.4452322,32.1225701 12.3980228,31.3360959 C12.7090992,31.1064583 12.9605367,30.8818828 13.1571064,30.6508647 C13.3641726,30.409262 13.5068288,30.1773235 13.6256294,29.9278975 C13.7415674,29.6807725 13.8145653,29.4354882 13.868956,29.1833011 C13.9157129,28.9370964 13.9452937,28.6862899 13.9514962,28.4469882 C13.9801228,27.493463 13.7453842,26.6513051 13.7453842,26.6513051 C13.7453842,26.6513051 13.4171319,26.9067137 12.7801887,27.2776313 C12.1332262,27.6503897 11.1804356,28.1478611 9.89366732,28.6444121 C8.65270167,29.1170329 8.06394673,29.9348004 7.83636479,30.719894 C7.62309619,29.6752501 7.47662312,28.6103576 7.42127824,27.5445447 C7.7061135,27.679382 8.1975378,27.7833862 8.82684718,27.7585356 C9.60692363,27.7323045 10.5983602,27.5045077 11.6432333,26.994611 C12.9710331,26.3517178 13.4371705,25.2909671 13.6432825,24.3438846 C13.7367962,23.8712638 13.7763965,23.429476 13.7740109,23.1008964 C13.7816447,22.7736974 13.7620831,22.5620074 13.7620831,22.5620074 C13.7620831,22.5620074 13.6771574,22.6121687 13.5092143,22.6940835 C13.3436568,22.7764586 13.0860169,22.8892065 12.7634898,23.0203622 C12.1122334,23.2808329 11.1341559,23.6121737 9.86885755,23.8744851 C8.38122553,24.1731521 7.69847972,25.0755955 7.40791913,25.8961242 C7.42461802,25.608502 7.45515312,25.3218002 7.497616,25.0373993 C7.5844502,24.5679998 7.66412773,24.1032023 7.73140038,23.6397854 C7.78149703,23.2154851 7.83063946,22.7944062 7.87978189,22.375168 C8.13312782,22.5247316 8.53485526,22.669233 9.05108934,22.7368817 C9.77820647,22.8349034 10.7071415,22.7773789 11.7663279,22.4547819 C13.086494,22.0465884 13.7029214,21.1041079 14.0335593,20.2398607 C14.2038879,19.8095778 14.2888136,19.3949416 14.3508381,19.089832 C14.4057058,18.7828815 14.4138167,18.5803955 14.4138167,18.5803955 C14.4138167,18.5803955 14.075545,18.7235163 13.4290597,18.8786022 C12.7763718,19.0313871 11.8445741,19.2136246 10.627464,19.2785121 C9.26006395,19.3489221 8.48714416,20.0424368 8.08589383,20.7368719 C8.25669956,19.5311595 8.57731814,18.3811308 8.96950336,17.2932285 C9.14603442,17.4911126 9.54012809,17.7386978 10.1059817,17.9043682 C10.7529442,18.0962698 11.6270115,18.1800254 12.6346699,18.0240191 C13.2787697,17.929679 13.7749651,17.6807132 14.1595166,17.3599569 C14.5607669,17.0461035 14.8298575,16.6503353 15.0583936,16.2743556 C15.1681292,16.084755 15.2573489,15.8960748 15.3298698,15.7193597 C15.4095473,15.545866 15.4720489,15.3838772 15.51976,15.2444379 C15.6151822,14.9660196 15.6523968,14.7782598 15.6523968,14.7782598 C15.6523968,14.7782598 15.3198505,14.8693785 14.7039002,14.9305846 C14.3971178,14.962338 14.0135206,14.9853478 13.5745785,14.9917906 C13.1370677,14.9991537 12.6341928,14.9862682 12.0731103,14.9356467 C10.7624864,14.8136949 9.94805798,15.3847976 9.48144344,15.9862732 C9.50529899,15.9301293 9.52820032,15.8735252 9.55157875,15.8178416 C9.72047604,15.4317375 9.89986977,15.0557577 10.0673357,14.6825392 C10.2467294,14.3143827 10.4261232,13.9531292 10.5940662,13.5941767 C10.7085729,13.369141 10.8197397,13.1514685 10.9318608,12.9314951 C11.0931243,13.1215558 11.3903645,13.3521138 11.8102221,13.5449357 C12.3732131,13.8058666 13.1575835,13.997308 14.1003548,13.9821215 C14.7015146,13.9775196 15.1958016,13.8118492 15.5908495,13.561963 C15.9978252,13.3180593 16.3174895,12.9931613 16.5660643,12.6645816 C16.8265669,12.342905 17.0107318,12.0138651 17.1323951,11.7635188 C17.2640777,11.5196151 17.3275335,11.3525641 17.3275335,11.3525641 C17.3275335,11.3525641 17.0026209,11.3949021 16.4281793,11.3797157 C15.8608943,11.3691312 15.0364465,11.302863 14.0192459,11.0718448 C13.426197,10.9356269 12.9342956,10.9775047 12.5139608,11.1082003 C12.170918,11.2154258 11.8860828,11.3870788 11.6570695,11.5812813 C11.6604093,11.5752988 11.663749,11.5693162 11.6670888,11.5633337 C12.1461082,10.7055292 12.6361012,9.9158336 13.1189375,9.19470717 C13.2329671,9.39167087 13.4824961,9.65490272 13.864662,9.89420441 C14.3446356,10.1965529 15.0235645,10.4547226 15.8971547,10.5527442 C16.4482179,10.615791 16.9071987,10.5085655 17.3074948,10.3249474 C17.7144705,10.1454712 18.039383,9.87349561 18.3118134,9.59783847 C18.5899691,9.32678329 18.800375,9.04192224 18.942077,8.82286916 C19.0122123,8.71334262 19.0694656,8.62360449 19.109543,8.56101789 C19.1467576,8.49705071 19.1677505,8.46115546 19.1677505,8.46115546 C19.1677505,8.46115546 19.092367,8.46391663 18.950665,8.4570137 C18.8075317,8.44919037 18.6009427,8.43446411 18.3433027,8.40317082 C17.8246831,8.33828324 17.0784815,8.19608282 16.1791273,7.87992847 C15.6519197,7.69262888 15.2020041,7.6806638 14.8050477,7.75475528 C14.4128625,7.83252833 14.0717281,7.99543756 13.8169509,8.19332164 C13.8150424,8.19516243 13.8136111,8.19700321 13.8112256,8.19838379 C13.8202907,8.18641871 13.8288787,8.17353323 13.8379438,8.16110795 C14.2015023,7.6802036 14.5488391,7.23335372 14.8842481,6.831603 C15.115647,6.56883134 15.3289156,6.31802476 15.5364588,6.08562601 C15.6118424,6.27660716 15.8098434,6.54858273 16.1409585,6.81319518 C16.5417317,7.13487187 17.1252384,7.43583976 17.9024522,7.60427133 C18.3943536,7.71287749 18.8323415,7.66317637 19.2121218,7.52741868 C19.587131,7.38705903 19.9363763,7.18457299 20.2088066,6.95079365 C20.3476459,6.83620495 20.468355,6.71471333 20.5785677,6.60242561 C20.6911658,6.49197868 20.7875423,6.3865939 20.8657885,6.29409459 C21.0222809,6.10955617 21.1076837,5.97932083 21.1076837,5.97932083 C21.1076837,5.97932083 20.8323907,5.96781594 20.3619593,5.86289136 C20.1267436,5.81042906 19.8414312,5.7344968 19.5179499,5.62681104 C19.1987627,5.52326704 18.8394981,5.38658896 18.4506527,5.2061923 C17.5994867,4.81088432 16.8704611,4.94480123 16.3709259,5.22183895 C16.4725506,5.12059593 16.5713126,5.02349467 16.663395,4.93329634 C16.9119698,4.70273837 17.131918,4.51543878 17.308449,4.36173346 C17.4873656,4.21078932 17.6242965,4.09528024 17.716856,4.01704699 C17.8098927,3.93973414 17.8604664,3.9024583 17.8604664,3.9024583 C17.8762111,3.89095341 17.8924329,3.87622715 17.9062691,3.86150089 C17.9243993,3.84125229 17.9391897,3.81824251 17.9506404,3.79477254 C18.2550372,3.83711053 18.5436893,3.85551835 18.8108715,3.82514544 C19.2221411,3.78050648 19.5856997,3.62542057 19.948304,3.33457698 C20.3104313,3.042813 20.5308566,2.59458253 20.7226552,2.12610346 C20.9092056,1.65210204 21.0361171,1.12517813 21.1568262,0.63967182 C20.7298118,0.628166931 20.1663438,0.635990256 19.6052613,0.726188584 C19.4654677,0.748738166 19.3251971,0.7763499 19.1882663,0.809944175 C19.0541981,0.847220015 18.9225154,0.890938593 18.796081,0.940639712 C18.5436893,1.04050215 18.3113363,1.16751612 18.1190606,1.32628359 C17.7302151,1.63921656 17.5412792,2.01335555 17.4534908,2.41004412 C17.3976688,2.67511676 17.3895579,2.95307487 17.4076881,3.24713983 C17.3618854,3.26508746 17.3203768,3.29269919 17.2860248,3.32997503 C17.2860248,3.32997503 17.2435619,3.37691498 17.1634073,3.47033467 C17.0813442,3.56191359 16.9596809,3.69813147 16.80128,3.87530676 C16.6400165,4.04926068 16.4410613,4.264172 16.207754,4.51635917 C16.1027896,4.63601001 15.9897143,4.76394438 15.8694823,4.89832148 C16.1333247,4.36909659 16.3256004,3.65119153 15.915285,2.75012863 C15.7387539,2.36264397 15.6161364,1.99586812 15.5321648,1.66314673 C15.4515331,1.33410691 15.4109787,1.04050215 15.3918942,0.793837331 C15.3537253,0.300507697 15.4004822,0 15.4004822,0 C15.4004822,0 15.2325392,0.0971012619 14.9849186,0.275657137 C14.8608697,0.364935074 14.7172593,0.474001421 14.5650609,0.601935785 C14.4147709,0.731710931 14.2616183,0.88495605 14.1089428,1.05154684 C13.80884,1.38979057 13.5073059,1.77497425 13.3412712,2.22458531 C13.1709426,2.66913421 13.1089182,3.14773759 13.2453719,3.63186331 C13.4629345,4.40315106 13.8737271,4.92869438 14.2597099,5.25911479 C14.5960731,5.54581662 14.9200315,5.69169861 15.1247121,5.72529289 C14.9143061,5.96597516 14.6953122,6.22414487 14.4548483,6.49335927 C14.109897,6.89833135 13.7468156,7.34426085 13.3603557,7.82194383 C13.3326832,7.8559983 13.3045337,7.89235375 13.2773384,7.92778881 C13.2897433,7.8974159 13.3031024,7.86888378 13.3150301,7.83759048 C13.4281054,7.53202063 13.5254361,7.1831924 13.5101685,6.78190188 C13.5001492,6.38429292 13.3803943,5.93330128 13.1108266,5.46666299 C12.639441,4.66086057 12.4190157,3.91534377 12.3192995,3.37047224 C12.2672944,3.09665588 12.2501184,2.8771426 12.2458244,2.72711885 C12.2410533,2.57663491 12.2463016,2.49287932 12.2463016,2.49287932 C12.2463016,2.49287932 12.2028845,2.525093 12.1251154,2.58261745 C12.0487776,2.64198268 11.9371336,2.72619846 11.8135619,2.84308813 C11.5635557,3.07318591 11.2357805,3.4049869 10.9294753,3.80443664 C10.6293725,4.20894854 10.365053,4.69307426 10.2181028,5.196068 C10.077355,5.70458409 10.0759237,6.24853523 10.2853754,6.76487464 C10.6155362,7.58448293 11.1341559,8.10910586 11.6007704,8.42433981 C11.9972496,8.69033284 12.3608082,8.80906329 12.5907757,8.82609053 C12.0611825,9.54261501 11.5201386,10.33093 10.9857743,11.1924161 C10.9700297,11.2191074 10.9533308,11.2467191 10.9380633,11.2738707 C11.0010419,10.9563357 11.0330083,10.603826 10.9752779,10.2214034 C10.9099137,9.79066041 10.7224091,9.31803958 10.3640987,8.84265757 C9.74433159,8.02581046 9.40844546,7.23979646 9.23048307,6.6558083 C9.05967734,6.0764221 9.04631823,5.70596467 9.04631823,5.70596467 C9.04631823,5.70596467 8.86787872,5.86611273 8.61405568,6.14453104 C8.36929775,6.42939208 8.05488162,6.83712535 7.77195481,7.31618892 C7.50143289,7.80261562 7.26812562,8.3631338 7.18081431,8.93745785 C7.10495366,9.51868484 7.16506965,10.1054342 7.46755801,10.6406416 C7.95802809,11.4961451 8.58638325,11.987634 9.14030909,12.2655921 C9.56875475,12.4786626 9.95092064,12.5633386 10.2066521,12.56656 C10.0868973,12.7920558 9.96714241,13.0198526 9.85025022,13.2531718 C9.67753605,13.620868 9.50434477,13.9959274 9.33783304,14.3797305 C9.18372619,14.7690559 9.0234169,15.1625231 8.87408117,15.5656544 C8.83925207,15.6586139 8.80823985,15.7561754 8.77484208,15.8495951 C8.77913608,15.811859 8.78581564,15.7759638 8.78915541,15.7368472 C8.86119917,14.9756837 8.71663454,13.9968478 7.7977188,13.0750761 C7.39933114,12.6788477 7.07823545,12.2807786 6.82107263,11.9047988 C6.56629537,11.5292792 6.3849932,11.1809112 6.24806235,10.8790229 C5.9765862,10.2757065 5.90120267,9.87119463 5.90120267,9.87119463 C5.90120267,9.87119463 5.73612227,10.0736807 5.50901745,10.4169866 C5.39546503,10.5886395 5.26664507,10.7952673 5.13543955,11.0290466 C5.01234492,11.2665076 4.88781895,11.5315802 4.77522076,11.8141403 C4.54095927,12.376039 4.39591754,13.0285963 4.38589821,13.6618254 C4.39257776,14.3014972 4.5552726,14.929204 4.96749649,15.4593492 C5.63211208,16.3065693 6.38785587,16.7359317 7.0281388,16.9476217 C7.61212263,17.139063 8.09877583,17.1478067 8.35546153,17.0783172 C7.98474631,18.2246643 7.64027218,19.4156504 7.2671714,20.6379298 C7.20848675,19.8160206 6.89454772,18.8022097 5.75950071,17.9609723 C4.78237743,17.2412264 4.12682695,16.4533716 3.74800083,15.8491349 C3.36154094,15.2430573 3.21697631,14.8192172 3.21697631,14.8192172 C3.21697631,14.8192172 3.07241169,15.0626607 2.88442996,15.468093 C2.6902458,15.8707641 2.47602297,16.4437075 2.32621012,17.0889017 C2.03517242,18.3802104 2.07286419,19.9743278 3.15256633,20.9784745 C3.9941901,21.7746128 4.89068162,22.1100954 5.60539386,22.2288258 C6.13355572,22.3144222 6.57345204,22.2849697 6.86067284,22.2090374 C6.77240731,22.6393203 6.68748156,23.0737449 6.64167891,23.5159928 C6.57870026,23.9959768 6.59205936,24.4865452 6.58728825,24.9748127 C6.59873892,25.3089147 6.5891967,25.6416361 6.57536048,25.9752778 C6.56724959,25.9393826 6.56200137,25.9053281 6.55245915,25.8689727 C6.34968699,25.0065662 5.82725047,23.9761884 4.48418307,23.2619649 C3.31287562,22.6517456 2.50751229,21.9168133 1.99127821,21.3282231 C1.72934429,21.033698 1.55567589,20.77967 1.43639815,20.598353 C1.31902885,20.4170359 1.26416109,20.3102706 1.26416109,20.3102706 C1.26416109,20.3102706 1.14488334,20.5932908 1.01033805,21.0580884 C0.886766303,21.5247266 0.734090791,22.1713014 0.696876134,22.8915074 C0.600499717,24.3268574 0.940202733,26.0498295 2.26227725,26.9412283 C3.31526118,27.6513101 4.30622067,27.8445922 5.09059112,27.8422912 C5.73993916,27.8367689 6.24281413,27.6954888 6.52001561,27.5417835 C6.49282028,28.6642005 6.50093117,29.8018039 6.61686913,30.9421685 C6.16838482,30.1929701 5.43363391,29.4193814 4.11633051,28.9812752 C2.77374022,28.543169 1.77228428,27.8896914 1.1300929,27.3448198 C0.476450863,26.7981075 0.177302281,26.3705858 0.177302281,26.3705858 C0.177302281,26.3705858 0.160603396,26.4529608 0.131976738,26.599303 C0.103350079,26.7461054 0.0737691986,26.9605565 0.0489594278,27.225169 C-0.00590833454,27.7525531 -0.0321494383,28.4851844 0.065658312,29.2845441 C0.116232076,29.684454 0.189707166,30.0981698 0.314710242,30.5118856 C0.430648209,30.9214597 0.59715994,31.3328745 0.803748993,31.7134562 C1.00652116,32.0921972 1.27322619,32.4543711 1.57046633,32.7544186 C1.88106558,33.061369 2.23603615,33.3190785 2.63585514,33.4893509 C3.90831012,33.9693348 4.98944359,33.9389619 5.8024407,33.7539633 C6.32964833,33.6320115 6.74187221,33.4442517 7.01668813,33.2610939 C7.26907984,34.3540583 7.58111042,35.4345975 7.99953675,36.4677365 C7.76670659,36.2293552 7.49523044,35.9997176 7.16650098,35.8009131 C6.6283198,35.4608286 5.93794021,35.2012783 5.06673557,35.1156819 C4.320534,35.0420507 3.64923886,34.8998502 3.06143814,34.7249759 C2.47363741,34.5501016 1.98364444,34.3384117 1.57810011,34.1373062 C1.37675928,34.0365234 1.19784266,33.9385017 1.04373581,33.847383 C0.889151858,33.7493613 0.758900561,33.6435164 0.653936146,33.5611414 C0.444007317,33.3927098 0.335226014,33.285024 0.335226014,33.285024 C0.335226014,33.285024 0.341428457,33.3848865 0.352402009,33.5634423 C0.360035785,33.6527203 0.370055115,33.7617866 0.381028668,33.8878802 C0.394387775,34.0153544 0.409178215,34.1267217 0.429216876,34.2675415 C0.468817087,34.5413579 0.523207739,34.8648754 0.60193105,35.2178454 C0.688288137,35.5680542 0.79754655,35.9481757 0.934954512,36.3365807 C1.49317435,37.8879 2.62917559,39.5307981 4.4202502,39.8925118 C5.82725047,40.1884175 6.97327103,39.9666033 7.78769947,39.6380237 C8.42893662,39.3761724 8.87598961,39.0425306 9.10881977,38.7737764 C9.21950951,39.0020334 9.32829082,39.2307506 9.42991545,39.4613086 C9.64652384,39.9026361 9.83498267,40.3540879 10.0477742,40.7921941 C10.2557946,41.2510091 10.4724029,41.7033813 10.6956909,42.1493108 C9.91513732,41.5349497 8.80537719,41.0232123 7.23663629,41.1101892 C5.63974585,41.2109721 4.32816778,40.9541829 3.40972915,40.6661005 C2.50178696,40.3743365 1.98841555,40.0641647 1.98841555,40.0641647 C1.98841555,40.0641647 2.06093642,40.4286396 2.23365059,40.991919 C2.31619079,41.2749392 2.44167098,41.6002975 2.58766694,41.9560287 C2.73223156,42.3131404 2.91878195,42.6923415 3.13777589,43.074764 C3.57051555,43.8414498 4.15879338,44.6127376 4.88400207,45.2017879 C5.61064208,45.7899178 6.46991895,46.1939695 7.4413169,46.2353871 C8.97141181,46.3085582 10.1260204,45.8782754 10.9146848,45.3918487 C11.4175598,45.0789157 11.7782557,44.7388312 11.9996352,44.4498284 C12.2849475,44.8897753 12.5831419,45.3159164 12.9056689,45.7167467 C13.1890728,46.0812216 13.5030119,46.4171644 13.7973893,46.7581693 C13.9739204,46.9491504 14.1461575,47.1355296 14.3198259,47.3237496 C13.3842112,46.8115519 12.1222527,46.4530596 10.4762198,46.8133927 C9.64986361,47.0006923 8.88934872,47.0780052 8.19992336,47.0922712 C7.50858955,47.1079179 6.90122728,47.054075 6.39978364,46.9749214 C5.38783126,46.8198355 4.80480164,46.5704095 4.80480164,46.5704095 C4.80480164,46.5704095 4.93600716,46.9477698 5.22990753,47.5087482 C5.51617411,48.0724878 5.96274999,48.8235269 6.57058937,49.5603 C6.87403195,49.9289166 7.21278075,50.2956925 7.59494664,50.6279537 C7.96900164,50.9648168 8.38599664,51.2676255 8.82732429,51.5170515 C9.70902538,52.0168239 10.6999849,52.2929412 11.7252964,52.1645466 C12.5335224,52.0679056 13.2157911,51.8502331 13.7868929,51.5754963 C14.3565634,51.30168 14.8117273,50.9740207 15.1714689,50.6436003 C15.7158526,50.1401464 16.0436278,49.6348517 16.1843756,49.2666952 C16.8904998,49.953307 17.596624,50.5906778 18.2812783,51.1843301 C18.701136,51.5409817 19.1147912,51.8801458 19.5212897,52.2032031 C18.4110525,51.8598972 16.9921244,51.711254 15.2993347,52.4484873 C14.4934943,52.8019175 13.705784,53.0425997 12.9939345,53.1871012 C12.2839933,53.3311424 11.6308284,53.3928086 11.0864448,53.4043135 C10.5454009,53.4139776 10.1040733,53.3799231 9.79919935,53.344488 C9.49241699,53.3095132 9.32685948,53.2708567 9.32685948,53.2708567 C9.32685948,53.2708567 9.38268147,53.3642764 9.49623388,53.5230439 C9.60835496,53.6827318 9.77438958,53.9105286 9.98908952,54.1825041 C10.4218292,54.7241543 11.070223,55.4337758 11.8903768,56.0964574 C12.3011693,56.4264177 12.7582416,56.7421118 13.2391695,57.0223709 C13.7334565,57.2934261 14.2349001,57.5419317 14.7754668,57.7066817 C15.3088769,57.876954 15.850875,57.9860204 16.3995526,57.9975253 C16.9425049,58.0145525 17.4792547,57.9446028 18.0012142,57.7600644 C19.6424759,57.1903423 20.601469,56.2289938 21.1568262,55.3803932 C21.5261101,54.8083701 21.7202942,54.278685 21.792338,53.8787751 C22.0022668,54.0182143 22.2083787,54.1548924 22.4068569,54.2865083 C22.6621113,54.4425146 22.9083006,54.5925384 23.1444705,54.7370398 C23.3801633,54.883382 23.6201501,55.0016522 23.842961,55.1263652 C24.066726,55.248317 24.2804717,55.3661271 24.4904005,55.4650691 C24.9059642,55.6707766 25.2804963,55.8488722 25.6168596,55.9823289 C25.949883,56.123609 26.2361496,56.2381977 26.4737509,56.3164309 C26.710875,56.3969651 26.8926543,56.4590915 27.0147947,56.5009693 C27.1369351,56.5428471 27.2022993,56.558954 27.2022993,56.558954 C27.7280756,56.700234 28.2772304,56.375336 28.4365854,55.8208003 C28.5992803,55.2556802 28.3449801,54.6785949 27.8697776,54.5345537" id="Page-1" fill="#D6BD82"></path>
                <path d="M126.869778,54.5345537 C126.869778,54.5345537 126.81157,54.5179867 126.70088,54.4793303 C126.589236,54.4429748 126.423679,54.3891319 126.207548,54.3191822 C125.989508,54.255215 125.725665,54.1613351 125.414112,54.052729 C125.099696,53.9510258 124.745202,53.8152681 124.345383,53.6657045 C124.143565,53.5957548 123.936976,53.5078575 123.718937,53.4167387 C123.502328,53.323319 123.269021,53.2386431 123.037145,53.1254349 C122.801929,53.0186696 122.556694,52.9073023 122.302394,52.7917932 C122.105347,52.6933113 121.900667,52.5911479 121.692169,52.4871437 C122.017082,52.2344964 122.394477,51.8212407 122.736088,51.2510585 C123.268544,50.3762267 123.7051,49.1590095 123.940793,47.6794808 C124.236602,45.8230519 123.546223,44.6546154 122.754695,43.780704 C122.359648,43.3481202 121.934065,43.0057347 121.605335,42.7622913 C121.44264,42.6389589 121.301415,42.5455392 121.201222,42.4824924 C121.099597,42.4199058 121.042821,42.3849309 121.042821,42.3849309 C121.042821,42.3849309 121.022305,42.5082633 120.968869,42.7346795 C120.914955,42.9620161 120.825736,43.2970385 120.688328,43.7291621 C120.553305,44.1580644 120.377729,44.6762446 120.138696,45.2860037 C119.901095,45.893922 119.615305,46.5750114 119.246498,47.3357147 C118.498866,48.8695465 118.756983,50.1654571 119.319974,51.0748036 C118.932082,50.8078901 118.540851,50.5207281 118.150574,50.2073349 C117.473077,49.6698265 116.804644,49.0559257 116.146708,48.3845004 C116.526489,48.2464417 117.034612,47.9344291 117.54846,47.4272936 C117.897229,47.0853683 118.249814,46.6569262 118.578543,46.1470296 C118.905841,45.6394339 119.213101,45.046702 119.482668,44.3752767 C120.151578,42.6932619 119.694029,41.3678987 119.087143,40.3481054 C118.781792,39.8423505 118.434456,39.4185104 118.164888,39.1143211 C117.888641,38.815194 117.695411,38.6343371 117.695411,38.6343371 C117.695411,38.6343371 117.531284,39.0899307 117.12908,39.8543156 C116.924399,40.2399594 116.661034,40.7042968 116.33135,41.2303003 C115.999758,41.7576844 115.590397,42.3554784 115.106129,42.9914687 C114.139025,44.2468821 114.092746,45.4521343 114.380921,46.3996769 C114.246375,46.223422 114.113261,46.0439458 113.976808,45.8653899 C113.73205,45.5101189 113.472978,45.1599101 113.227266,44.794975 C112.94434,44.3987467 112.657596,43.9969959 112.368467,43.5915637 C112.724868,43.4999847 113.174784,43.3062424 113.653326,42.9868667 C114.432926,42.4714477 115.269778,41.6371131 116.00119,40.4608533 C116.913903,38.9854664 116.685367,37.6242079 116.273143,36.5491911 C116.168655,36.2813573 116.046992,36.0351527 115.934394,35.8096568 C115.81941,35.5850814 115.692976,35.3908789 115.594214,35.2233677 C115.389533,34.8911065 115.225407,34.6941428 115.225407,34.6941428 C115.225407,34.6941428 115.012616,35.0972741 114.507832,35.7622567 C114.014499,36.4230975 113.236331,37.3572945 112.1218,38.4051598 C111.022059,39.4249531 110.775393,40.5317234 110.874632,41.4580971 C110.61413,41.0710726 110.359352,40.6757646 110.121751,40.267111 C109.873176,39.8639797 109.65943,39.4396794 109.442345,39.0149189 C109.342152,38.7958658 109.241481,38.5763525 109.146536,38.3540781 C109.509618,38.3623616 110.052093,38.259738 110.668043,37.9854614 C111.480563,37.6274293 112.396616,36.9813147 113.268775,35.9918943 C114.355157,34.7498265 114.35468,33.4263041 114.13998,32.35773 C114.089883,32.0898962 114.018793,31.84001 113.940547,31.6145142 C113.869935,31.3876378 113.793597,31.1851517 113.720122,31.0157998 C113.68577,30.9348053 113.645216,30.8464478 113.619929,30.7958263 C113.594642,30.7438242 113.570786,30.6991852 113.55027,30.6623696 C113.509716,30.5896587 113.482998,30.5491615 113.482998,30.5491615 C113.482998,30.5491615 113.412862,30.6195714 113.266867,30.7479659 C113.194823,30.8146943 113.100355,30.8874052 112.993005,30.9891084 C112.888995,31.0977146 112.766854,31.221047 112.625152,31.3572649 C112.34318,31.6297006 111.976758,31.9550589 111.540679,32.3126308 C111.105077,32.6702028 110.586934,33.0632098 109.978618,33.4695624 C109.272493,33.9421833 108.843571,34.4856742 108.592133,35.0397497 C108.461405,35.3425584 108.384113,35.6481282 108.346898,35.9440339 C108.022463,34.9467902 107.686099,33.9504668 107.390291,32.9394172 C107.717589,32.9670289 108.159871,32.9338948 108.667517,32.7995177 C109.474311,32.5892084 110.445232,32.1225701 111.398023,31.3360959 C111.709099,31.1064583 111.960537,30.8818828 112.157106,30.6508647 C112.364173,30.409262 112.506829,30.1773235 112.625629,29.9278975 C112.741567,29.6807725 112.814565,29.4354882 112.868956,29.1833011 C112.915713,28.9370964 112.945294,28.6862899 112.951496,28.4469882 C112.980123,27.493463 112.745384,26.6513051 112.745384,26.6513051 C112.745384,26.6513051 112.417132,26.9067137 111.780189,27.2776313 C111.133226,27.6503897 110.180436,28.1478611 108.893667,28.6444121 C107.652702,29.1170329 107.063947,29.9348004 106.836365,30.719894 C106.623096,29.6752501 106.476623,28.6103576 106.421278,27.5445447 C106.706113,27.679382 107.197538,27.7833862 107.826847,27.7585356 C108.606924,27.7323045 109.59836,27.5045077 110.643233,26.994611 C111.971033,26.3517178 112.437171,25.2909671 112.643282,24.3438846 C112.736796,23.8712638 112.776396,23.429476 112.774011,23.1008964 C112.781645,22.7736974 112.762083,22.5620074 112.762083,22.5620074 C112.762083,22.5620074 112.677157,22.6121687 112.509214,22.6940835 C112.343657,22.7764586 112.086017,22.8892065 111.76349,23.0203622 C111.112233,23.2808329 110.134156,23.6121737 108.868858,23.8744851 C107.381226,24.1731521 106.69848,25.0755955 106.407919,25.8961242 C106.424618,25.608502 106.455153,25.3218002 106.497616,25.0373993 C106.58445,24.5679998 106.664128,24.1032023 106.7314,23.6397854 C106.781497,23.2154851 106.830639,22.7944062 106.879782,22.375168 C107.133128,22.5247316 107.534855,22.669233 108.051089,22.7368817 C108.778206,22.8349034 109.707142,22.7773789 110.766328,22.4547819 C112.086494,22.0465884 112.702921,21.1041079 113.033559,20.2398607 C113.203888,19.8095778 113.288814,19.3949416 113.350838,19.089832 C113.405706,18.7828815 113.413817,18.5803955 113.413817,18.5803955 C113.413817,18.5803955 113.075545,18.7235163 112.42906,18.8786022 C111.776372,19.0313871 110.844574,19.2136246 109.627464,19.2785121 C108.260064,19.3489221 107.487144,20.0424368 107.085894,20.7368719 C107.2567,19.5311595 107.577318,18.3811308 107.969503,17.2932285 C108.146034,17.4911126 108.540128,17.7386978 109.105982,17.9043682 C109.752944,18.0962698 110.627012,18.1800254 111.63467,18.0240191 C112.27877,17.929679 112.774965,17.6807132 113.159517,17.3599569 C113.560767,17.0461035 113.829857,16.6503353 114.058394,16.2743556 C114.168129,16.084755 114.257349,15.8960748 114.32987,15.7193597 C114.409547,15.545866 114.472049,15.3838772 114.51976,15.2444379 C114.615182,14.9660196 114.652397,14.7782598 114.652397,14.7782598 C114.652397,14.7782598 114.31985,14.8693785 113.7039,14.9305846 C113.397118,14.962338 113.013521,14.9853478 112.574579,14.9917906 C112.137068,14.9991537 111.634193,14.9862682 111.07311,14.9356467 C109.762486,14.8136949 108.948058,15.3847976 108.481443,15.9862732 C108.505299,15.9301293 108.5282,15.8735252 108.551579,15.8178416 C108.720476,15.4317375 108.89987,15.0557577 109.067336,14.6825392 C109.246729,14.3143827 109.426123,13.9531292 109.594066,13.5941767 C109.708573,13.369141 109.81974,13.1514685 109.931861,12.9314951 C110.093124,13.1215558 110.390364,13.3521138 110.810222,13.5449357 C111.373213,13.8058666 112.157584,13.997308 113.100355,13.9821215 C113.701515,13.9775196 114.195802,13.8118492 114.590849,13.561963 C114.997825,13.3180593 115.31749,12.9931613 115.566064,12.6645816 C115.826567,12.342905 116.010732,12.0138651 116.132395,11.7635188 C116.264078,11.5196151 116.327533,11.3525641 116.327533,11.3525641 C116.327533,11.3525641 116.002621,11.3949021 115.428179,11.3797157 C114.860894,11.3691312 114.036447,11.302863 113.019246,11.0718448 C112.426197,10.9356269 111.934296,10.9775047 111.513961,11.1082003 C111.170918,11.2154258 110.886083,11.3870788 110.657069,11.5812813 C110.660409,11.5752988 110.663749,11.5693162 110.667089,11.5633337 C111.146108,10.7055292 111.636101,9.9158336 112.118938,9.19470717 C112.232967,9.39167087 112.482496,9.65490272 112.864662,9.89420441 C113.344636,10.1965529 114.023565,10.4547226 114.897155,10.5527442 C115.448218,10.615791 115.907199,10.5085655 116.307495,10.3249474 C116.71447,10.1454712 117.039383,9.87349561 117.311813,9.59783847 C117.589969,9.32678329 117.800375,9.04192224 117.942077,8.82286916 C118.012212,8.71334262 118.069466,8.62360449 118.109543,8.56101789 C118.146758,8.49705071 118.16775,8.46115546 118.16775,8.46115546 C118.16775,8.46115546 118.092367,8.46391663 117.950665,8.4570137 C117.807532,8.44919037 117.600943,8.43446411 117.343303,8.40317082 C116.824683,8.33828324 116.078482,8.19608282 115.179127,7.87992847 C114.65192,7.69262888 114.202004,7.6806638 113.805048,7.75475528 C113.412862,7.83252833 113.071728,7.99543756 112.816951,8.19332164 C112.815042,8.19516243 112.813611,8.19700321 112.811226,8.19838379 C112.820291,8.18641871 112.828879,8.17353323 112.837944,8.16110795 C113.201502,7.6802036 113.548839,7.23335372 113.884248,6.831603 C114.115647,6.56883134 114.328916,6.31802476 114.536459,6.08562601 C114.611842,6.27660716 114.809843,6.54858273 115.140958,6.81319518 C115.541732,7.13487187 116.125238,7.43583976 116.902452,7.60427133 C117.394354,7.71287749 117.832341,7.66317637 118.212122,7.52741868 C118.587131,7.38705903 118.936376,7.18457299 119.208807,6.95079365 C119.347646,6.83620495 119.468355,6.71471333 119.578568,6.60242561 C119.691166,6.49197868 119.787542,6.3865939 119.865788,6.29409459 C120.022281,6.10955617 120.107684,5.97932083 120.107684,5.97932083 C120.107684,5.97932083 119.832391,5.96781594 119.361959,5.86289136 C119.126744,5.81042906 118.841431,5.7344968 118.51795,5.62681104 C118.198763,5.52326704 117.839498,5.38658896 117.450653,5.2061923 C116.599487,4.81088432 115.870461,4.94480123 115.370926,5.22183895 C115.472551,5.12059593 115.571313,5.02349467 115.663395,4.93329634 C115.91197,4.70273837 116.131918,4.51543878 116.308449,4.36173346 C116.487366,4.21078932 116.624296,4.09528024 116.716856,4.01704699 C116.809893,3.93973414 116.860466,3.9024583 116.860466,3.9024583 C116.876211,3.89095341 116.892433,3.87622715 116.906269,3.86150089 C116.924399,3.84125229 116.93919,3.81824251 116.95064,3.79477254 C117.255037,3.83711053 117.543689,3.85551835 117.810871,3.82514544 C118.222141,3.78050648 118.5857,3.62542057 118.948304,3.33457698 C119.310431,3.042813 119.530857,2.59458253 119.722655,2.12610346 C119.909206,1.65210204 120.036117,1.12517813 120.156826,0.63967182 C119.729812,0.628166931 119.166344,0.635990256 118.605261,0.726188584 C118.465468,0.748738166 118.325197,0.7763499 118.188266,0.809944175 C118.054198,0.847220015 117.922515,0.890938593 117.796081,0.940639712 C117.543689,1.04050215 117.311336,1.16751612 117.119061,1.32628359 C116.730215,1.63921656 116.541279,2.01335555 116.453491,2.41004412 C116.397669,2.67511676 116.389558,2.95307487 116.407688,3.24713983 C116.361885,3.26508746 116.320377,3.29269919 116.286025,3.32997503 C116.286025,3.32997503 116.243562,3.37691498 116.163407,3.47033467 C116.081344,3.56191359 115.959681,3.69813147 115.80128,3.87530676 C115.640017,4.04926068 115.441061,4.264172 115.207754,4.51635917 C115.10279,4.63601001 114.989714,4.76394438 114.869482,4.89832148 C115.133325,4.36909659 115.3256,3.65119153 114.915285,2.75012863 C114.738754,2.36264397 114.616136,1.99586812 114.532165,1.66314673 C114.451533,1.33410691 114.410979,1.04050215 114.391894,0.793837331 C114.353725,0.300507697 114.400482,0 114.400482,0 C114.400482,0 114.232539,0.0971012619 113.984919,0.275657137 C113.86087,0.364935074 113.717259,0.474001421 113.565061,0.601935785 C113.414771,0.731710931 113.261618,0.88495605 113.108943,1.05154684 C112.80884,1.38979057 112.507306,1.77497425 112.341271,2.22458531 C112.170943,2.66913421 112.108918,3.14773759 112.245372,3.63186331 C112.462935,4.40315106 112.873727,4.92869438 113.25971,5.25911479 C113.596073,5.54581662 113.920031,5.69169861 114.124712,5.72529289 C113.914306,5.96597516 113.695312,6.22414487 113.454848,6.49335927 C113.109897,6.89833135 112.746816,7.34426085 112.360356,7.82194383 C112.332683,7.8559983 112.304534,7.89235375 112.277338,7.92778881 C112.289743,7.8974159 112.303102,7.86888378 112.31503,7.83759048 C112.428105,7.53202063 112.525436,7.1831924 112.510169,6.78190188 C112.500149,6.38429292 112.380394,5.93330128 112.110827,5.46666299 C111.639441,4.66086057 111.419016,3.91534377 111.3193,3.37047224 C111.267294,3.09665588 111.250118,2.8771426 111.245824,2.72711885 C111.241053,2.57663491 111.246302,2.49287932 111.246302,2.49287932 C111.246302,2.49287932 111.202884,2.525093 111.125115,2.58261745 C111.048778,2.64198268 110.937134,2.72619846 110.813562,2.84308813 C110.563556,3.07318591 110.235781,3.4049869 109.929475,3.80443664 C109.629372,4.20894854 109.365053,4.69307426 109.218103,5.196068 C109.077355,5.70458409 109.075924,6.24853523 109.285375,6.76487464 C109.615536,7.58448293 110.134156,8.10910586 110.60077,8.42433981 C110.99725,8.69033284 111.360808,8.80906329 111.590776,8.82609053 C111.061182,9.54261501 110.520139,10.33093 109.985774,11.1924161 C109.97003,11.2191074 109.953331,11.2467191 109.938063,11.2738707 C110.001042,10.9563357 110.033008,10.603826 109.975278,10.2214034 C109.909914,9.79066041 109.722409,9.31803958 109.364099,8.84265757 C108.744332,8.02581046 108.408445,7.23979646 108.230483,6.6558083 C108.059677,6.0764221 108.046318,5.70596467 108.046318,5.70596467 C108.046318,5.70596467 107.867879,5.86611273 107.614056,6.14453104 C107.369298,6.42939208 107.054882,6.83712535 106.771955,7.31618892 C106.501433,7.80261562 106.268126,8.3631338 106.180814,8.93745785 C106.104954,9.51868484 106.16507,10.1054342 106.467558,10.6406416 C106.958028,11.4961451 107.586383,11.987634 108.140309,12.2655921 C108.568755,12.4786626 108.950921,12.5633386 109.206652,12.56656 C109.086897,12.7920558 108.967142,13.0198526 108.85025,13.2531718 C108.677536,13.620868 108.504345,13.9959274 108.337833,14.3797305 C108.183726,14.7690559 108.023417,15.1625231 107.874081,15.5656544 C107.839252,15.6586139 107.80824,15.7561754 107.774842,15.8495951 C107.779136,15.811859 107.785816,15.7759638 107.789155,15.7368472 C107.861199,14.9756837 107.716635,13.9968478 106.797719,13.0750761 C106.399331,12.6788477 106.078235,12.2807786 105.821073,11.9047988 C105.566295,11.5292792 105.384993,11.1809112 105.248062,10.8790229 C104.976586,10.2757065 104.901203,9.87119463 104.901203,9.87119463 C104.901203,9.87119463 104.736122,10.0736807 104.509017,10.4169866 C104.395465,10.5886395 104.266645,10.7952673 104.13544,11.0290466 C104.012345,11.2665076 103.887819,11.5315802 103.775221,11.8141403 C103.540959,12.376039 103.395918,13.0285963 103.385898,13.6618254 C103.392578,14.3014972 103.555273,14.929204 103.967496,15.4593492 C104.632112,16.3065693 105.387856,16.7359317 106.028139,16.9476217 C106.612123,17.139063 107.098776,17.1478067 107.355462,17.0783172 C106.984746,18.2246643 106.640272,19.4156504 106.267171,20.6379298 C106.208487,19.8160206 105.894548,18.8022097 104.759501,17.9609723 C103.782377,17.2412264 103.126827,16.4533716 102.748001,15.8491349 C102.361541,15.2430573 102.216976,14.8192172 102.216976,14.8192172 C102.216976,14.8192172 102.072412,15.0626607 101.88443,15.468093 C101.690246,15.8707641 101.476023,16.4437075 101.32621,17.0889017 C101.035172,18.3802104 101.072864,19.9743278 102.152566,20.9784745 C102.99419,21.7746128 103.890682,22.1100954 104.605394,22.2288258 C105.133556,22.3144222 105.573452,22.2849697 105.860673,22.2090374 C105.772407,22.6393203 105.687482,23.0737449 105.641679,23.5159928 C105.5787,23.9959768 105.592059,24.4865452 105.587288,24.9748127 C105.598739,25.3089147 105.589197,25.6416361 105.57536,25.9752778 C105.56725,25.9393826 105.562001,25.9053281 105.552459,25.8689727 C105.349687,25.0065662 104.82725,23.9761884 103.484183,23.2619649 C102.312876,22.6517456 101.507512,21.9168133 100.991278,21.3282231 C100.729344,21.033698 100.555676,20.77967 100.436398,20.598353 C100.319029,20.4170359 100.264161,20.3102706 100.264161,20.3102706 C100.264161,20.3102706 100.144883,20.5932908 100.010338,21.0580884 C99.8867663,21.5247266 99.7340908,22.1713014 99.6968761,22.8915074 C99.6004997,24.3268574 99.9402027,26.0498295 101.262277,26.9412283 C102.315261,27.6513101 103.306221,27.8445922 104.090591,27.8422912 C104.739939,27.8367689 105.242814,27.6954888 105.520016,27.5417835 C105.49282,28.6642005 105.500931,29.8018039 105.616869,30.9421685 C105.168385,30.1929701 104.433634,29.4193814 103.116331,28.9812752 C101.77374,28.543169 100.772284,27.8896914 100.130093,27.3448198 C99.4764509,26.7981075 99.1773023,26.3705858 99.1773023,26.3705858 C99.1773023,26.3705858 99.1606034,26.4529608 99.1319767,26.599303 C99.1033501,26.7461054 99.0737692,26.9605565 99.0489594,27.225169 C98.9940917,27.7525531 98.9678506,28.4851844 99.0656583,29.2845441 C99.1162321,29.684454 99.1897072,30.0981698 99.3147102,30.5118856 C99.4306482,30.9214597 99.5971599,31.3328745 99.803749,31.7134562 C100.006521,32.0921972 100.273226,32.4543711 100.570466,32.7544186 C100.881066,33.061369 101.236036,33.3190785 101.635855,33.4893509 C102.90831,33.9693348 103.989444,33.9389619 104.802441,33.7539633 C105.329648,33.6320115 105.741872,33.4442517 106.016688,33.2610939 C106.26908,34.3540583 106.58111,35.4345975 106.999537,36.4677365 C106.766707,36.2293552 106.49523,35.9997176 106.166501,35.8009131 C105.62832,35.4608286 104.93794,35.2012783 104.066736,35.1156819 C103.320534,35.0420507 102.649239,34.8998502 102.061438,34.7249759 C101.473637,34.5501016 100.983644,34.3384117 100.5781,34.1373062 C100.376759,34.0365234 100.197843,33.9385017 100.043736,33.847383 C99.8891519,33.7493613 99.7589006,33.6435164 99.6539361,33.5611414 C99.4440073,33.3927098 99.335226,33.285024 99.335226,33.285024 C99.335226,33.285024 99.3414285,33.3848865 99.352402,33.5634423 C99.3600358,33.6527203 99.3700551,33.7617866 99.3810287,33.8878802 C99.3943878,34.0153544 99.4091782,34.1267217 99.4292169,34.2675415 C99.4688171,34.5413579 99.5232077,34.8648754 99.601931,35.2178454 C99.6882881,35.5680542 99.7975466,35.9481757 99.9349545,36.3365807 C100.493174,37.8879 101.629176,39.5307981 103.42025,39.8925118 C104.82725,40.1884175 105.973271,39.9666033 106.787699,39.6380237 C107.428937,39.3761724 107.87599,39.0425306 108.10882,38.7737764 C108.21951,39.0020334 108.328291,39.2307506 108.429915,39.4613086 C108.646524,39.9026361 108.834983,40.3540879 109.047774,40.7921941 C109.255795,41.2510091 109.472403,41.7033813 109.695691,42.1493108 C108.915137,41.5349497 107.805377,41.0232123 106.236636,41.1101892 C104.639746,41.2109721 103.328168,40.9541829 102.409729,40.6661005 C101.501787,40.3743365 100.988416,40.0641647 100.988416,40.0641647 C100.988416,40.0641647 101.060936,40.4286396 101.233651,40.991919 C101.316191,41.2749392 101.441671,41.6002975 101.587667,41.9560287 C101.732232,42.3131404 101.918782,42.6923415 102.137776,43.074764 C102.570516,43.8414498 103.158793,44.6127376 103.884002,45.2017879 C104.610642,45.7899178 105.469919,46.1939695 106.441317,46.2353871 C107.971412,46.3085582 109.12602,45.8782754 109.914685,45.3918487 C110.41756,45.0789157 110.778256,44.7388312 110.999635,44.4498284 C111.284948,44.8897753 111.583142,45.3159164 111.905669,45.7167467 C112.189073,46.0812216 112.503012,46.4171644 112.797389,46.7581693 C112.97392,46.9491504 113.146157,47.1355296 113.319826,47.3237496 C112.384211,46.8115519 111.122253,46.4530596 109.47622,46.8133927 C108.649864,47.0006923 107.889349,47.0780052 107.199923,47.0922712 C106.50859,47.1079179 105.901227,47.054075 105.399784,46.9749214 C104.387831,46.8198355 103.804802,46.5704095 103.804802,46.5704095 C103.804802,46.5704095 103.936007,46.9477698 104.229908,47.5087482 C104.516174,48.0724878 104.96275,48.8235269 105.570589,49.5603 C105.874032,49.9289166 106.212781,50.2956925 106.594947,50.6279537 C106.969002,50.9648168 107.385997,51.2676255 107.827324,51.5170515 C108.709025,52.0168239 109.699985,52.2929412 110.725296,52.1645466 C111.533522,52.0679056 112.215791,51.8502331 112.786893,51.5754963 C113.356563,51.30168 113.811727,50.9740207 114.171469,50.6436003 C114.715853,50.1401464 115.043628,49.6348517 115.184376,49.2666952 C115.8905,49.953307 116.596624,50.5906778 117.281278,51.1843301 C117.701136,51.5409817 118.114791,51.8801458 118.52129,52.2032031 C117.411052,51.8598972 115.992124,51.711254 114.299335,52.4484873 C113.493494,52.8019175 112.705784,53.0425997 111.993934,53.1871012 C111.283993,53.3311424 110.630828,53.3928086 110.086445,53.4043135 C109.545401,53.4139776 109.104073,53.3799231 108.799199,53.344488 C108.492417,53.3095132 108.326859,53.2708567 108.326859,53.2708567 C108.326859,53.2708567 108.382681,53.3642764 108.496234,53.5230439 C108.608355,53.6827318 108.77439,53.9105286 108.98909,54.1825041 C109.421829,54.7241543 110.070223,55.4337758 110.890377,56.0964574 C111.301169,56.4264177 111.758242,56.7421118 112.239169,57.0223709 C112.733456,57.2934261 113.2349,57.5419317 113.775467,57.7066817 C114.308877,57.876954 114.850875,57.9860204 115.399553,57.9975253 C115.942505,58.0145525 116.479255,57.9446028 117.001214,57.7600644 C118.642476,57.1903423 119.601469,56.2289938 120.156826,55.3803932 C120.52611,54.8083701 120.720294,54.278685 120.792338,53.8787751 C121.002267,54.0182143 121.208379,54.1548924 121.406857,54.2865083 C121.662111,54.4425146 121.908301,54.5925384 122.14447,54.7370398 C122.380163,54.883382 122.62015,55.0016522 122.842961,55.1263652 C123.066726,55.248317 123.280472,55.3661271 123.490401,55.4650691 C123.905964,55.6707766 124.280496,55.8488722 124.61686,55.9823289 C124.949883,56.123609 125.23615,56.2381977 125.473751,56.3164309 C125.710875,56.3969651 125.892654,56.4590915 126.014795,56.5009693 C126.136935,56.5428471 126.202299,56.558954 126.202299,56.558954 C126.728076,56.700234 127.27723,56.375336 127.436585,55.8208003 C127.59928,55.2556802 127.34498,54.6785949 126.869778,54.5345537" id="Page-1-Copy" fill="#D6BD82" transform="translate(113.242880, 29.000000) scale(-1, 1) translate(-113.242880, -29.000000) "></path>
            </g>
        </g>
    </g>
</svg>