<?xml version="1.0" encoding="UTF-8"?>
<svg width="124px" height="58px" viewBox="0 0 124 58" version="1.1" xmlns="http://www.w3.org/2000/svg" xmlns:xlink="http://www.w3.org/1999/xlink">
    <!-- Generator: Sketch 48.2 (47327) - http://www.bohemiancoding.com/sketch -->
    <title>Awards AARP 2017</title>
    <desc>Created with Sketch.</desc>
    <defs></defs>
    <g id="1-page" stroke="none" stroke-width="1" fill="none" fill-rule="evenodd" transform="translate(-595.000000, -239.000000)">
        <g id="Awards" transform="translate(160.000000, 239.000000)">
            <g id="Awards-AARP-2017" transform="translate(435.000000, 0.000000)">
                <text id="AARP-2017-Champion-A" font-family="Gotham-Bold, Gotham" font-size="14" font-weight="bold" line-spacing="14" fill="#212529">
                    <tspan x="22.02" y="21">AARP 2017</tspan>
                    <tspan x="100.98" y="21" font-family="Gotham-Book, Gotham" font-size="10" font-weight="300"></tspan>
                    <tspan x="36.135" y="35" font-family="Gotham-Book, Gotham" font-size="10" font-weight="300" line-spacing="10">Champion</tspan>
                    <tspan x="42.96" y="45" font-family="Gotham-Book, Gotham" font-size="10" font-weight="300" line-spacing="10">Awards</tspan>
                </text>
                <path d="M27.8697776,54.5345537 C27.8697776,54.5345537 27.8115701,54.5179867 27.7008803,54.4793303 C27.5892363,54.4429748 27.4236788,54.3891319 27.2075476,54.3191822 C26.9895078,54.255215 26.7256655,54.1613351 26.414112,54.052729 C26.0996959,53.9510258 25.7452024,53.8152681 25.3453834,53.6657045 C25.1435655,53.5957548 24.9369764,53.5078575 24.7189367,53.4167387 C24.5023283,53.323319 24.2690211,53.2386431 24.0371451,53.1254349 C23.8019294,53.0186696 23.5566944,52.9073023 23.3023942,52.7917932 C23.1053474,52.6933113 22.9006668,52.5911479 22.6921693,52.4871437 C23.0170819,52.2344964 23.3944766,51.8212407 23.7360881,51.2510585 C24.2685439,50.3762267 24.7051005,49.1590095 24.9407933,47.6794808 C25.2366021,45.8230519 24.5462225,44.6546154 23.7546954,43.780704 C23.3596475,43.3481202 22.9340645,43.0057347 22.6053351,42.7622913 C22.4426402,42.6389589 22.3014154,42.5455392 22.2012221,42.4824924 C22.0995974,42.4199058 22.0428212,42.3849309 22.0428212,42.3849309 C22.0428212,42.3849309 22.0223055,42.5082633 21.968869,42.7346795 C21.9149555,42.9620161 21.8257357,43.2970385 21.6883278,43.7291621 C21.5533054,44.1580644 21.3777285,44.6762446 21.1386959,45.2860037 C20.9010947,45.893922 20.6153052,46.5750114 20.2464984,47.3357147 C19.4988655,48.8695465 19.7569825,50.1654571 20.3199735,51.0748036 C19.9320823,50.8078901 19.5408513,50.5207281 19.1505745,50.2073349 C18.4730769,49.6698265 17.8046444,49.0559257 17.1467084,48.3845004 C17.5264887,48.2464417 18.0346119,47.9344291 18.5484604,47.4272936 C18.8972286,47.0853683 19.2498136,46.6569262 19.578543,46.1470296 C19.9058412,45.6394339 20.2131006,45.046702 20.4826683,44.3752767 C21.1515779,42.6932619 20.6940285,41.3678987 20.0871433,40.3481054 C19.7817923,39.8423505 19.4344555,39.4185104 19.1648878,39.1143211 C18.8886406,38.815194 18.6954106,38.6343371 18.6954106,38.6343371 C18.6954106,38.6343371 18.5312844,39.0899307 18.1290799,39.8543156 C17.9243993,40.2399594 17.661034,40.7042968 17.3313503,41.2303003 C16.9997582,41.7576844 16.590397,42.3554784 16.1061294,42.9914687 C15.1390254,44.2468821 15.0927456,45.4521343 15.3809207,46.3996769 C15.2463754,46.223422 15.1132614,46.0439458 14.9768077,45.8653899 C14.7320497,45.5101189 14.4729785,45.1599101 14.2272663,44.794975 C13.9443395,44.3987467 13.6575958,43.9969959 13.3684666,43.5915637 C13.7248685,43.4999847 14.1747841,43.3062424 14.6533264,42.9868667 C15.4329258,42.4714477 16.2697784,41.6371131 17.0011895,40.4608533 C17.9139028,38.9854664 17.6853667,37.6242079 17.2731428,36.5491911 C17.1686555,36.2813573 17.0469922,36.0351527 16.934394,35.8096568 C16.8194103,35.5850814 16.6929759,35.3908789 16.5942139,35.2233677 C16.3895333,34.8911065 16.2254071,34.6941428 16.2254071,34.6941428 C16.2254071,34.6941428 16.0126156,35.0972741 15.5078322,35.7622567 C15.0144994,36.4230975 14.2363314,37.3572945 13.1218002,38.4051598 C12.0220594,39.4249531 11.775393,40.5317234 11.8746321,41.4580971 C11.6141295,41.0710726 11.3593522,40.6757646 11.121751,40.267111 C10.8731762,39.8639797 10.6594304,39.4396794 10.4423449,39.0149189 C10.3421516,38.7958658 10.2414812,38.5763525 10.1465361,38.3540781 C10.5096176,38.3623616 11.0520928,38.259738 11.668043,37.9854614 C12.480563,37.6274293 13.3966161,36.9813147 14.268775,35.9918943 C15.3551567,34.7498265 15.3546796,33.4263041 15.1399796,32.35773 C15.089883,32.0898962 15.0187934,31.84001 14.9405472,31.6145142 C14.8699348,31.3876378 14.7935971,31.1851517 14.720122,31.0157998 C14.68577,30.9348053 14.6452155,30.8464478 14.6199287,30.7958263 C14.5946418,30.7438242 14.5707862,30.6991852 14.5502705,30.6623696 C14.509716,30.5896587 14.4829978,30.5491615 14.4829978,30.5491615 C14.4829978,30.5491615 14.4128625,30.6195714 14.2668665,30.7479659 C14.1948228,30.8146943 14.1003548,30.8874052 13.9930048,30.9891084 C13.8889946,31.0977146 13.7668542,31.221047 13.6251523,31.3572649 C13.3431797,31.6297006 12.9767585,31.9550589 12.540679,32.3126308 C12.1050767,32.6702028 11.5869342,33.0632098 10.9786177,33.4695624 C10.2724934,33.9421833 9.84357067,34.4856742 9.59213319,35.0397497 C9.46140478,35.3425584 9.3841128,35.6481282 9.34689814,35.9440339 C9.02246268,34.9467902 8.68609944,33.9504668 8.39029064,32.9394172 C8.71758877,32.9670289 9.15987064,32.9338948 9.66751672,32.7995177 C10.4743114,32.5892084 11.4452322,32.1225701 12.3980228,31.3360959 C12.7090992,31.1064583 12.9605367,30.8818828 13.1571064,30.6508647 C13.3641726,30.409262 13.5068288,30.1773235 13.6256294,29.9278975 C13.7415674,29.6807725 13.8145653,29.4354882 13.868956,29.1833011 C13.9157129,28.9370964 13.9452937,28.6862899 13.9514962,28.4469882 C13.9801228,27.493463 13.7453842,26.6513051 13.7453842,26.6513051 C13.7453842,26.6513051 13.4171319,26.9067137 12.7801887,27.2776313 C12.1332262,27.6503897 11.1804356,28.1478611 9.89366732,28.6444121 C8.65270167,29.1170329 8.06394673,29.9348004 7.83636479,30.719894 C7.62309619,29.6752501 7.47662312,28.6103576 7.42127824,27.5445447 C7.7061135,27.679382 8.1975378,27.7833862 8.82684718,27.7585356 C9.60692363,27.7323045 10.5983602,27.5045077 11.6432333,26.994611 C12.9710331,26.3517178 13.4371705,25.2909671 13.6432825,24.3438846 C13.7367962,23.8712638 13.7763965,23.429476 13.7740109,23.1008964 C13.7816447,22.7736974 13.7620831,22.5620074 13.7620831,22.5620074 C13.7620831,22.5620074 13.6771574,22.6121687 13.5092143,22.6940835 C13.3436568,22.7764586 13.0860169,22.8892065 12.7634898,23.0203622 C12.1122334,23.2808329 11.1341559,23.6121737 9.86885755,23.8744851 C8.38122553,24.1731521 7.69847972,25.0755955 7.40791913,25.8961242 C7.42461802,25.608502 7.45515312,25.3218002 7.497616,25.0373993 C7.5844502,24.5679998 7.66412773,24.1032023 7.73140038,23.6397854 C7.78149703,23.2154851 7.83063946,22.7944062 7.87978189,22.375168 C8.13312782,22.5247316 8.53485526,22.669233 9.05108934,22.7368817 C9.77820647,22.8349034 10.7071415,22.7773789 11.7663279,22.4547819 C13.086494,22.0465884 13.7029214,21.1041079 14.0335593,20.2398607 C14.2038879,19.8095778 14.2888136,19.3949416 14.3508381,19.089832 C14.4057058,18.7828815 14.4138167,18.5803955 14.4138167,18.5803955 C14.4138167,18.5803955 14.075545,18.7235163 13.4290597,18.8786022 C12.7763718,19.0313871 11.8445741,19.2136246 10.627464,19.2785121 C9.26006395,19.3489221 8.48714416,20.0424368 8.08589383,20.7368719 C8.25669956,19.5311595 8.57731814,18.3811308 8.96950336,17.2932285 C9.14603442,17.4911126 9.54012809,17.7386978 10.1059817,17.9043682 C10.7529442,18.0962698 11.6270115,18.1800254 12.6346699,18.0240191 C13.2787697,17.929679 13.7749651,17.6807132 14.1595166,17.3599569 C14.5607669,17.0461035 14.8298575,16.6503353 15.0583936,16.2743556 C15.1681292,16.084755 15.2573489,15.8960748 15.3298698,15.7193597 C15.4095473,15.545866 15.4720489,15.3838772 15.51976,15.2444379 C15.6151822,14.9660196 15.6523968,14.7782598 15.6523968,14.7782598 C15.6523968,14.7782598 15.3198505,14.8693785 14.7039002,14.9305846 C14.3971178,14.962338 14.0135206,14.9853478 13.5745785,14.9917906 C13.1370677,14.9991537 12.6341928,14.9862682 12.0731103,14.9356467 C10.7624864,14.8136949 9.94805798,15.3847976 9.48144344,15.9862732 C9.50529899,15.9301293 9.52820032,15.8735252 9.55157875,15.8178416 C9.72047604,15.4317375 9.89986977,15.0557577 10.0673357,14.6825392 C10.2467294,14.3143827 10.4261232,13.9531292 10.5940662,13.5941767 C10.7085729,13.369141 10.8197397,13.1514685 10.9318608,12.9314951 C11.0931243,13.1215558 11.3903645,13.3521138 11.8102221,13.5449357 C12.3732131,13.8058666 13.1575835,13.997308 14.1003548,13.9821215 C14.7015146,13.9775196 15.1958016,13.8118492 15.5908495,13.561963 C15.9978252,13.3180593 16.3174895,12.9931613 16.5660643,12.6645816 C16.8265669,12.342905 17.0107318,12.0138651 17.1323951,11.7635188 C17.2640777,11.5196151 17.3275335,11.3525641 17.3275335,11.3525641 C17.3275335,11.3525641 17.0026209,11.3949021 16.4281793,11.3797157 C15.8608943,11.3691312 15.0364465,11.302863 14.0192459,11.0718448 C13.426197,10.9356269 12.9342956,10.9775047 12.5139608,11.1082003 C12.170918,11.2154258 11.8860828,11.3870788 11.6570695,11.5812813 C11.6604093,11.5752988 11.663749,11.5693162 11.6670888,11.5633337 C12.1461082,10.7055292 12.6361012,9.9158336 13.1189375,9.19470717 C13.2329671,9.39167087 13.4824961,9.65490272 13.864662,9.89420441 C14.3446356,10.1965529 15.0235645,10.4547226 15.8971547,10.5527442 C16.4482179,10.615791 16.9071987,10.5085655 17.3074948,10.3249474 C17.7144705,10.1454712 18.039383,9.87349561 18.3118134,9.59783847 C18.5899691,9.32678329 18.800375,9.04192224 18.942077,8.82286916 C19.0122123,8.71334262 19.0694656,8.62360449 19.109543,8.56101789 C19.1467576,8.49705071 19.1677505,8.46115546 19.1677505,8.46115546 C19.1677505,8.46115546 19.092367,8.46391663 18.950665,8.4570137 C18.8075317,8.44919037 18.6009427,8.43446411 18.3433027,8.40317082 C17.8246831,8.33828324 17.0784815,8.19608282 16.1791273,7.87992847 C15.6519197,7.69262888 15.2020041,7.6806638 14.8050477,7.75475528 C14.4128625,7.83252833 14.0717281,7.99543756 13.8169509,8.19332164 C13.8150424,8.19516243 13.8136111,8.19700321 13.8112256,8.19838379 C13.8202907,8.18641871 13.8288787,8.17353323 13.8379438,8.16110795 C14.2015023,7.6802036 14.5488391,7.23335372 14.8842481,6.831603 C15.115647,6.56883134 15.3289156,6.31802476 15.5364588,6.08562601 C15.6118424,6.27660716 15.8098434,6.54858273 16.1409585,6.81319518 C16.5417317,7.13487187 17.1252384,7.43583976 17.9024522,7.60427133 C18.3943536,7.71287749 18.8323415,7.66317637 19.2121218,7.52741868 C19.587131,7.38705903 19.9363763,7.18457299 20.2088066,6.95079365 C20.3476459,6.83620495 20.468355,6.71471333 20.5785677,6.60242561 C20.6911658,6.49197868 20.7875423,6.3865939 20.8657885,6.29409459 C21.0222809,6.10955617 21.1076837,5.97932083 21.1076837,5.97932083 C21.1076837,5.97932083 20.8323907,5.96781594 20.3619593,5.86289136 C20.1267436,5.81042906 19.8414312,5.7344968 19.5179499,5.62681104 C19.1987627,5.52326704 18.8394981,5.38658896 18.4506527,5.2061923 C17.5994867,4.81088432 16.8704611,4.94480123 16.3709259,5.22183895 C16.4725506,5.12059593 16.5713126,5.02349467 16.663395,4.93329634 C16.9119698,4.70273837 17.131918,4.51543878 17.308449,4.36173346 C17.4873656,4.21078932 17.6242965,4.09528024 17.716856,4.01704699 C17.8098927,3.93973414 17.8604664,3.9024583 17.8604664,3.9024583 C17.8762111,3.89095341 17.8924329,3.87622715 17.9062691,3.86150089 C17.9243993,3.84125229 17.9391897,3.81824251 17.9506404,3.79477254 C18.2550372,3.83711053 18.5436893,3.85551835 18.8108715,3.82514544 C19.2221411,3.78050648 19.5856997,3.62542057 19.948304,3.33457698 C20.3104313,3.042813 20.5308566,2.59458253 20.7226552,2.12610346 C20.9092056,1.65210204 21.0361171,1.12517813 21.1568262,0.63967182 C20.7298118,0.628166931 20.1663438,0.635990256 19.6052613,0.726188584 C19.4654677,0.748738166 19.3251971,0.7763499 19.1882663,0.809944175 C19.0541981,0.847220015 18.9225154,0.890938593 18.796081,0.940639712 C18.5436893,1.04050215 18.3113363,1.16751612 18.1190606,1.32628359 C17.7302151,1.63921656 17.5412792,2.01335555 17.4534908,2.41004412 C17.3976688,2.67511676 17.3895579,2.95307487 17.4076881,3.24713983 C17.3618854,3.26508746 17.3203768,3.29269919 17.2860248,3.32997503 C17.2860248,3.32997503 17.2435619,3.37691498 17.1634073,3.47033467 C17.0813442,3.56191359 16.9596809,3.69813147 16.80128,3.87530676 C16.6400165,4.04926068 16.4410613,4.264172 16.207754,4.51635917 C16.1027896,4.63601001 15.9897143,4.76394438 15.8694823,4.89832148 C16.1333247,4.36909659 16.3256004,3.65119153 15.915285,2.75012863 C15.7387539,2.36264397 15.6161364,1.99586812 15.5321648,1.66314673 C15.4515331,1.33410691 15.4109787,1.04050215 15.3918942,0.793837331 C15.3537253,0.300507697 15.4004822,0 15.4004822,0 C15.4004822,0 15.2325392,0.0971012619 14.9849186,0.275657137 C14.8608697,0.364935074 14.7172593,0.474001421 14.5650609,0.601935785 C14.4147709,0.731710931 14.2616183,0.88495605 14.1089428,1.05154684 C13.80884,1.38979057 13.5073059,1.77497425 13.3412712,2.22458531 C13.1709426,2.66913421 13.1089182,3.14773759 13.2453719,3.63186331 C13.4629345,4.40315106 13.8737271,4.92869438 14.2597099,5.25911479 C14.5960731,5.54581662 14.9200315,5.69169861 15.1247121,5.72529289 C14.9143061,5.96597516 14.6953122,6.22414487 14.4548483,6.49335927 C14.109897,6.89833135 13.7468156,7.34426085 13.3603557,7.82194383 C13.3326832,7.8559983 13.3045337,7.89235375 13.2773384,7.92778881 C13.2897433,7.8974159 13.3031024,7.86888378 13.3150301,7.83759048 C13.4281054,7.53202063 13.5254361,7.1831924 13.5101685,6.78190188 C13.5001492,6.38429292 13.3803943,5.93330128 13.1108266,5.46666299 C12.639441,4.66086057 12.4190157,3.91534377 12.3192995,3.37047224 C12.2672944,3.09665588 12.2501184,2.8771426 12.2458244,2.72711885 C12.2410533,2.57663491 12.2463016,2.49287932 12.2463016,2.49287932 C12.2463016,2.49287932 12.2028845,2.525093 12.1251154,2.58261745 C12.0487776,2.64198268 11.9371336,2.72619846 11.8135619,2.84308813 C11.5635557,3.07318591 11.2357805,3.4049869 10.9294753,3.80443664 C10.6293725,4.20894854 10.365053,4.69307426 10.2181028,5.196068 C10.077355,5.70458409 10.0759237,6.24853523 10.2853754,6.76487464 C10.6155362,7.58448293 11.1341559,8.10910586 11.6007704,8.42433981 C11.9972496,8.69033284 12.3608082,8.80906329 12.5907757,8.82609053 C12.0611825,9.54261501 11.5201386,10.33093 10.9857743,11.1924161 C10.9700297,11.2191074 10.9533308,11.2467191 10.9380633,11.2738707 C11.0010419,10.9563357 11.0330083,10.603826 10.9752779,10.2214034 C10.9099137,9.79066041 10.7224091,9.31803958 10.3640987,8.84265757 C9.74433159,8.02581046 9.40844546,7.23979646 9.23048307,6.6558083 C9.05967734,6.0764221 9.04631823,5.70596467 9.04631823,5.70596467 C9.04631823,5.70596467 8.86787872,5.86611273 8.61405568,6.14453104 C8.36929775,6.42939208 8.05488162,6.83712535 7.77195481,7.31618892 C7.50143289,7.80261562 7.26812562,8.3631338 7.18081431,8.93745785 C7.10495366,9.51868484 7.16506965,10.1054342 7.46755801,10.6406416 C7.95802809,11.4961451 8.58638325,11.987634 9.14030909,12.2655921 C9.56875475,12.4786626 9.95092064,12.5633386 10.2066521,12.56656 C10.0868973,12.7920558 9.96714241,13.0198526 9.85025022,13.2531718 C9.67753605,13.620868 9.50434477,13.9959274 9.33783304,14.3797305 C9.18372619,14.7690559 9.0234169,15.1625231 8.87408117,15.5656544 C8.83925207,15.6586139 8.80823985,15.7561754 8.77484208,15.8495951 C8.77913608,15.811859 8.78581564,15.7759638 8.78915541,15.7368472 C8.86119917,14.9756837 8.71663454,13.9968478 7.7977188,13.0750761 C7.39933114,12.6788477 7.07823545,12.2807786 6.82107263,11.9047988 C6.56629537,11.5292792 6.3849932,11.1809112 6.24806235,10.8790229 C5.9765862,10.2757065 5.90120267,9.87119463 5.90120267,9.87119463 C5.90120267,9.87119463 5.73612227,10.0736807 5.50901745,10.4169866 C5.39546503,10.5886395 5.26664507,10.7952673 5.13543955,11.0290466 C5.01234492,11.2665076 4.88781895,11.5315802 4.77522076,11.8141403 C4.54095927,12.376039 4.39591754,13.0285963 4.38589821,13.6618254 C4.39257776,14.3014972 4.5552726,14.929204 4.96749649,15.4593492 C5.63211208,16.3065693 6.38785587,16.7359317 7.0281388,16.9476217 C7.61212263,17.139063 8.09877583,17.1478067 8.35546153,17.0783172 C7.98474631,18.2246643 7.64027218,19.4156504 7.2671714,20.6379298 C7.20848675,19.8160206 6.89454772,18.8022097 5.75950071,17.9609723 C4.78237743,17.2412264 4.12682695,16.4533716 3.74800083,15.8491349 C3.36154094,15.2430573 3.21697631,14.8192172 3.21697631,14.8192172 C3.21697631,14.8192172 3.07241169,15.0626607 2.88442996,15.468093 C2.6902458,15.8707641 2.47602297,16.4437075 2.32621012,17.0889017 C2.03517242,18.3802104 2.07286419,19.9743278 3.15256633,20.9784745 C3.9941901,21.7746128 4.89068162,22.1100954 5.60539386,22.2288258 C6.13355572,22.3144222 6.57345204,22.2849697 6.86067284,22.2090374 C6.77240731,22.6393203 6.68748156,23.0737449 6.64167891,23.5159928 C6.57870026,23.9959768 6.59205936,24.4865452 6.58728825,24.9748127 C6.59873892,25.3089147 6.5891967,25.6416361 6.57536048,25.9752778 C6.56724959,25.9393826 6.56200137,25.9053281 6.55245915,25.8689727 C6.34968699,25.0065662 5.82725047,23.9761884 4.48418307,23.2619649 C3.31287562,22.6517456 2.50751229,21.9168133 1.99127821,21.3282231 C1.72934429,21.033698 1.55567589,20.77967 1.43639815,20.598353 C1.31902885,20.4170359 1.26416109,20.3102706 1.26416109,20.3102706 C1.26416109,20.3102706 1.14488334,20.5932908 1.01033805,21.0580884 C0.886766303,21.5247266 0.734090791,22.1713014 0.696876134,22.8915074 C0.600499717,24.3268574 0.940202733,26.0498295 2.26227725,26.9412283 C3.31526118,27.6513101 4.30622067,27.8445922 5.09059112,27.8422912 C5.73993916,27.8367689 6.24281413,27.6954888 6.52001561,27.5417835 C6.49282028,28.6642005 6.50093117,29.8018039 6.61686913,30.9421685 C6.16838482,30.1929701 5.43363391,29.4193814 4.11633051,28.9812752 C2.77374022,28.543169 1.77228428,27.8896914 1.1300929,27.3448198 C0.476450863,26.7981075 0.177302281,26.3705858 0.177302281,26.3705858 C0.177302281,26.3705858 0.160603396,26.4529608 0.131976738,26.599303 C0.103350079,26.7461054 0.0737691986,26.9605565 0.0489594278,27.225169 C-0.00590833454,27.7525531 -0.0321494383,28.4851844 0.065658312,29.2845441 C0.116232076,29.684454 0.189707166,30.0981698 0.314710242,30.5118856 C0.430648209,30.9214597 0.59715994,31.3328745 0.803748993,31.7134562 C1.00652116,32.0921972 1.27322619,32.4543711 1.57046633,32.7544186 C1.88106558,33.061369 2.23603615,33.3190785 2.63585514,33.4893509 C3.90831012,33.9693348 4.98944359,33.9389619 5.8024407,33.7539633 C6.32964833,33.6320115 6.74187221,33.4442517 7.01668813,33.2610939 C7.26907984,34.3540583 7.58111042,35.4345975 7.99953675,36.4677365 C7.76670659,36.2293552 7.49523044,35.9997176 7.16650098,35.8009131 C6.6283198,35.4608286 5.93794021,35.2012783 5.06673557,35.1156819 C4.320534,35.0420507 3.64923886,34.8998502 3.06143814,34.7249759 C2.47363741,34.5501016 1.98364444,34.3384117 1.57810011,34.1373062 C1.37675928,34.0365234 1.19784266,33.9385017 1.04373581,33.847383 C0.889151858,33.7493613 0.758900561,33.6435164 0.653936146,33.5611414 C0.444007317,33.3927098 0.335226014,33.285024 0.335226014,33.285024 C0.335226014,33.285024 0.341428457,33.3848865 0.352402009,33.5634423 C0.360035785,33.6527203 0.370055115,33.7617866 0.381028668,33.8878802 C0.394387775,34.0153544 0.409178215,34.1267217 0.429216876,34.2675415 C0.468817087,34.5413579 0.523207739,34.8648754 0.60193105,35.2178454 C0.688288137,35.5680542 0.79754655,35.9481757 0.934954512,36.3365807 C1.49317435,37.8879 2.62917559,39.5307981 4.4202502,39.8925118 C5.82725047,40.1884175 6.97327103,39.9666033 7.78769947,39.6380237 C8.42893662,39.3761724 8.87598961,39.0425306 9.10881977,38.7737764 C9.21950951,39.0020334 9.32829082,39.2307506 9.42991545,39.4613086 C9.64652384,39.9026361 9.83498267,40.3540879 10.0477742,40.7921941 C10.2557946,41.2510091 10.4724029,41.7033813 10.6956909,42.1493108 C9.91513732,41.5349497 8.80537719,41.0232123 7.23663629,41.1101892 C5.63974585,41.2109721 4.32816778,40.9541829 3.40972915,40.6661005 C2.50178696,40.3743365 1.98841555,40.0641647 1.98841555,40.0641647 C1.98841555,40.0641647 2.06093642,40.4286396 2.23365059,40.991919 C2.31619079,41.2749392 2.44167098,41.6002975 2.58766694,41.9560287 C2.73223156,42.3131404 2.91878195,42.6923415 3.13777589,43.074764 C3.57051555,43.8414498 4.15879338,44.6127376 4.88400207,45.2017879 C5.61064208,45.7899178 6.46991895,46.1939695 7.4413169,46.2353871 C8.97141181,46.3085582 10.1260204,45.8782754 10.9146848,45.3918487 C11.4175598,45.0789157 11.7782557,44.7388312 11.9996352,44.4498284 C12.2849475,44.8897753 12.5831419,45.3159164 12.9056689,45.7167467 C13.1890728,46.0812216 13.5030119,46.4171644 13.7973893,46.7581693 C13.9739204,46.9491504 14.1461575,47.1355296 14.3198259,47.3237496 C13.3842112,46.8115519 12.1222527,46.4530596 10.4762198,46.8133927 C9.64986361,47.0006923 8.88934872,47.0780052 8.19992336,47.0922712 C7.50858955,47.1079179 6.90122728,47.054075 6.39978364,46.9749214 C5.38783126,46.8198355 4.80480164,46.5704095 4.80480164,46.5704095 C4.80480164,46.5704095 4.93600716,46.9477698 5.22990753,47.5087482 C5.51617411,48.0724878 5.96274999,48.8235269 6.57058937,49.5603 C6.87403195,49.9289166 7.21278075,50.2956925 7.59494664,50.6279537 C7.96900164,50.9648168 8.38599664,51.2676255 8.82732429,51.5170515 C9.70902538,52.0168239 10.6999849,52.2929412 11.7252964,52.1645466 C12.5335224,52.0679056 13.2157911,51.8502331 13.7868929,51.5754963 C14.3565634,51.30168 14.8117273,50.9740207 15.1714689,50.6436003 C15.7158526,50.1401464 16.0436278,49.6348517 16.1843756,49.2666952 C16.8904998,49.953307 17.596624,50.5906778 18.2812783,51.1843301 C18.701136,51.5409817 19.1147912,51.8801458 19.5212897,52.2032031 C18.4110525,51.8598972 16.9921244,51.711254 15.2993347,52.4484873 C14.4934943,52.8019175 13.705784,53.0425997 12.9939345,53.1871012 C12.2839933,53.3311424 11.6308284,53.3928086 11.0864448,53.4043135 C10.5454009,53.4139776 10.1040733,53.3799231 9.79919935,53.344488 C9.49241699,53.3095132 9.32685948,53.2708567 9.32685948,53.2708567 C9.32685948,53.2708567 9.38268147,53.3642764 9.49623388,53.5230439 C9.60835496,53.6827318 9.77438958,53.9105286 9.98908952,54.1825041 C10.4218292,54.7241543 11.070223,55.4337758 11.8903768,56.0964574 C12.3011693,56.4264177 12.7582416,56.7421118 13.2391695,57.0223709 C13.7334565,57.2934261 14.2349001,57.5419317 14.7754668,57.7066817 C15.3088769,57.876954 15.850875,57.9860204 16.3995526,57.9975253 C16.9425049,58.0145525 17.4792547,57.9446028 18.0012142,57.7600644 C19.6424759,57.1903423 20.601469,56.2289938 21.1568262,55.3803932 C21.5261101,54.8083701 21.7202942,54.278685 21.792338,53.8787751 C22.0022668,54.0182143 22.2083787,54.1548924 22.4068569,54.2865083 C22.6621113,54.4425146 22.9083006,54.5925384 23.1444705,54.7370398 C23.3801633,54.883382 23.6201501,55.0016522 23.842961,55.1263652 C24.066726,55.248317 24.2804717,55.3661271 24.4904005,55.4650691 C24.9059642,55.6707766 25.2804963,55.8488722 25.6168596,55.9823289 C25.949883,56.123609 26.2361496,56.2381977 26.4737509,56.3164309 C26.710875,56.3969651 26.8926543,56.4590915 27.0147947,56.5009693 C27.1369351,56.5428471 27.2022993,56.558954 27.2022993,56.558954 C27.7280756,56.700234 28.2772304,56.375336 28.4365854,55.8208003 C28.5992803,55.2556802 28.3449801,54.6785949 27.8697776,54.5345537" id="Page-1" fill="#D6BD82"></path>
                <path d="M122.869778,54.5345537 C122.869778,54.5345537 122.81157,54.5179867 122.70088,54.4793303 C122.589236,54.4429748 122.423679,54.3891319 122.207548,54.3191822 C121.989508,54.255215 121.725665,54.1613351 121.414112,54.052729 C121.099696,53.9510258 120.745202,53.8152681 120.345383,53.6657045 C120.143565,53.5957548 119.936976,53.5078575 119.718937,53.4167387 C119.502328,53.323319 119.269021,53.2386431 119.037145,53.1254349 C118.801929,53.0186696 118.556694,52.9073023 118.302394,52.7917932 C118.105347,52.6933113 117.900667,52.5911479 117.692169,52.4871437 C118.017082,52.2344964 118.394477,51.8212407 118.736088,51.2510585 C119.268544,50.3762267 119.7051,49.1590095 119.940793,47.6794808 C120.236602,45.8230519 119.546223,44.6546154 118.754695,43.780704 C118.359648,43.3481202 117.934065,43.0057347 117.605335,42.7622913 C117.44264,42.6389589 117.301415,42.5455392 117.201222,42.4824924 C117.099597,42.4199058 117.042821,42.3849309 117.042821,42.3849309 C117.042821,42.3849309 117.022305,42.5082633 116.968869,42.7346795 C116.914955,42.9620161 116.825736,43.2970385 116.688328,43.7291621 C116.553305,44.1580644 116.377729,44.6762446 116.138696,45.2860037 C115.901095,45.893922 115.615305,46.5750114 115.246498,47.3357147 C114.498866,48.8695465 114.756983,50.1654571 115.319974,51.0748036 C114.932082,50.8078901 114.540851,50.5207281 114.150574,50.2073349 C113.473077,49.6698265 112.804644,49.0559257 112.146708,48.3845004 C112.526489,48.2464417 113.034612,47.9344291 113.54846,47.4272936 C113.897229,47.0853683 114.249814,46.6569262 114.578543,46.1470296 C114.905841,45.6394339 115.213101,45.046702 115.482668,44.3752767 C116.151578,42.6932619 115.694029,41.3678987 115.087143,40.3481054 C114.781792,39.8423505 114.434456,39.4185104 114.164888,39.1143211 C113.888641,38.815194 113.695411,38.6343371 113.695411,38.6343371 C113.695411,38.6343371 113.531284,39.0899307 113.12908,39.8543156 C112.924399,40.2399594 112.661034,40.7042968 112.33135,41.2303003 C111.999758,41.7576844 111.590397,42.3554784 111.106129,42.9914687 C110.139025,44.2468821 110.092746,45.4521343 110.380921,46.3996769 C110.246375,46.223422 110.113261,46.0439458 109.976808,45.8653899 C109.73205,45.5101189 109.472978,45.1599101 109.227266,44.794975 C108.94434,44.3987467 108.657596,43.9969959 108.368467,43.5915637 C108.724868,43.4999847 109.174784,43.3062424 109.653326,42.9868667 C110.432926,42.4714477 111.269778,41.6371131 112.00119,40.4608533 C112.913903,38.9854664 112.685367,37.6242079 112.273143,36.5491911 C112.168655,36.2813573 112.046992,36.0351527 111.934394,35.8096568 C111.81941,35.5850814 111.692976,35.3908789 111.594214,35.2233677 C111.389533,34.8911065 111.225407,34.6941428 111.225407,34.6941428 C111.225407,34.6941428 111.012616,35.0972741 110.507832,35.7622567 C110.014499,36.4230975 109.236331,37.3572945 108.1218,38.4051598 C107.022059,39.4249531 106.775393,40.5317234 106.874632,41.4580971 C106.61413,41.0710726 106.359352,40.6757646 106.121751,40.267111 C105.873176,39.8639797 105.65943,39.4396794 105.442345,39.0149189 C105.342152,38.7958658 105.241481,38.5763525 105.146536,38.3540781 C105.509618,38.3623616 106.052093,38.259738 106.668043,37.9854614 C107.480563,37.6274293 108.396616,36.9813147 109.268775,35.9918943 C110.355157,34.7498265 110.35468,33.4263041 110.13998,32.35773 C110.089883,32.0898962 110.018793,31.84001 109.940547,31.6145142 C109.869935,31.3876378 109.793597,31.1851517 109.720122,31.0157998 C109.68577,30.9348053 109.645216,30.8464478 109.619929,30.7958263 C109.594642,30.7438242 109.570786,30.6991852 109.55027,30.6623696 C109.509716,30.5896587 109.482998,30.5491615 109.482998,30.5491615 C109.482998,30.5491615 109.412862,30.6195714 109.266867,30.7479659 C109.194823,30.8146943 109.100355,30.8874052 108.993005,30.9891084 C108.888995,31.0977146 108.766854,31.221047 108.625152,31.3572649 C108.34318,31.6297006 107.976758,31.9550589 107.540679,32.3126308 C107.105077,32.6702028 106.586934,33.0632098 105.978618,33.4695624 C105.272493,33.9421833 104.843571,34.4856742 104.592133,35.0397497 C104.461405,35.3425584 104.384113,35.6481282 104.346898,35.9440339 C104.022463,34.9467902 103.686099,33.9504668 103.390291,32.9394172 C103.717589,32.9670289 104.159871,32.9338948 104.667517,32.7995177 C105.474311,32.5892084 106.445232,32.1225701 107.398023,31.3360959 C107.709099,31.1064583 107.960537,30.8818828 108.157106,30.6508647 C108.364173,30.409262 108.506829,30.1773235 108.625629,29.9278975 C108.741567,29.6807725 108.814565,29.4354882 108.868956,29.1833011 C108.915713,28.9370964 108.945294,28.6862899 108.951496,28.4469882 C108.980123,27.493463 108.745384,26.6513051 108.745384,26.6513051 C108.745384,26.6513051 108.417132,26.9067137 107.780189,27.2776313 C107.133226,27.6503897 106.180436,28.1478611 104.893667,28.6444121 C103.652702,29.1170329 103.063947,29.9348004 102.836365,30.719894 C102.623096,29.6752501 102.476623,28.6103576 102.421278,27.5445447 C102.706113,27.679382 103.197538,27.7833862 103.826847,27.7585356 C104.606924,27.7323045 105.59836,27.5045077 106.643233,26.994611 C107.971033,26.3517178 108.437171,25.2909671 108.643282,24.3438846 C108.736796,23.8712638 108.776396,23.429476 108.774011,23.1008964 C108.781645,22.7736974 108.762083,22.5620074 108.762083,22.5620074 C108.762083,22.5620074 108.677157,22.6121687 108.509214,22.6940835 C108.343657,22.7764586 108.086017,22.8892065 107.76349,23.0203622 C107.112233,23.2808329 106.134156,23.6121737 104.868858,23.8744851 C103.381226,24.1731521 102.69848,25.0755955 102.407919,25.8961242 C102.424618,25.608502 102.455153,25.3218002 102.497616,25.0373993 C102.58445,24.5679998 102.664128,24.1032023 102.7314,23.6397854 C102.781497,23.2154851 102.830639,22.7944062 102.879782,22.375168 C103.133128,22.5247316 103.534855,22.669233 104.051089,22.7368817 C104.778206,22.8349034 105.707142,22.7773789 106.766328,22.4547819 C108.086494,22.0465884 108.702921,21.1041079 109.033559,20.2398607 C109.203888,19.8095778 109.288814,19.3949416 109.350838,19.089832 C109.405706,18.7828815 109.413817,18.5803955 109.413817,18.5803955 C109.413817,18.5803955 109.075545,18.7235163 108.42906,18.8786022 C107.776372,19.0313871 106.844574,19.2136246 105.627464,19.2785121 C104.260064,19.3489221 103.487144,20.0424368 103.085894,20.7368719 C103.2567,19.5311595 103.577318,18.3811308 103.969503,17.2932285 C104.146034,17.4911126 104.540128,17.7386978 105.105982,17.9043682 C105.752944,18.0962698 106.627012,18.1800254 107.63467,18.0240191 C108.27877,17.929679 108.774965,17.6807132 109.159517,17.3599569 C109.560767,17.0461035 109.829857,16.6503353 110.058394,16.2743556 C110.168129,16.084755 110.257349,15.8960748 110.32987,15.7193597 C110.409547,15.545866 110.472049,15.3838772 110.51976,15.2444379 C110.615182,14.9660196 110.652397,14.7782598 110.652397,14.7782598 C110.652397,14.7782598 110.31985,14.8693785 109.7039,14.9305846 C109.397118,14.962338 109.013521,14.9853478 108.574579,14.9917906 C108.137068,14.9991537 107.634193,14.9862682 107.07311,14.9356467 C105.762486,14.8136949 104.948058,15.3847976 104.481443,15.9862732 C104.505299,15.9301293 104.5282,15.8735252 104.551579,15.8178416 C104.720476,15.4317375 104.89987,15.0557577 105.067336,14.6825392 C105.246729,14.3143827 105.426123,13.9531292 105.594066,13.5941767 C105.708573,13.369141 105.81974,13.1514685 105.931861,12.9314951 C106.093124,13.1215558 106.390364,13.3521138 106.810222,13.5449357 C107.373213,13.8058666 108.157584,13.997308 109.100355,13.9821215 C109.701515,13.9775196 110.195802,13.8118492 110.590849,13.561963 C110.997825,13.3180593 111.31749,12.9931613 111.566064,12.6645816 C111.826567,12.342905 112.010732,12.0138651 112.132395,11.7635188 C112.264078,11.5196151 112.327533,11.3525641 112.327533,11.3525641 C112.327533,11.3525641 112.002621,11.3949021 111.428179,11.3797157 C110.860894,11.3691312 110.036447,11.302863 109.019246,11.0718448 C108.426197,10.9356269 107.934296,10.9775047 107.513961,11.1082003 C107.170918,11.2154258 106.886083,11.3870788 106.657069,11.5812813 C106.660409,11.5752988 106.663749,11.5693162 106.667089,11.5633337 C107.146108,10.7055292 107.636101,9.9158336 108.118938,9.19470717 C108.232967,9.39167087 108.482496,9.65490272 108.864662,9.89420441 C109.344636,10.1965529 110.023565,10.4547226 110.897155,10.5527442 C111.448218,10.615791 111.907199,10.5085655 112.307495,10.3249474 C112.71447,10.1454712 113.039383,9.87349561 113.311813,9.59783847 C113.589969,9.32678329 113.800375,9.04192224 113.942077,8.82286916 C114.012212,8.71334262 114.069466,8.62360449 114.109543,8.56101789 C114.146758,8.49705071 114.16775,8.46115546 114.16775,8.46115546 C114.16775,8.46115546 114.092367,8.46391663 113.950665,8.4570137 C113.807532,8.44919037 113.600943,8.43446411 113.343303,8.40317082 C112.824683,8.33828324 112.078482,8.19608282 111.179127,7.87992847 C110.65192,7.69262888 110.202004,7.6806638 109.805048,7.75475528 C109.412862,7.83252833 109.071728,7.99543756 108.816951,8.19332164 C108.815042,8.19516243 108.813611,8.19700321 108.811226,8.19838379 C108.820291,8.18641871 108.828879,8.17353323 108.837944,8.16110795 C109.201502,7.6802036 109.548839,7.23335372 109.884248,6.831603 C110.115647,6.56883134 110.328916,6.31802476 110.536459,6.08562601 C110.611842,6.27660716 110.809843,6.54858273 111.140958,6.81319518 C111.541732,7.13487187 112.125238,7.43583976 112.902452,7.60427133 C113.394354,7.71287749 113.832341,7.66317637 114.212122,7.52741868 C114.587131,7.38705903 114.936376,7.18457299 115.208807,6.95079365 C115.347646,6.83620495 115.468355,6.71471333 115.578568,6.60242561 C115.691166,6.49197868 115.787542,6.3865939 115.865788,6.29409459 C116.022281,6.10955617 116.107684,5.97932083 116.107684,5.97932083 C116.107684,5.97932083 115.832391,5.96781594 115.361959,5.86289136 C115.126744,5.81042906 114.841431,5.7344968 114.51795,5.62681104 C114.198763,5.52326704 113.839498,5.38658896 113.450653,5.2061923 C112.599487,4.81088432 111.870461,4.94480123 111.370926,5.22183895 C111.472551,5.12059593 111.571313,5.02349467 111.663395,4.93329634 C111.91197,4.70273837 112.131918,4.51543878 112.308449,4.36173346 C112.487366,4.21078932 112.624296,4.09528024 112.716856,4.01704699 C112.809893,3.93973414 112.860466,3.9024583 112.860466,3.9024583 C112.876211,3.89095341 112.892433,3.87622715 112.906269,3.86150089 C112.924399,3.84125229 112.93919,3.81824251 112.95064,3.79477254 C113.255037,3.83711053 113.543689,3.85551835 113.810871,3.82514544 C114.222141,3.78050648 114.5857,3.62542057 114.948304,3.33457698 C115.310431,3.042813 115.530857,2.59458253 115.722655,2.12610346 C115.909206,1.65210204 116.036117,1.12517813 116.156826,0.63967182 C115.729812,0.628166931 115.166344,0.635990256 114.605261,0.726188584 C114.465468,0.748738166 114.325197,0.7763499 114.188266,0.809944175 C114.054198,0.847220015 113.922515,0.890938593 113.796081,0.940639712 C113.543689,1.04050215 113.311336,1.16751612 113.119061,1.32628359 C112.730215,1.63921656 112.541279,2.01335555 112.453491,2.41004412 C112.397669,2.67511676 112.389558,2.95307487 112.407688,3.24713983 C112.361885,3.26508746 112.320377,3.29269919 112.286025,3.32997503 C112.286025,3.32997503 112.243562,3.37691498 112.163407,3.47033467 C112.081344,3.56191359 111.959681,3.69813147 111.80128,3.87530676 C111.640017,4.04926068 111.441061,4.264172 111.207754,4.51635917 C111.10279,4.63601001 110.989714,4.76394438 110.869482,4.89832148 C111.133325,4.36909659 111.3256,3.65119153 110.915285,2.75012863 C110.738754,2.36264397 110.616136,1.99586812 110.532165,1.66314673 C110.451533,1.33410691 110.410979,1.04050215 110.391894,0.793837331 C110.353725,0.300507697 110.400482,0 110.400482,0 C110.400482,0 110.232539,0.0971012619 109.984919,0.275657137 C109.86087,0.364935074 109.717259,0.474001421 109.565061,0.601935785 C109.414771,0.731710931 109.261618,0.88495605 109.108943,1.05154684 C108.80884,1.38979057 108.507306,1.77497425 108.341271,2.22458531 C108.170943,2.66913421 108.108918,3.14773759 108.245372,3.63186331 C108.462935,4.40315106 108.873727,4.92869438 109.25971,5.25911479 C109.596073,5.54581662 109.920031,5.69169861 110.124712,5.72529289 C109.914306,5.96597516 109.695312,6.22414487 109.454848,6.49335927 C109.109897,6.89833135 108.746816,7.34426085 108.360356,7.82194383 C108.332683,7.8559983 108.304534,7.89235375 108.277338,7.92778881 C108.289743,7.8974159 108.303102,7.86888378 108.31503,7.83759048 C108.428105,7.53202063 108.525436,7.1831924 108.510169,6.78190188 C108.500149,6.38429292 108.380394,5.93330128 108.110827,5.46666299 C107.639441,4.66086057 107.419016,3.91534377 107.3193,3.37047224 C107.267294,3.09665588 107.250118,2.8771426 107.245824,2.72711885 C107.241053,2.57663491 107.246302,2.49287932 107.246302,2.49287932 C107.246302,2.49287932 107.202884,2.525093 107.125115,2.58261745 C107.048778,2.64198268 106.937134,2.72619846 106.813562,2.84308813 C106.563556,3.07318591 106.235781,3.4049869 105.929475,3.80443664 C105.629372,4.20894854 105.365053,4.69307426 105.218103,5.196068 C105.077355,5.70458409 105.075924,6.24853523 105.285375,6.76487464 C105.615536,7.58448293 106.134156,8.10910586 106.60077,8.42433981 C106.99725,8.69033284 107.360808,8.80906329 107.590776,8.82609053 C107.061182,9.54261501 106.520139,10.33093 105.985774,11.1924161 C105.97003,11.2191074 105.953331,11.2467191 105.938063,11.2738707 C106.001042,10.9563357 106.033008,10.603826 105.975278,10.2214034 C105.909914,9.79066041 105.722409,9.31803958 105.364099,8.84265757 C104.744332,8.02581046 104.408445,7.23979646 104.230483,6.6558083 C104.059677,6.0764221 104.046318,5.70596467 104.046318,5.70596467 C104.046318,5.70596467 103.867879,5.86611273 103.614056,6.14453104 C103.369298,6.42939208 103.054882,6.83712535 102.771955,7.31618892 C102.501433,7.80261562 102.268126,8.3631338 102.180814,8.93745785 C102.104954,9.51868484 102.16507,10.1054342 102.467558,10.6406416 C102.958028,11.4961451 103.586383,11.987634 104.140309,12.2655921 C104.568755,12.4786626 104.950921,12.5633386 105.206652,12.56656 C105.086897,12.7920558 104.967142,13.0198526 104.85025,13.2531718 C104.677536,13.620868 104.504345,13.9959274 104.337833,14.3797305 C104.183726,14.7690559 104.023417,15.1625231 103.874081,15.5656544 C103.839252,15.6586139 103.80824,15.7561754 103.774842,15.8495951 C103.779136,15.811859 103.785816,15.7759638 103.789155,15.7368472 C103.861199,14.9756837 103.716635,13.9968478 102.797719,13.0750761 C102.399331,12.6788477 102.078235,12.2807786 101.821073,11.9047988 C101.566295,11.5292792 101.384993,11.1809112 101.248062,10.8790229 C100.976586,10.2757065 100.901203,9.87119463 100.901203,9.87119463 C100.901203,9.87119463 100.736122,10.0736807 100.509017,10.4169866 C100.395465,10.5886395 100.266645,10.7952673 100.13544,11.0290466 C100.012345,11.2665076 99.887819,11.5315802 99.7752208,11.8141403 C99.5409593,12.376039 99.3959175,13.0285963 99.3858982,13.6618254 C99.3925778,14.3014972 99.5552726,14.929204 99.9674965,15.4593492 C100.632112,16.3065693 101.387856,16.7359317 102.028139,16.9476217 C102.612123,17.139063 103.098776,17.1478067 103.355462,17.0783172 C102.984746,18.2246643 102.640272,19.4156504 102.267171,20.6379298 C102.208487,19.8160206 101.894548,18.8022097 100.759501,17.9609723 C99.7823774,17.2412264 99.1268269,16.4533716 98.7480008,15.8491349 C98.3615409,15.2430573 98.2169763,14.8192172 98.2169763,14.8192172 C98.2169763,14.8192172 98.0724117,15.0626607 97.88443,15.468093 C97.6902458,15.8707641 97.476023,16.4437075 97.3262101,17.0889017 C97.0351724,18.3802104 97.0728642,19.9743278 98.1525663,20.9784745 C98.9941901,21.7746128 99.8906816,22.1100954 100.605394,22.2288258 C101.133556,22.3144222 101.573452,22.2849697 101.860673,22.2090374 C101.772407,22.6393203 101.687482,23.0737449 101.641679,23.5159928 C101.5787,23.9959768 101.592059,24.4865452 101.587288,24.9748127 C101.598739,25.3089147 101.589197,25.6416361 101.57536,25.9752778 C101.56725,25.9393826 101.562001,25.9053281 101.552459,25.8689727 C101.349687,25.0065662 100.82725,23.9761884 99.4841831,23.2619649 C98.3128756,22.6517456 97.5075123,21.9168133 96.9912782,21.3282231 C96.7293443,21.033698 96.5556759,20.77967 96.4363981,20.598353 C96.3190288,20.4170359 96.2641611,20.3102706 96.2641611,20.3102706 C96.2641611,20.3102706 96.1448833,20.5932908 96.010338,21.0580884 C95.8867663,21.5247266 95.7340908,22.1713014 95.6968761,22.8915074 C95.6004997,24.3268574 95.9402027,26.0498295 97.2622772,26.9412283 C98.3152612,27.6513101 99.3062207,27.8445922 100.090591,27.8422912 C100.739939,27.8367689 101.242814,27.6954888 101.520016,27.5417835 C101.49282,28.6642005 101.500931,29.8018039 101.616869,30.9421685 C101.168385,30.1929701 100.433634,29.4193814 99.1163305,28.9812752 C97.7737402,28.543169 96.7722843,27.8896914 96.1300929,27.3448198 C95.4764509,26.7981075 95.1773023,26.3705858 95.1773023,26.3705858 C95.1773023,26.3705858 95.1606034,26.4529608 95.1319767,26.599303 C95.1033501,26.7461054 95.0737692,26.9605565 95.0489594,27.225169 C94.9940917,27.7525531 94.9678506,28.4851844 95.0656583,29.2845441 C95.1162321,29.684454 95.1897072,30.0981698 95.3147102,30.5118856 C95.4306482,30.9214597 95.5971599,31.3328745 95.803749,31.7134562 C96.0065212,32.0921972 96.2732262,32.4543711 96.5704663,32.7544186 C96.8810656,33.061369 97.2360361,33.3190785 97.6358551,33.4893509 C98.9083101,33.9693348 99.9894436,33.9389619 100.802441,33.7539633 C101.329648,33.6320115 101.741872,33.4442517 102.016688,33.2610939 C102.26908,34.3540583 102.58111,35.4345975 102.999537,36.4677365 C102.766707,36.2293552 102.49523,35.9997176 102.166501,35.8009131 C101.62832,35.4608286 100.93794,35.2012783 100.066736,35.1156819 C99.320534,35.0420507 98.6492389,34.8998502 98.0614381,34.7249759 C97.4736374,34.5501016 96.9836444,34.3384117 96.5781001,34.1373062 C96.3767593,34.0365234 96.1978427,33.9385017 96.0437358,33.847383 C95.8891519,33.7493613 95.7589006,33.6435164 95.6539361,33.5611414 C95.4440073,33.3927098 95.335226,33.285024 95.335226,33.285024 C95.335226,33.285024 95.3414285,33.3848865 95.352402,33.5634423 C95.3600358,33.6527203 95.3700551,33.7617866 95.3810287,33.8878802 C95.3943878,34.0153544 95.4091782,34.1267217 95.4292169,34.2675415 C95.4688171,34.5413579 95.5232077,34.8648754 95.601931,35.2178454 C95.6882881,35.5680542 95.7975466,35.9481757 95.9349545,36.3365807 C96.4931744,37.8879 97.6291756,39.5307981 99.4202502,39.8925118 C100.82725,40.1884175 101.973271,39.9666033 102.787699,39.6380237 C103.428937,39.3761724 103.87599,39.0425306 104.10882,38.7737764 C104.21951,39.0020334 104.328291,39.2307506 104.429915,39.4613086 C104.646524,39.9026361 104.834983,40.3540879 105.047774,40.7921941 C105.255795,41.2510091 105.472403,41.7033813 105.695691,42.1493108 C104.915137,41.5349497 103.805377,41.0232123 102.236636,41.1101892 C100.639746,41.2109721 99.3281678,40.9541829 98.4097291,40.6661005 C97.501787,40.3743365 96.9884155,40.0641647 96.9884155,40.0641647 C96.9884155,40.0641647 97.0609364,40.4286396 97.2336506,40.991919 C97.3161908,41.2749392 97.441671,41.6002975 97.5876669,41.9560287 C97.7322316,42.3131404 97.918782,42.6923415 98.1377759,43.074764 C98.5705155,43.8414498 99.1587934,44.6127376 99.8840021,45.2017879 C100.610642,45.7899178 101.469919,46.1939695 102.441317,46.2353871 C103.971412,46.3085582 105.12602,45.8782754 105.914685,45.3918487 C106.41756,45.0789157 106.778256,44.7388312 106.999635,44.4498284 C107.284948,44.8897753 107.583142,45.3159164 107.905669,45.7167467 C108.189073,46.0812216 108.503012,46.4171644 108.797389,46.7581693 C108.97392,46.9491504 109.146157,47.1355296 109.319826,47.3237496 C108.384211,46.8115519 107.122253,46.4530596 105.47622,46.8133927 C104.649864,47.0006923 103.889349,47.0780052 103.199923,47.0922712 C102.50859,47.1079179 101.901227,47.054075 101.399784,46.9749214 C100.387831,46.8198355 99.8048016,46.5704095 99.8048016,46.5704095 C99.8048016,46.5704095 99.9360072,46.9477698 100.229908,47.5087482 C100.516174,48.0724878 100.96275,48.8235269 101.570589,49.5603 C101.874032,49.9289166 102.212781,50.2956925 102.594947,50.6279537 C102.969002,50.9648168 103.385997,51.2676255 103.827324,51.5170515 C104.709025,52.0168239 105.699985,52.2929412 106.725296,52.1645466 C107.533522,52.0679056 108.215791,51.8502331 108.786893,51.5754963 C109.356563,51.30168 109.811727,50.9740207 110.171469,50.6436003 C110.715853,50.1401464 111.043628,49.6348517 111.184376,49.2666952 C111.8905,49.953307 112.596624,50.5906778 113.281278,51.1843301 C113.701136,51.5409817 114.114791,51.8801458 114.52129,52.2032031 C113.411052,51.8598972 111.992124,51.711254 110.299335,52.4484873 C109.493494,52.8019175 108.705784,53.0425997 107.993934,53.1871012 C107.283993,53.3311424 106.630828,53.3928086 106.086445,53.4043135 C105.545401,53.4139776 105.104073,53.3799231 104.799199,53.344488 C104.492417,53.3095132 104.326859,53.2708567 104.326859,53.2708567 C104.326859,53.2708567 104.382681,53.3642764 104.496234,53.5230439 C104.608355,53.6827318 104.77439,53.9105286 104.98909,54.1825041 C105.421829,54.7241543 106.070223,55.4337758 106.890377,56.0964574 C107.301169,56.4264177 107.758242,56.7421118 108.239169,57.0223709 C108.733456,57.2934261 109.2349,57.5419317 109.775467,57.7066817 C110.308877,57.876954 110.850875,57.9860204 111.399553,57.9975253 C111.942505,58.0145525 112.479255,57.9446028 113.001214,57.7600644 C114.642476,57.1903423 115.601469,56.2289938 116.156826,55.3803932 C116.52611,54.8083701 116.720294,54.278685 116.792338,53.8787751 C117.002267,54.0182143 117.208379,54.1548924 117.406857,54.2865083 C117.662111,54.4425146 117.908301,54.5925384 118.14447,54.7370398 C118.380163,54.883382 118.62015,55.0016522 118.842961,55.1263652 C119.066726,55.248317 119.280472,55.3661271 119.490401,55.4650691 C119.905964,55.6707766 120.280496,55.8488722 120.61686,55.9823289 C120.949883,56.123609 121.23615,56.2381977 121.473751,56.3164309 C121.710875,56.3969651 121.892654,56.4590915 122.014795,56.5009693 C122.136935,56.5428471 122.202299,56.558954 122.202299,56.558954 C122.728076,56.700234 123.27723,56.375336 123.436585,55.8208003 C123.59928,55.2556802 123.34498,54.6785949 122.869778,54.5345537" id="Page-1-Copy" fill="#D6BD82" transform="translate(109.242880, 29.000000) scale(-1, 1) translate(-109.242880, -29.000000) "></path>
            </g>
        </g>
    </g>
</svg>