<?xml version="1.0" encoding="UTF-8"?>
<svg width="127px" height="58px" viewBox="0 0 127 58" version="1.1" xmlns="http://www.w3.org/2000/svg" xmlns:xlink="http://www.w3.org/1999/xlink">
    <!-- Generator: Sketch 48.2 (47327) - http://www.bohemiancoding.com/sketch -->
    <title>Awards PSA 2017</title>
    <desc>Created with Sketch.</desc>
    <defs></defs>
    <g id="1-page-copy-2" stroke="none" stroke-width="1" fill="none" fill-rule="evenodd" transform="translate(-40.000000, -403.000000)">
        <g id="Awards-PSA-2017" transform="translate(40.000000, 403.000000)">
            <text id="PSA-2017-POP-SCIENCE" font-family="Gotham-Bold, Gotham" font-size="14" font-weight="bold" line-spacing="14" fill="#212529">
                <tspan x="29.096" y="21">PSA 2017</tspan>
                <tspan x="95.904" y="21" font-family="Gotham-Book, Gotham" font-size="10" font-weight="300"></tspan>
                <tspan x="27.385" y="35" font-family="Gotham-Book, Gotham" font-size="10" font-weight="300" line-spacing="10">POP SCIENCE</tspan>
                <tspan x="39.29" y="45" font-family="Gotham-Book, Gotham" font-size="10" font-weight="300" line-spacing="10">AWARDS</tspan>
            </text>
            <path d="M27.3945223,54.5345537 C27.3945223,54.5345537 27.3373073,54.5179867 27.2285051,54.4793303 C27.118765,54.4429748 26.9560307,54.3891319 26.7435851,54.3191822 C26.5292635,54.255215 26.2699204,54.1613351 25.9636797,54.052729 C25.6546252,53.9510258 25.3061769,53.8152681 24.9131759,53.6657045 C24.7147995,53.5957548 24.5117333,53.5078575 24.2974118,53.4167387 C24.0844971,53.323319 23.8551684,53.2386431 23.6272466,53.1254349 C23.3960419,53.0186696 23.1549888,52.9073023 22.9050252,52.7917932 C22.7113385,52.6933113 22.5101483,52.5911479 22.3052062,52.4871437 C22.6245782,52.2344964 22.9955373,51.8212407 23.3313234,51.2510585 C23.8546994,50.3762267 24.2838115,49.1590095 24.5154851,47.6794808 C24.8062496,45.8230519 24.1276428,44.6546154 23.3496134,43.780704 C22.9613022,43.3481202 22.5429765,43.0057347 22.2198528,42.7622913 C22.0599323,42.6389589 21.9211157,42.5455392 21.822631,42.4824924 C21.7227393,42.4199058 21.6669313,42.3849309 21.6669313,42.3849309 C21.6669313,42.3849309 21.6467654,42.5082633 21.5942402,42.7346795 C21.541246,42.9620161 21.4535477,43.2970385 21.3184829,43.7291621 C21.185763,44.1580644 21.0131803,44.6762446 20.7782238,45.2860037 C20.5446743,45.893922 20.2637583,46.5750114 19.9012407,47.3357147 C19.1663569,48.8695465 19.4200724,50.1654571 19.9734628,51.0748036 C19.5921862,50.8078901 19.2076267,50.5207281 18.8240052,50.2073349 C18.1580608,49.6698265 17.5010269,49.0559257 16.8543105,48.3845004 C17.2276145,48.2464417 17.7270729,47.9344291 18.2321589,47.4272936 C18.5749795,47.0853683 18.921552,46.6569262 19.2446758,46.1470296 C19.5663926,45.6394339 19.8684124,45.046702 20.1333833,44.3752767 C20.7908861,42.6932619 20.3411392,41.3678987 19.744603,40.3481054 C19.4444591,39.8423505 19.1030453,39.4185104 18.8380745,39.1143211 C18.566538,38.815194 18.3766031,38.6343371 18.3766031,38.6343371 C18.3766031,38.6343371 18.2152758,39.0899307 17.8199299,39.8543156 C17.6187396,40.2399594 17.3598655,40.7042968 17.0358038,41.2303003 C16.7098662,41.7576844 16.3074857,42.3554784 15.8314761,42.9914687 C14.8808639,44.2468821 14.8353734,45.4521343 15.1186342,46.3996769 C14.9863833,46.223422 14.8555393,46.0439458 14.7214125,45.8653899 C14.4808283,45.5101189 14.2261749,45.1599101 13.9846528,44.794975 C13.7065507,44.3987467 13.4246968,43.9969959 13.1404979,43.5915637 C13.4908222,43.4999847 13.9330656,43.3062424 14.4034475,42.9868667 C15.1697525,42.4714477 15.9923346,41.6371131 16.7112731,40.4608533 C17.6084222,38.9854664 17.3837832,37.6242079 16.9785889,36.5491911 C16.8758833,36.2813573 16.7562947,36.0351527 16.6456166,35.8096568 C16.5325937,35.5850814 16.4083153,35.3908789 16.3112375,35.2233677 C16.1100473,34.8911065 15.9487199,34.6941428 15.9487199,34.6941428 C15.9487199,34.6941428 15.7395571,35.0972741 15.2433816,35.7622567 C14.7584615,36.4230975 13.9935634,37.3572945 12.8980379,38.4051598 C11.8170507,39.4249531 11.5745906,40.5317234 11.6721374,41.4580971 C11.4160771,41.0710726 11.1656445,40.6757646 10.9320949,40.267111 C10.687759,39.8639797 10.4776582,39.4396794 10.2642746,39.0149189 C10.1657899,38.7958658 10.0668362,38.5763525 9.97351017,38.3540781 C10.3304001,38.3623616 10.8636246,38.259738 11.4690713,37.9854614 C12.2677356,37.6274293 13.1681675,36.9813147 14.0254537,35.9918943 C15.0933096,34.7498265 15.0928406,33.4263041 14.8818019,32.35773 C14.8325595,32.0898962 14.7626823,31.84001 14.6857704,31.6145142 C14.6163621,31.3876378 14.5413261,31.1851517 14.4691039,31.0157998 C14.4353378,30.9348053 14.3954749,30.8464478 14.3706192,30.7958263 C14.3457635,30.7438242 14.3223148,30.6991852 14.3021489,30.6623696 C14.262286,30.5896587 14.2360234,30.5491615 14.2360234,30.5491615 C14.2360234,30.5491615 14.1670841,30.6195714 14.0235778,30.7479659 C13.9527625,30.8146943 13.8599055,30.8874052 13.7543861,30.9891084 C13.6521496,31.0977146 13.532092,31.221047 13.3928065,31.3572649 C13.1156423,31.6297006 12.7554695,31.9550589 12.3268264,32.3126308 C11.8986523,32.6702028 11.3893455,33.0632098 10.7914025,33.4695624 C10.0973196,33.9421833 9.67571108,34.4856742 9.42856129,35.0397497 C9.30006216,35.3425584 9.22408822,35.6481282 9.18750817,35.9440339 C8.86860521,34.9467902 8.53797788,33.9504668 8.24721342,32.9394172 C8.56893022,32.9670289 9.00366999,32.9338948 9.50265933,32.7995177 C10.295696,32.5892084 11.25006,32.1225701 12.1866029,31.3360959 C12.4923746,31.1064583 12.7395244,30.8818828 12.932742,30.6508647 C13.1362772,30.409262 13.2765007,30.1773235 13.3932754,29.9278975 C13.5072363,29.6807725 13.5789895,29.4354882 13.6324527,29.1833011 C13.6784122,28.9370964 13.7074886,28.6862899 13.7135853,28.4469882 C13.7417238,27.493463 13.5109881,26.6513051 13.5109881,26.6513051 C13.5109881,26.6513051 13.1883334,26.9067137 12.5622518,27.2776313 C11.9263218,27.6503897 10.9897789,28.1478611 9.72495345,28.6444121 C8.50514963,29.1170329 7.92643456,29.9348004 7.70273351,30.719894 C7.49310171,29.6752501 7.34912641,28.6103576 7.29472531,27.5445447 C7.57470335,27.679382 8.05774754,27.7833862 8.67632549,27.7585356 C9.44309951,27.7323045 10.4176294,27.5045077 11.4446846,26.994611 C12.7498418,26.3517178 13.2080303,25.2909671 13.4106275,24.3438846 C13.5025466,23.8712638 13.5414715,23.429476 13.5391266,23.1008964 C13.5466302,22.7736974 13.5274023,22.5620074 13.5274023,22.5620074 C13.5274023,22.5620074 13.4439247,22.6121687 13.2788455,22.6940835 C13.1161112,22.7764586 12.8628648,22.8892065 12.5458377,23.0203622 C11.9056869,23.2808329 10.9442883,23.6121737 9.70056676,23.8744851 C8.23830289,24.1731521 7.56719975,25.0755955 7.28159401,25.8961242 C7.29800814,25.608502 7.32802253,25.3218002 7.3697613,25.0373993 C7.45511474,24.5679998 7.53343356,24.1032023 7.59955902,23.6397854 C7.64880139,23.2154851 7.69710581,22.7944062 7.74541023,22.375168 C7.99443592,22.5247316 8.38931282,22.669233 8.89674371,22.7368817 C9.61146152,22.8349034 10.5245557,22.7773789 11.5656801,22.4547819 C12.8633338,22.0465884 13.4692494,21.1041079 13.794249,20.2398607 C13.9616731,19.8095778 14.0451506,19.3949416 14.1061173,19.089832 C14.1600495,18.7828815 14.168022,18.5803955 14.168022,18.5803955 C14.168022,18.5803955 13.8355188,18.7235163 13.2000578,18.8786022 C12.5585,19.0313871 11.642592,19.2136246 10.4462369,19.2785121 C9.10215473,19.3489221 8.34241533,20.0424368 7.9480074,20.7368719 C8.11590043,19.5311595 8.43105159,18.3811308 8.81654899,17.2932285 C8.99006972,17.4911126 9.37744302,17.7386978 9.9336473,17.9043682 C10.5695773,18.0962698 11.4287394,18.1800254 12.4192145,18.0240191 C13.0523307,17.929679 13.5400646,17.6807132 13.9180584,17.3599569 C14.3124663,17.0461035 14.5769682,16.6503353 14.8016072,16.2743556 C14.9094714,16.084755 14.9971697,15.8960748 15.0684539,15.7193597 C15.1467727,15.545866 15.2082085,15.3838772 15.2551059,15.2444379 C15.3489009,14.9660196 15.385481,14.7782598 15.385481,14.7782598 C15.385481,14.7782598 15.0586054,14.8693785 14.4531588,14.9305846 C14.1516079,14.962338 13.7745521,14.9853478 13.3430951,14.9917906 C12.9130451,14.9991537 12.4187455,14.9862682 11.867231,14.9356467 C10.5789568,14.8136949 9.7784166,15.3847976 9.3197591,15.9862732 C9.34320785,15.9301293 9.36571865,15.8735252 9.38869842,15.8178416 C9.55471555,15.4317375 9.73105013,15.0557577 9.89566033,14.6825392 C10.0719949,14.3143827 10.2483295,13.9531292 10.4134087,13.5941767 C10.5259626,13.369141 10.6352338,13.1514685 10.7454429,12.9314951 C10.9039565,13.1215558 11.1961278,13.3521138 11.6088258,13.5449357 C12.1622162,13.8058666 12.933211,13.997308 13.8599055,13.9821215 C14.4508139,13.9775196 14.936672,13.8118492 15.3249832,13.561963 C15.7250188,13.3180593 16.039232,12.9931613 16.283568,12.6645816 C16.5396283,12.342905 16.7206526,12.0138651 16.8402412,11.7635188 C16.9696783,11.5196151 17.032052,11.3525641 17.032052,11.3525641 C17.032052,11.3525641 16.7126801,11.3949021 16.1480342,11.3797157 C15.590423,11.3691312 14.7800343,11.302863 13.7801798,11.0718448 C13.1972439,10.9356269 12.7137307,10.9775047 12.3005638,11.1082003 C11.9633708,11.2154258 11.6833928,11.3870788 11.4582848,11.5812813 C11.4615677,11.5752988 11.4648505,11.5693162 11.4681333,11.5633337 C11.9389841,10.7055292 12.4206214,9.9158336 12.895224,9.19470717 C13.0073091,9.39167087 13.252583,9.65490272 13.6282319,9.89420441 C14.1000207,10.1965529 14.767372,10.4547226 15.6260651,10.5527442 C16.1677312,10.615791 16.6188851,10.5085655 17.012355,10.3249474 C17.4123907,10.1454712 17.7317626,9.87349561 17.9995473,9.59783847 C18.2729597,9.32678329 18.4797776,9.04192224 18.6190632,8.82286916 C18.6880025,8.71334262 18.7442795,8.62360449 18.7836734,8.56101789 C18.8202534,8.49705071 18.8408883,8.46115546 18.8408883,8.46115546 C18.8408883,8.46115546 18.7667903,8.46391663 18.6275047,8.4570137 C18.4868123,8.44919037 18.2837461,8.43446411 18.0304996,8.40317082 C17.5207239,8.33828324 16.7872471,8.19608282 15.9032293,7.87992847 C15.385012,7.69262888 14.9427686,7.6806638 14.5525815,7.75475528 C14.1670841,7.83252833 13.831767,7.99543756 13.5813344,8.19332164 C13.5794585,8.19516243 13.5780516,8.19700321 13.5757067,8.19838379 C13.5846172,8.18641871 13.5930588,8.17353323 13.6019693,8.16110795 C13.9593282,7.6802036 14.3007419,7.23335372 14.6304313,6.831603 C14.8578842,6.56883134 15.067516,6.31802476 15.2715201,6.08562601 C15.3456181,6.27660716 15.5402427,6.54858273 15.8657113,6.81319518 C16.2596503,7.13487187 16.8332066,7.43583976 17.5971668,7.60427133 C18.08068,7.71287749 18.511199,7.66317637 18.884503,7.52741868 C19.2531173,7.38705903 19.596407,7.18457299 19.8641917,6.95079365 C20.0006634,6.83620495 20.119314,6.71471333 20.2276472,6.60242561 C20.3383253,6.49197868 20.4330583,6.3865939 20.5099702,6.29409459 C20.6637939,6.10955617 20.7477404,5.97932083 20.7477404,5.97932083 C20.7477404,5.97932083 20.4771419,5.96781594 20.0147326,5.86289136 C19.783528,5.81042906 19.503081,5.7344968 19.1851159,5.62681104 C18.8713717,5.52326704 18.5182336,5.38658896 18.136019,5.2061923 C17.2993677,4.81088432 16.582774,4.94480123 16.0917572,5.22183895 C16.1916489,5.12059593 16.2887267,5.02349467 16.3792389,4.93329634 C16.6235748,4.70273837 16.8397723,4.51543878 17.013293,4.36173346 C17.1891586,4.21078932 17.3237544,4.09528024 17.4147355,4.01704699 C17.5061857,3.93973414 17.555897,3.9024583 17.555897,3.9024583 C17.5713732,3.89095341 17.5873183,3.87622715 17.6009186,3.86150089 C17.6187396,3.84125229 17.6332779,3.81824251 17.6445333,3.79477254 C17.9437393,3.83711053 18.2274691,3.85551835 18.4900951,3.82514544 C18.8943515,3.78050648 19.2517104,3.62542057 19.6081313,3.33457698 C19.9640833,3.042813 20.1807497,2.59458253 20.3692777,2.12610346 C20.5526469,1.65210204 20.6773942,1.12517813 20.7960449,0.63967182 C20.3763123,0.628166931 19.8224529,0.635990256 19.2709384,0.726188584 C19.1335287,0.748738166 18.9956501,0.7763499 18.8610543,0.809944175 C18.7292723,0.847220015 18.5998352,0.890938593 18.4755569,0.940639712 C18.2274691,1.04050215 17.9990783,1.16751612 17.8100814,1.32628359 C17.4278668,1.63921656 17.2421528,2.01335555 17.1558614,2.41004412 C17.1009913,2.67511676 17.0930187,2.95307487 17.1108398,3.24713983 C17.0658182,3.26508746 17.0250174,3.29269919 16.9912512,3.32997503 C16.9912512,3.32997503 16.9495124,3.37691498 16.8707246,3.47033467 C16.7900609,3.56191359 16.6704723,3.69813147 16.5147726,3.87530676 C16.3562591,4.04926068 16.1606966,4.264172 15.9313678,4.51635917 C15.8281933,4.63601001 15.7170463,4.76394438 15.5988646,4.89832148 C15.8582077,4.36909659 16.0472046,3.65119153 15.6438862,2.75012863 C15.4703654,2.36264397 15.3498389,1.99586812 15.2672993,1.66314673 C15.1880425,1.33410691 15.1481797,1.04050215 15.1294207,0.793837331 C15.0919027,0.300507697 15.1378622,0 15.1378622,0 C15.1378622,0 14.972783,0.0971012619 14.729385,0.275657137 C14.6074516,0.364935074 14.4662901,0.474001421 14.3166871,0.601935785 C14.16896,0.731710931 14.018419,0.88495605 13.868347,1.05154684 C13.5733618,1.38979057 13.2769696,1.77497425 13.1137664,2.22458531 C12.9463423,2.66913421 12.8853756,3.14773759 13.0195024,3.63186331 C13.233355,4.40315106 13.6371424,4.92869438 14.0165431,5.25911479 C14.3471705,5.54581662 14.6656044,5.69169861 14.8667947,5.72529289 C14.6599767,5.96597516 14.4447173,6.22414487 14.2083539,6.49335927 C13.869285,6.89833135 13.5123951,7.34426085 13.1325254,7.82194383 C13.1053248,7.8559983 13.0776553,7.89235375 13.0509237,7.92778881 C13.0631171,7.8974159 13.0762484,7.86888378 13.0879727,7.83759048 C13.1991198,7.53202063 13.2947907,7.1831924 13.2797835,6.78190188 C13.269935,6.38429292 13.1522223,5.93330128 12.8872515,5.46666299 C12.4239042,4.66086057 12.2072378,3.91534377 12.109222,3.37047224 C12.0581038,3.09665588 12.0412207,2.8771426 12.0369999,2.72711885 C12.0323102,2.57663491 12.0374689,2.49287932 12.0374689,2.49287932 C12.0374689,2.49287932 11.9947922,2.525093 11.9183492,2.58261745 C11.8433133,2.64198268 11.7335731,2.72619846 11.6121086,2.84308813 C11.3663657,3.07318591 11.04418,3.4049869 10.743098,3.80443664 C10.4481128,4.20894854 10.1883007,4.69307426 10.0438564,5.196068 C9.9055088,5.70458409 9.90410188,6.24853523 10.1099819,6.76487464 C10.4345125,7.58448293 10.9442883,8.10910586 11.4029458,8.42433981 C11.792664,8.69033284 12.1500229,8.80906329 12.3760688,8.82609053 C11.8555066,9.54261501 11.323689,10.33093 10.7984371,11.1924161 C10.7829609,11.2191074 10.7665468,11.2467191 10.7515396,11.2738707 C10.8134443,10.9563357 10.8448656,10.603826 10.7881196,10.2214034 C10.7238701,9.79066041 10.5395629,9.31803958 10.1873627,8.84265757 C9.5781643,8.02581046 9.24800594,7.23979646 9.07307829,6.6558083 C8.90518526,6.0764221 8.89205396,5.70596467 8.89205396,5.70596467 C8.89205396,5.70596467 8.71665733,5.86611273 8.46716266,6.14453104 C8.22657852,6.42939208 7.91752403,6.83712535 7.63942189,7.31618892 C7.3735131,7.80261562 7.14418436,8.3631338 7.05836194,8.93745785 C6.98379493,9.51868484 7.04288577,10.1054342 7.34021588,10.6406416 C7.82232212,11.4961451 8.43996212,11.987634 8.98444202,12.2655921 C9.40558152,12.4786626 9.78123044,12.5633386 10.032601,12.56656 C9.9148883,12.7920558 9.79717559,13.0198526 9.68227673,13.2531718 C9.5125078,13.620868 9.3422699,13.9959274 9.17859765,14.3797305 C9.02711874,14.7690559 8.86954316,15.1625231 8.72275401,15.5656544 C8.68851883,15.6586139 8.65803546,15.7561754 8.62520722,15.8495951 C8.62942799,15.811859 8.63599364,15.7759638 8.63927647,15.7368472 C8.71009168,14.9756837 8.56799227,13.9968478 7.66474654,13.0750761 C7.27315246,12.6788477 6.95753233,12.2807786 6.70475484,11.9047988 C6.45432222,11.5292792 6.27611174,11.1809112 6.14151593,10.8790229 C5.87466919,10.2757065 5.80057115,9.87119463 5.80057115,9.87119463 C5.80057115,9.87119463 5.63830582,10.0736807 5.41507375,10.4169866 C5.30345772,10.5886395 5.17683448,10.7952673 5.04786637,11.0290466 C4.92687084,11.2665076 4.80446838,11.5315802 4.69379029,11.8141403 C4.4635236,12.376039 4.32095522,13.0285963 4.31110674,13.6618254 C4.31767239,14.3014972 4.47759285,14.929204 4.88278719,15.4593492 C5.53606929,16.3065693 6.27892559,16.7359317 6.90828996,16.9476217 C7.48231529,17.139063 7.96066973,17.1478067 8.21297825,17.0783172 C7.84858472,18.2246643 7.50998481,19.4156504 7.14324641,20.6379298 C7.08556249,19.8160206 6.77697698,18.8022097 5.6612856,17.9609723 C4.70082492,17.2412264 4.05645335,16.4533716 3.68408725,15.8491349 C3.30421755,15.2430573 3.16211814,14.8192172 3.16211814,14.8192172 C3.16211814,14.8192172 3.02001873,15.0626607 2.83524261,15.468093 C2.64436981,15.8707641 2.43380006,16.4437075 2.28654193,17.0889017 C2.00046721,18.3802104 2.03751623,19.9743278 3.09880652,20.9784745 C3.92607832,21.7746128 4.80728223,22.1100954 5.50980669,22.2288258 C6.02896195,22.3144222 6.46135684,22.2849697 6.74367976,22.2090374 C6.65691939,22.6393203 6.57344185,23.0737449 6.52842026,23.5159928 C6.46651557,23.9959768 6.47964687,24.4865452 6.47495712,24.9748127 C6.48621252,25.3089147 6.47683302,25.6416361 6.46323274,25.9752778 C6.45526017,25.9393826 6.45010144,25.9053281 6.44072195,25.8689727 C6.2414076,25.0065662 5.72788004,23.9761884 4.40771558,23.2619649 C3.2563821,22.6517456 2.4647524,21.9168133 1.95732152,21.3282231 C1.69985428,21.033698 1.5291474,20.77967 1.41190366,20.598353 C1.29653583,20.4170359 1.24260371,20.3102706 1.24260371,20.3102706 C1.24260371,20.3102706 1.12535997,20.5932908 0.993109041,21.0580884 C0.871644532,21.5247266 0.721572551,22.1713014 0.684992505,22.8915074 C0.590259568,24.3268574 0.924169725,26.0498295 2.22369928,26.9412283 C3.25872698,27.6513101 4.23278793,27.8445922 5.00378273,27.8422912 C5.64205762,27.8367689 6.13635721,27.6954888 6.40883165,27.5417835 C6.38210008,28.6642005 6.39007265,29.8018039 6.50403356,30.9421685 C6.06319712,30.1929701 5.34097571,29.4193814 4.0461359,28.9812752 C2.72644042,28.543169 1.74206202,27.8896914 1.11082175,27.3448198 C0.468326083,26.7981075 0.174278796,26.3705858 0.174278796,26.3705858 C0.174278796,26.3705858 0.157864673,26.4529608 0.129726176,26.599303 C0.10158768,26.7461054 0.0725112336,26.9605565 0.0481245367,27.225169 C-0.00580758141,27.7525531 -0.0316012031,28.4851844 0.0645386596,29.2845441 C0.114250003,29.684454 0.186472144,30.0981698 0.309343578,30.5118856 C0.423304489,30.9214597 0.586976743,31.3328745 0.790042892,31.7134562 C0.989357242,32.0921972 1.25151423,32.4543711 1.54368562,32.7544186 C1.84898831,33.061369 2.19790566,33.3190785 2.59090666,33.4893509 C3.84166283,33.9693348 4.90436004,33.9389619 5.70349334,33.7539633 C6.22171065,33.6320115 6.626905,33.4442517 6.89703456,33.2610939 C7.14512231,34.3540583 7.45183192,35.4345975 7.86312294,36.4677365 C7.63426317,36.2293552 7.36741643,35.9997176 7.04429269,35.8009131 C6.51528896,35.4608286 5.83668222,35.2012783 4.98033398,35.1156819 C4.24685718,35.0420507 3.58700944,34.8998502 3.00923231,34.7249759 C2.43145518,34.5501016 1.94981792,34.3384117 1.55118922,34.1373062 C1.3532818,34.0365234 1.17741619,33.9385017 1.02593729,33.847383 C0.873989406,33.7493613 0.745959248,33.6435164 0.642784761,33.5611414 C0.436435787,33.3927098 0.329509501,33.285024 0.329509501,33.285024 C0.329509501,33.285024 0.335606175,33.3848865 0.346392599,33.5634423 C0.353896198,33.6527203 0.363744671,33.7617866 0.374531095,33.8878802 C0.387662393,34.0153544 0.402200617,34.1267217 0.421897564,34.2675415 C0.460822484,34.5413579 0.514285627,34.8648754 0.591666492,35.2178454 C0.676550957,35.5680542 0.783946218,35.9481757 0.919011001,36.3365807 C1.46771168,37.8879 2.58434101,39.5307981 4.34487294,39.8925118 C5.72788004,40.1884175 6.85435784,39.9666033 7.65489807,39.6380237 C8.28520039,39.3761724 8.7246299,39.0425306 8.95348968,38.7737764 C9.06229186,39.0020334 9.16921815,39.2307506 9.26910981,39.4613086 C9.48202443,39.9026361 9.66726953,40.3540879 9.87643236,40.7921941 C10.0809054,41.2510091 10.2938201,41.7033813 10.5133003,42.1493108 C9.74605732,41.5349497 8.65522161,41.0232123 7.11323201,41.1101892 C5.54357289,41.2109721 4.25436078,40.9541829 3.35158402,40.6661005 C2.4591247,40.3743365 1.95450767,40.0641647 1.95450767,40.0641647 C1.95450767,40.0641647 2.02579186,40.4286396 2.19556079,40.991919 C2.27669345,41.2749392 2.40003386,41.6002975 2.54354019,41.9560287 C2.6856396,42.3131404 2.8690088,42.6923415 3.0842683,43.074764 C3.50962857,43.8414498 4.08787467,44.6127376 4.80071658,45.2017879 C5.51496541,45.7899178 6.35958928,46.1939695 7.31442226,46.2353871 C8.81842489,46.3085582 9.95334425,45.8782754 10.7285598,45.3918487 C11.2228594,45.0789157 11.5774045,44.7388312 11.7950088,44.4498284 C12.0754559,44.8897753 12.3685652,45.3159164 12.6855922,45.7167467 C12.9641634,46.0812216 13.2727489,46.4171644 13.5621064,46.7581693 C13.7356271,46.9491504 13.9049271,47.1355296 14.075634,47.3237496 C13.1559741,46.8115519 11.9155354,46.4530596 10.2975719,46.8133927 C9.48530726,47.0006923 8.7377612,47.0780052 8.06009241,47.0922712 C7.38054773,47.1079179 6.78354263,47.054075 6.29064997,46.9749214 C5.29595412,46.8198355 4.72286674,46.5704095 4.72286674,46.5704095 C4.72286674,46.5704095 4.85183485,46.9477698 5.14072341,47.5087482 C5.42210838,48.0724878 5.86106892,48.8235269 6.45854299,49.5603 C6.75681106,49.9289166 7.08978326,50.2956925 7.46543219,50.6279537 C7.83310854,50.9648168 8.24299264,51.2676255 8.67679446,51.5170515 C9.54346015,52.0168239 10.5175211,52.2929412 11.5253482,52.1645466 C12.3197918,52.0679056 12.990426,51.8502331 13.551789,51.5754963 C14.111745,51.30168 14.5591471,50.9740207 14.9127542,50.6436003 C15.4478546,50.1401464 15.7700404,49.6348517 15.908388,49.2666952 C16.6024709,49.953307 17.2965539,50.5906778 17.9695329,51.1843301 C18.3822308,51.5409817 18.7888321,51.8801458 19.1883988,52.2032031 C18.0970941,51.8598972 16.7023626,51.711254 15.0384395,52.4484873 C14.2463409,52.8019175 13.4720632,53.0425997 12.7723526,53.1871012 C12.0745179,53.3311424 11.4324912,53.3928086 10.8973908,53.4043135 C10.3655732,53.4139776 9.9317714,53.3799231 9.63209641,53.344488 C9.33054553,53.3095132 9.16781122,53.2708567 9.16781122,53.2708567 C9.16781122,53.2708567 9.22268129,53.3642764 9.33429733,53.5230439 C9.44450644,53.6827318 9.60770972,53.9105286 9.81874844,54.1825041 C10.2441087,54.7241543 10.8814457,55.4337758 11.6876136,56.0964574 C12.091401,56.4264177 12.540679,56.7421118 13.0134057,57.0223709 C13.4992638,57.2934261 13.9921564,57.5419317 14.523505,57.7066817 C15.047819,57.876954 15.5805746,57.9860204 16.1198957,57.9975253 C16.6535892,58.0145525 17.181186,57.9446028 17.6942446,57.7600644 C19.3075184,57.1903423 20.250158,56.2289938 20.7960449,55.3803932 C21.1590315,54.8083701 21.3499043,54.278685 21.4207195,53.8787751 C21.6270685,54.0182143 21.8296656,54.1548924 22.0247592,54.2865083 C22.2756608,54.4425146 22.5176519,54.5925384 22.7497945,54.7370398 C22.9814681,54.883382 23.2173625,55.0016522 23.4363738,55.1263652 C23.656323,55.248317 23.8664238,55.3661271 24.0727728,55.4650691 C24.4812499,55.6707766 24.8493953,55.8488722 25.1800226,55.9823289 C25.5073671,56.123609 25.7887521,56.2381977 26.0223016,56.3164309 C26.2553821,56.3969651 26.4340616,56.4590915 26.5541192,56.5009693 C26.6741768,56.5428471 26.7384263,56.558954 26.7384263,56.558954 C27.2552367,56.700234 27.7950269,56.375336 27.9516645,55.8208003 C28.111585,55.2556802 27.8616213,54.6785949 27.3945223,54.5345537" id="Page-1" fill="#D6BD82"></path>
            <path d="M126.394522,54.5345537 C126.394522,54.5345537 126.337307,54.5179867 126.228505,54.4793303 C126.118765,54.4429748 125.956031,54.3891319 125.743585,54.3191822 C125.529264,54.255215 125.26992,54.1613351 124.96368,54.052729 C124.654625,53.9510258 124.306177,53.8152681 123.913176,53.6657045 C123.714799,53.5957548 123.511733,53.5078575 123.297412,53.4167387 C123.084497,53.323319 122.855168,53.2386431 122.627247,53.1254349 C122.396042,53.0186696 122.154989,52.9073023 121.905025,52.7917932 C121.711339,52.6933113 121.510148,52.5911479 121.305206,52.4871437 C121.624578,52.2344964 121.995537,51.8212407 122.331323,51.2510585 C122.854699,50.3762267 123.283811,49.1590095 123.515485,47.6794808 C123.80625,45.8230519 123.127643,44.6546154 122.349613,43.780704 C121.961302,43.3481202 121.542977,43.0057347 121.219853,42.7622913 C121.059932,42.6389589 120.921116,42.5455392 120.822631,42.4824924 C120.722739,42.4199058 120.666931,42.3849309 120.666931,42.3849309 C120.666931,42.3849309 120.646765,42.5082633 120.59424,42.7346795 C120.541246,42.9620161 120.453548,43.2970385 120.318483,43.7291621 C120.185763,44.1580644 120.01318,44.6762446 119.778224,45.2860037 C119.544674,45.893922 119.263758,46.5750114 118.901241,47.3357147 C118.166357,48.8695465 118.420072,50.1654571 118.973463,51.0748036 C118.592186,50.8078901 118.207627,50.5207281 117.824005,50.2073349 C117.158061,49.6698265 116.501027,49.0559257 115.85431,48.3845004 C116.227615,48.2464417 116.727073,47.9344291 117.232159,47.4272936 C117.57498,47.0853683 117.921552,46.6569262 118.244676,46.1470296 C118.566393,45.6394339 118.868412,45.046702 119.133383,44.3752767 C119.790886,42.6932619 119.341139,41.3678987 118.744603,40.3481054 C118.444459,39.8423505 118.103045,39.4185104 117.838074,39.1143211 C117.566538,38.815194 117.376603,38.6343371 117.376603,38.6343371 C117.376603,38.6343371 117.215276,39.0899307 116.81993,39.8543156 C116.61874,40.2399594 116.359865,40.7042968 116.035804,41.2303003 C115.709866,41.7576844 115.307486,42.3554784 114.831476,42.9914687 C113.880864,44.2468821 113.835373,45.4521343 114.118634,46.3996769 C113.986383,46.223422 113.855539,46.0439458 113.721412,45.8653899 C113.480828,45.5101189 113.226175,45.1599101 112.984653,44.794975 C112.706551,44.3987467 112.424697,43.9969959 112.140498,43.5915637 C112.490822,43.4999847 112.933066,43.3062424 113.403447,42.9868667 C114.169753,42.4714477 114.992335,41.6371131 115.711273,40.4608533 C116.608422,38.9854664 116.383783,37.6242079 115.978589,36.5491911 C115.875883,36.2813573 115.756295,36.0351527 115.645617,35.8096568 C115.532594,35.5850814 115.408315,35.3908789 115.311238,35.2233677 C115.110047,34.8911065 114.94872,34.6941428 114.94872,34.6941428 C114.94872,34.6941428 114.739557,35.0972741 114.243382,35.7622567 C113.758461,36.4230975 112.993563,37.3572945 111.898038,38.4051598 C110.817051,39.4249531 110.574591,40.5317234 110.672137,41.4580971 C110.416077,41.0710726 110.165644,40.6757646 109.932095,40.267111 C109.687759,39.8639797 109.477658,39.4396794 109.264275,39.0149189 C109.16579,38.7958658 109.066836,38.5763525 108.97351,38.3540781 C109.3304,38.3623616 109.863625,38.259738 110.469071,37.9854614 C111.267736,37.6274293 112.168167,36.9813147 113.025454,35.9918943 C114.09331,34.7498265 114.092841,33.4263041 113.881802,32.35773 C113.83256,32.0898962 113.762682,31.84001 113.68577,31.6145142 C113.616362,31.3876378 113.541326,31.1851517 113.469104,31.0157998 C113.435338,30.9348053 113.395475,30.8464478 113.370619,30.7958263 C113.345764,30.7438242 113.322315,30.6991852 113.302149,30.6623696 C113.262286,30.5896587 113.236023,30.5491615 113.236023,30.5491615 C113.236023,30.5491615 113.167084,30.6195714 113.023578,30.7479659 C112.952763,30.8146943 112.859905,30.8874052 112.754386,30.9891084 C112.65215,31.0977146 112.532092,31.221047 112.392806,31.3572649 C112.115642,31.6297006 111.75547,31.9550589 111.326826,32.3126308 C110.898652,32.6702028 110.389346,33.0632098 109.791402,33.4695624 C109.09732,33.9421833 108.675711,34.4856742 108.428561,35.0397497 C108.300062,35.3425584 108.224088,35.6481282 108.187508,35.9440339 C107.868605,34.9467902 107.537978,33.9504668 107.247213,32.9394172 C107.56893,32.9670289 108.00367,32.9338948 108.502659,32.7995177 C109.295696,32.5892084 110.25006,32.1225701 111.186603,31.3360959 C111.492375,31.1064583 111.739524,30.8818828 111.932742,30.6508647 C112.136277,30.409262 112.276501,30.1773235 112.393275,29.9278975 C112.507236,29.6807725 112.57899,29.4354882 112.632453,29.1833011 C112.678412,28.9370964 112.707489,28.6862899 112.713585,28.4469882 C112.741724,27.493463 112.510988,26.6513051 112.510988,26.6513051 C112.510988,26.6513051 112.188333,26.9067137 111.562252,27.2776313 C110.926322,27.6503897 109.989779,28.1478611 108.724953,28.6444121 C107.50515,29.1170329 106.926435,29.9348004 106.702734,30.719894 C106.493102,29.6752501 106.349126,28.6103576 106.294725,27.5445447 C106.574703,27.679382 107.057748,27.7833862 107.676325,27.7585356 C108.4431,27.7323045 109.417629,27.5045077 110.444685,26.994611 C111.749842,26.3517178 112.20803,25.2909671 112.410628,24.3438846 C112.502547,23.8712638 112.541472,23.429476 112.539127,23.1008964 C112.54663,22.7736974 112.527402,22.5620074 112.527402,22.5620074 C112.527402,22.5620074 112.443925,22.6121687 112.278846,22.6940835 C112.116111,22.7764586 111.862865,22.8892065 111.545838,23.0203622 C110.905687,23.2808329 109.944288,23.6121737 108.700567,23.8744851 C107.238303,24.1731521 106.5672,25.0755955 106.281594,25.8961242 C106.298008,25.608502 106.328023,25.3218002 106.369761,25.0373993 C106.455115,24.5679998 106.533434,24.1032023 106.599559,23.6397854 C106.648801,23.2154851 106.697106,22.7944062 106.74541,22.375168 C106.994436,22.5247316 107.389313,22.669233 107.896744,22.7368817 C108.611462,22.8349034 109.524556,22.7773789 110.56568,22.4547819 C111.863334,22.0465884 112.469249,21.1041079 112.794249,20.2398607 C112.961673,19.8095778 113.045151,19.3949416 113.106117,19.089832 C113.160049,18.7828815 113.168022,18.5803955 113.168022,18.5803955 C113.168022,18.5803955 112.835519,18.7235163 112.200058,18.8786022 C111.5585,19.0313871 110.642592,19.2136246 109.446237,19.2785121 C108.102155,19.3489221 107.342415,20.0424368 106.948007,20.7368719 C107.1159,19.5311595 107.431052,18.3811308 107.816549,17.2932285 C107.99007,17.4911126 108.377443,17.7386978 108.933647,17.9043682 C109.569577,18.0962698 110.428739,18.1800254 111.419214,18.0240191 C112.052331,17.929679 112.540065,17.6807132 112.918058,17.3599569 C113.312466,17.0461035 113.576968,16.6503353 113.801607,16.2743556 C113.909471,16.084755 113.99717,15.8960748 114.068454,15.7193597 C114.146773,15.545866 114.208208,15.3838772 114.255106,15.2444379 C114.348901,14.9660196 114.385481,14.7782598 114.385481,14.7782598 C114.385481,14.7782598 114.058605,14.8693785 113.453159,14.9305846 C113.151608,14.962338 112.774552,14.9853478 112.343095,14.9917906 C111.913045,14.9991537 111.418746,14.9862682 110.867231,14.9356467 C109.578957,14.8136949 108.778417,15.3847976 108.319759,15.9862732 C108.343208,15.9301293 108.365719,15.8735252 108.388698,15.8178416 C108.554716,15.4317375 108.73105,15.0557577 108.89566,14.6825392 C109.071995,14.3143827 109.248329,13.9531292 109.413409,13.5941767 C109.525963,13.369141 109.635234,13.1514685 109.745443,12.9314951 C109.903956,13.1215558 110.196128,13.3521138 110.608826,13.5449357 C111.162216,13.8058666 111.933211,13.997308 112.859905,13.9821215 C113.450814,13.9775196 113.936672,13.8118492 114.324983,13.561963 C114.725019,13.3180593 115.039232,12.9931613 115.283568,12.6645816 C115.539628,12.342905 115.720653,12.0138651 115.840241,11.7635188 C115.969678,11.5196151 116.032052,11.3525641 116.032052,11.3525641 C116.032052,11.3525641 115.71268,11.3949021 115.148034,11.3797157 C114.590423,11.3691312 113.780034,11.302863 112.78018,11.0718448 C112.197244,10.9356269 111.713731,10.9775047 111.300564,11.1082003 C110.963371,11.2154258 110.683393,11.3870788 110.458285,11.5812813 C110.461568,11.5752988 110.46485,11.5693162 110.468133,11.5633337 C110.938984,10.7055292 111.420621,9.9158336 111.895224,9.19470717 C112.007309,9.39167087 112.252583,9.65490272 112.628232,9.89420441 C113.100021,10.1965529 113.767372,10.4547226 114.626065,10.5527442 C115.167731,10.615791 115.618885,10.5085655 116.012355,10.3249474 C116.412391,10.1454712 116.731763,9.87349561 116.999547,9.59783847 C117.27296,9.32678329 117.479778,9.04192224 117.619063,8.82286916 C117.688003,8.71334262 117.74428,8.62360449 117.783673,8.56101789 C117.820253,8.49705071 117.840888,8.46115546 117.840888,8.46115546 C117.840888,8.46115546 117.76679,8.46391663 117.627505,8.4570137 C117.486812,8.44919037 117.283746,8.43446411 117.0305,8.40317082 C116.520724,8.33828324 115.787247,8.19608282 114.903229,7.87992847 C114.385012,7.69262888 113.942769,7.6806638 113.552581,7.75475528 C113.167084,7.83252833 112.831767,7.99543756 112.581334,8.19332164 C112.579458,8.19516243 112.578052,8.19700321 112.575707,8.19838379 C112.584617,8.18641871 112.593059,8.17353323 112.601969,8.16110795 C112.959328,7.6802036 113.300742,7.23335372 113.630431,6.831603 C113.857884,6.56883134 114.067516,6.31802476 114.27152,6.08562601 C114.345618,6.27660716 114.540243,6.54858273 114.865711,6.81319518 C115.25965,7.13487187 115.833207,7.43583976 116.597167,7.60427133 C117.08068,7.71287749 117.511199,7.66317637 117.884503,7.52741868 C118.253117,7.38705903 118.596407,7.18457299 118.864192,6.95079365 C119.000663,6.83620495 119.119314,6.71471333 119.227647,6.60242561 C119.338325,6.49197868 119.433058,6.3865939 119.50997,6.29409459 C119.663794,6.10955617 119.74774,5.97932083 119.74774,5.97932083 C119.74774,5.97932083 119.477142,5.96781594 119.014733,5.86289136 C118.783528,5.81042906 118.503081,5.7344968 118.185116,5.62681104 C117.871372,5.52326704 117.518234,5.38658896 117.136019,5.2061923 C116.299368,4.81088432 115.582774,4.94480123 115.091757,5.22183895 C115.191649,5.12059593 115.288727,5.02349467 115.379239,4.93329634 C115.623575,4.70273837 115.839772,4.51543878 116.013293,4.36173346 C116.189159,4.21078932 116.323754,4.09528024 116.414736,4.01704699 C116.506186,3.93973414 116.555897,3.9024583 116.555897,3.9024583 C116.571373,3.89095341 116.587318,3.87622715 116.600919,3.86150089 C116.61874,3.84125229 116.633278,3.81824251 116.644533,3.79477254 C116.943739,3.83711053 117.227469,3.85551835 117.490095,3.82514544 C117.894351,3.78050648 118.25171,3.62542057 118.608131,3.33457698 C118.964083,3.042813 119.18075,2.59458253 119.369278,2.12610346 C119.552647,1.65210204 119.677394,1.12517813 119.796045,0.63967182 C119.376312,0.628166931 118.822453,0.635990256 118.270938,0.726188584 C118.133529,0.748738166 117.99565,0.7763499 117.861054,0.809944175 C117.729272,0.847220015 117.599835,0.890938593 117.475557,0.940639712 C117.227469,1.04050215 116.999078,1.16751612 116.810081,1.32628359 C116.427867,1.63921656 116.242153,2.01335555 116.155861,2.41004412 C116.100991,2.67511676 116.093019,2.95307487 116.11084,3.24713983 C116.065818,3.26508746 116.025017,3.29269919 115.991251,3.32997503 C115.991251,3.32997503 115.949512,3.37691498 115.870725,3.47033467 C115.790061,3.56191359 115.670472,3.69813147 115.514773,3.87530676 C115.356259,4.04926068 115.160697,4.264172 114.931368,4.51635917 C114.828193,4.63601001 114.717046,4.76394438 114.598865,4.89832148 C114.858208,4.36909659 115.047205,3.65119153 114.643886,2.75012863 C114.470365,2.36264397 114.349839,1.99586812 114.267299,1.66314673 C114.188043,1.33410691 114.14818,1.04050215 114.129421,0.793837331 C114.091903,0.300507697 114.137862,0 114.137862,0 C114.137862,0 113.972783,0.0971012619 113.729385,0.275657137 C113.607452,0.364935074 113.46629,0.474001421 113.316687,0.601935785 C113.16896,0.731710931 113.018419,0.88495605 112.868347,1.05154684 C112.573362,1.38979057 112.27697,1.77497425 112.113766,2.22458531 C111.946342,2.66913421 111.885376,3.14773759 112.019502,3.63186331 C112.233355,4.40315106 112.637142,4.92869438 113.016543,5.25911479 C113.34717,5.54581662 113.665604,5.69169861 113.866795,5.72529289 C113.659977,5.96597516 113.444717,6.22414487 113.208354,6.49335927 C112.869285,6.89833135 112.512395,7.34426085 112.132525,7.82194383 C112.105325,7.8559983 112.077655,7.89235375 112.050924,7.92778881 C112.063117,7.8974159 112.076248,7.86888378 112.087973,7.83759048 C112.19912,7.53202063 112.294791,7.1831924 112.279783,6.78190188 C112.269935,6.38429292 112.152222,5.93330128 111.887251,5.46666299 C111.423904,4.66086057 111.207238,3.91534377 111.109222,3.37047224 C111.058104,3.09665588 111.041221,2.8771426 111.037,2.72711885 C111.03231,2.57663491 111.037469,2.49287932 111.037469,2.49287932 C111.037469,2.49287932 110.994792,2.525093 110.918349,2.58261745 C110.843313,2.64198268 110.733573,2.72619846 110.612109,2.84308813 C110.366366,3.07318591 110.04418,3.4049869 109.743098,3.80443664 C109.448113,4.20894854 109.188301,4.69307426 109.043856,5.196068 C108.905509,5.70458409 108.904102,6.24853523 109.109982,6.76487464 C109.434513,7.58448293 109.944288,8.10910586 110.402946,8.42433981 C110.792664,8.69033284 111.150023,8.80906329 111.376069,8.82609053 C110.855507,9.54261501 110.323689,10.33093 109.798437,11.1924161 C109.782961,11.2191074 109.766547,11.2467191 109.75154,11.2738707 C109.813444,10.9563357 109.844866,10.603826 109.78812,10.2214034 C109.72387,9.79066041 109.539563,9.31803958 109.187363,8.84265757 C108.578164,8.02581046 108.248006,7.23979646 108.073078,6.6558083 C107.905185,6.0764221 107.892054,5.70596467 107.892054,5.70596467 C107.892054,5.70596467 107.716657,5.86611273 107.467163,6.14453104 C107.226579,6.42939208 106.917524,6.83712535 106.639422,7.31618892 C106.373513,7.80261562 106.144184,8.3631338 106.058362,8.93745785 C105.983795,9.51868484 106.042886,10.1054342 106.340216,10.6406416 C106.822322,11.4961451 107.439962,11.987634 107.984442,12.2655921 C108.405582,12.4786626 108.78123,12.5633386 109.032601,12.56656 C108.914888,12.7920558 108.797176,13.0198526 108.682277,13.2531718 C108.512508,13.620868 108.34227,13.9959274 108.178598,14.3797305 C108.027119,14.7690559 107.869543,15.1625231 107.722754,15.5656544 C107.688519,15.6586139 107.658035,15.7561754 107.625207,15.8495951 C107.629428,15.811859 107.635994,15.7759638 107.639276,15.7368472 C107.710092,14.9756837 107.567992,13.9968478 106.664747,13.0750761 C106.273152,12.6788477 105.957532,12.2807786 105.704755,11.9047988 C105.454322,11.5292792 105.276112,11.1809112 105.141516,10.8790229 C104.874669,10.2757065 104.800571,9.87119463 104.800571,9.87119463 C104.800571,9.87119463 104.638306,10.0736807 104.415074,10.4169866 C104.303458,10.5886395 104.176834,10.7952673 104.047866,11.0290466 C103.926871,11.2665076 103.804468,11.5315802 103.69379,11.8141403 C103.463524,12.376039 103.320955,13.0285963 103.311107,13.6618254 C103.317672,14.3014972 103.477593,14.929204 103.882787,15.4593492 C104.536069,16.3065693 105.278926,16.7359317 105.90829,16.9476217 C106.482315,17.139063 106.96067,17.1478067 107.212978,17.0783172 C106.848585,18.2246643 106.509985,19.4156504 106.143246,20.6379298 C106.085562,19.8160206 105.776977,18.8022097 104.661286,17.9609723 C103.700825,17.2412264 103.056453,16.4533716 102.684087,15.8491349 C102.304218,15.2430573 102.162118,14.8192172 102.162118,14.8192172 C102.162118,14.8192172 102.020019,15.0626607 101.835243,15.468093 C101.64437,15.8707641 101.4338,16.4437075 101.286542,17.0889017 C101.000467,18.3802104 101.037516,19.9743278 102.098807,20.9784745 C102.926078,21.7746128 103.807282,22.1100954 104.509807,22.2288258 C105.028962,22.3144222 105.461357,22.2849697 105.74368,22.2090374 C105.656919,22.6393203 105.573442,23.0737449 105.52842,23.5159928 C105.466516,23.9959768 105.479647,24.4865452 105.474957,24.9748127 C105.486213,25.3089147 105.476833,25.6416361 105.463233,25.9752778 C105.45526,25.9393826 105.450101,25.9053281 105.440722,25.8689727 C105.241408,25.0065662 104.72788,23.9761884 103.407716,23.2619649 C102.256382,22.6517456 101.464752,21.9168133 100.957322,21.3282231 C100.699854,21.033698 100.529147,20.77967 100.411904,20.598353 C100.296536,20.4170359 100.242604,20.3102706 100.242604,20.3102706 C100.242604,20.3102706 100.12536,20.5932908 99.993109,21.0580884 C99.8716445,21.5247266 99.7215726,22.1713014 99.6849925,22.8915074 C99.5902596,24.3268574 99.9241697,26.0498295 101.223699,26.9412283 C102.258727,27.6513101 103.232788,27.8445922 104.003783,27.8422912 C104.642058,27.8367689 105.136357,27.6954888 105.408832,27.5417835 C105.3821,28.6642005 105.390073,29.8018039 105.504034,30.9421685 C105.063197,30.1929701 104.340976,29.4193814 103.046136,28.9812752 C101.72644,28.543169 100.742062,27.8896914 100.110822,27.3448198 C99.4683261,26.7981075 99.1742788,26.3705858 99.1742788,26.3705858 C99.1742788,26.3705858 99.1578647,26.4529608 99.1297262,26.599303 C99.1015877,26.7461054 99.0725112,26.9605565 99.0481245,27.225169 C98.9941924,27.7525531 98.9683988,28.4851844 99.0645387,29.2845441 C99.11425,29.684454 99.1864721,30.0981698 99.3093436,30.5118856 C99.4233045,30.9214597 99.5869767,31.3328745 99.7900429,31.7134562 C99.9893572,32.0921972 100.251514,32.4543711 100.543686,32.7544186 C100.848988,33.061369 101.197906,33.3190785 101.590907,33.4893509 C102.841663,33.9693348 103.90436,33.9389619 104.703493,33.7539633 C105.221711,33.6320115 105.626905,33.4442517 105.897035,33.2610939 C106.145122,34.3540583 106.451832,35.4345975 106.863123,36.4677365 C106.634263,36.2293552 106.367416,35.9997176 106.044293,35.8009131 C105.515289,35.4608286 104.836682,35.2012783 103.980334,35.1156819 C103.246857,35.0420507 102.587009,34.8998502 102.009232,34.7249759 C101.431455,34.5501016 100.949818,34.3384117 100.551189,34.1373062 C100.353282,34.0365234 100.177416,33.9385017 100.025937,33.847383 C99.8739894,33.7493613 99.7459592,33.6435164 99.6427848,33.5611414 C99.4364358,33.3927098 99.3295095,33.285024 99.3295095,33.285024 C99.3295095,33.285024 99.3356062,33.3848865 99.3463926,33.5634423 C99.3538962,33.6527203 99.3637447,33.7617866 99.3745311,33.8878802 C99.3876624,34.0153544 99.4022006,34.1267217 99.4218976,34.2675415 C99.4608225,34.5413579 99.5142856,34.8648754 99.5916665,35.2178454 C99.676551,35.5680542 99.7839462,35.9481757 99.919011,36.3365807 C100.467712,37.8879 101.584341,39.5307981 103.344873,39.8925118 C104.72788,40.1884175 105.854358,39.9666033 106.654898,39.6380237 C107.2852,39.3761724 107.72463,39.0425306 107.95349,38.7737764 C108.062292,39.0020334 108.169218,39.2307506 108.26911,39.4613086 C108.482024,39.9026361 108.66727,40.3540879 108.876432,40.7921941 C109.080905,41.2510091 109.29382,41.7033813 109.5133,42.1493108 C108.746057,41.5349497 107.655222,41.0232123 106.113232,41.1101892 C104.543573,41.2109721 103.254361,40.9541829 102.351584,40.6661005 C101.459125,40.3743365 100.954508,40.0641647 100.954508,40.0641647 C100.954508,40.0641647 101.025792,40.4286396 101.195561,40.991919 C101.276693,41.2749392 101.400034,41.6002975 101.54354,41.9560287 C101.68564,42.3131404 101.869009,42.6923415 102.084268,43.074764 C102.509629,43.8414498 103.087875,44.6127376 103.800717,45.2017879 C104.514965,45.7899178 105.359589,46.1939695 106.314422,46.2353871 C107.818425,46.3085582 108.953344,45.8782754 109.72856,45.3918487 C110.222859,45.0789157 110.577404,44.7388312 110.795009,44.4498284 C111.075456,44.8897753 111.368565,45.3159164 111.685592,45.7167467 C111.964163,46.0812216 112.272749,46.4171644 112.562106,46.7581693 C112.735627,46.9491504 112.904927,47.1355296 113.075634,47.3237496 C112.155974,46.8115519 110.915535,46.4530596 109.297572,46.8133927 C108.485307,47.0006923 107.737761,47.0780052 107.060092,47.0922712 C106.380548,47.1079179 105.783543,47.054075 105.29065,46.9749214 C104.295954,46.8198355 103.722867,46.5704095 103.722867,46.5704095 C103.722867,46.5704095 103.851835,46.9477698 104.140723,47.5087482 C104.422108,48.0724878 104.861069,48.8235269 105.458543,49.5603 C105.756811,49.9289166 106.089783,50.2956925 106.465432,50.6279537 C106.833109,50.9648168 107.242993,51.2676255 107.676794,51.5170515 C108.54346,52.0168239 109.517521,52.2929412 110.525348,52.1645466 C111.319792,52.0679056 111.990426,51.8502331 112.551789,51.5754963 C113.111745,51.30168 113.559147,50.9740207 113.912754,50.6436003 C114.447855,50.1401464 114.77004,49.6348517 114.908388,49.2666952 C115.602471,49.953307 116.296554,50.5906778 116.969533,51.1843301 C117.382231,51.5409817 117.788832,51.8801458 118.188399,52.2032031 C117.097094,51.8598972 115.702363,51.711254 114.03844,52.4484873 C113.246341,52.8019175 112.472063,53.0425997 111.772353,53.1871012 C111.074518,53.3311424 110.432491,53.3928086 109.897391,53.4043135 C109.365573,53.4139776 108.931771,53.3799231 108.632096,53.344488 C108.330546,53.3095132 108.167811,53.2708567 108.167811,53.2708567 C108.167811,53.2708567 108.222681,53.3642764 108.334297,53.5230439 C108.444506,53.6827318 108.60771,53.9105286 108.818748,54.1825041 C109.244109,54.7241543 109.881446,55.4337758 110.687614,56.0964574 C111.091401,56.4264177 111.540679,56.7421118 112.013406,57.0223709 C112.499264,57.2934261 112.992156,57.5419317 113.523505,57.7066817 C114.047819,57.876954 114.580575,57.9860204 115.119896,57.9975253 C115.653589,58.0145525 116.181186,57.9446028 116.694245,57.7600644 C118.307518,57.1903423 119.250158,56.2289938 119.796045,55.3803932 C120.159031,54.8083701 120.349904,54.278685 120.420719,53.8787751 C120.627068,54.0182143 120.829666,54.1548924 121.024759,54.2865083 C121.275661,54.4425146 121.517652,54.5925384 121.749794,54.7370398 C121.981468,54.883382 122.217362,55.0016522 122.436374,55.1263652 C122.656323,55.248317 122.866424,55.3661271 123.072773,55.4650691 C123.48125,55.6707766 123.849395,55.8488722 124.180023,55.9823289 C124.507367,56.123609 124.788752,56.2381977 125.022302,56.3164309 C125.255382,56.3969651 125.434062,56.4590915 125.554119,56.5009693 C125.674177,56.5428471 125.738426,56.558954 125.738426,56.558954 C126.255237,56.700234 126.795027,56.375336 126.951665,55.8208003 C127.111585,55.2556802 126.861621,54.6785949 126.394522,54.5345537" id="Page-1-Copy" fill="#D6BD82" transform="translate(113.000000, 29.000000) scale(-1, 1) translate(-113.000000, -29.000000) "></path>
        </g>
    </g>
</svg>