<svg width="116" height="45" xmlns="http://www.w3.org/2000/svg"><g fill="none" fill-rule="evenodd"><path d="M33.456 15.144c-2.472 0-4.308-1.908-4.308-4.32V10.8c0-2.388 1.8-4.344 4.38-4.344 1.584 0 2.532.528 3.312 1.296l-1.176 1.356c-.648-.588-1.308-.948-2.148-.948-1.416 0-2.436 1.176-2.436 2.616v.024c0 1.44.996 2.64 2.436 2.64.96 0 1.548-.384 2.208-.984l1.176 1.188c-.864.924-1.824 1.5-3.444 1.5zm4.92-.144V6.6h6.336v1.644h-4.5v1.704h3.96v1.644h-3.96v1.764h4.56V15h-6.396zm11.028.12a5.345 5.345 0 0 1-3.564-1.344l1.092-1.308c.756.624 1.548 1.02 2.508 1.02.756 0 1.212-.3 1.212-.792v-.024c0-.468-.288-.708-1.692-1.068-1.692-.432-2.784-.9-2.784-2.568v-.024c0-1.524 1.224-2.532 2.94-2.532 1.224 0 2.268.384 3.12 1.068l-.96 1.392c-.744-.516-1.476-.828-2.184-.828-.708 0-1.08.324-1.08.732v.024c0 .552.36.732 1.812 1.104 1.704.444 2.664 1.056 2.664 2.52v.024c0 1.668-1.272 2.604-3.084 2.604zm7.872-.12v-1.464l2.796-2.292c1.044-.864 1.452-1.32 1.452-2.016 0-.708-.468-1.092-1.128-1.092-.648 0-1.092.36-1.716 1.128L57.384 8.22c.828-1.128 1.632-1.74 3.132-1.74 1.74 0 2.892 1.02 2.892 2.592v.024c0 1.404-.72 2.1-2.208 3.252l-1.368 1.056h3.66V15h-6.216zm11.256.144c-2.244 0-3.72-1.884-3.72-4.32V10.8c0-2.436 1.512-4.344 3.744-4.344 2.22 0 3.72 1.884 3.72 4.32v.024c0 2.436-1.5 4.344-3.744 4.344zm.024-1.668c1.116 0 1.824-1.128 1.824-2.652V10.8c0-1.524-.744-2.676-1.848-2.676s-1.824 1.116-1.824 2.652v.024c0 1.536.732 2.676 1.848 2.676zM75 15V8.412l-1.464.36-.384-1.512 2.412-.72h1.26V15H75zm6.708.12c-1.86 0-3.24-.96-3.24-2.424v-.024c0-1.02.468-1.62 1.356-2.028-.648-.396-1.068-.936-1.068-1.836v-.024c0-1.284 1.176-2.304 2.952-2.304s2.952 1.008 2.952 2.304v.024c0 .9-.42 1.44-1.068 1.836.852.444 1.356.984 1.356 1.98v.024c0 1.56-1.38 2.472-3.24 2.472zm0-5.088c.732 0 1.2-.432 1.2-1.02v-.024c0-.516-.444-.984-1.2-.984s-1.2.456-1.2.972V9c0 .588.468 1.032 1.2 1.032zm0 3.564c.912 0 1.452-.456 1.452-1.044v-.024c0-.648-.612-1.032-1.452-1.032s-1.452.384-1.452 1.032v.024c0 .576.54 1.044 1.452 1.044zM28.213 29v-6.3h.711V29h-.71zm2.556 0v-6.3h.667l3.968 5.049V22.7h.693V29h-.566l-4.069-5.166V29h-.692zm7.11 0v-6.3h.666l3.97 5.049V22.7h.693V29h-.567l-4.069-5.166V29h-.693zm10.035.108c-1.916 0-3.203-1.503-3.203-3.24v-.018c0-1.737 1.305-3.258 3.221-3.258 1.917 0 3.204 1.503 3.204 3.24v.018c0 1.737-1.305 3.258-3.222 3.258zm.018-.657c1.44 0 2.466-1.152 2.466-2.583v-.018c0-1.431-1.044-2.601-2.484-2.601s-2.465 1.152-2.465 2.583v.018c0 1.431 1.044 2.601 2.483 2.601zm6.508.594L51.73 22.7h.793l2.24 5.427 2.25-5.427h.766l-2.71 6.345h-.63zM57.58 29l2.872-6.345h.666L63.987 29h-.764l-.738-1.665h-3.43L58.31 29h-.73zm1.756-2.313h2.87l-1.43-3.204-1.44 3.204zM66.085 29v-5.643H63.97V22.7h4.95v.657h-2.116V29h-.72zm4.23 0v-6.3h.71V29h-.71zm5.48.108c-1.917 0-3.204-1.503-3.204-3.24v-.018c0-1.737 1.305-3.258 3.222-3.258 1.918 0 3.205 1.503 3.205 3.24v.018c0 1.737-1.306 3.258-3.223 3.258zm.018-.657c1.44 0 2.467-1.152 2.467-2.583v-.018c0-1.431-1.044-2.601-2.485-2.601-1.44 0-2.466 1.152-2.466 2.583v.018c0 1.431 1.044 2.601 2.484 2.601zm4.708.549v-6.3h.665l3.97 5.049V22.7h.693V29h-.567l-4.069-5.166V29h-.692zm-44.06 10l2.871-6.345h.666L42.87 39h-.765l-.738-1.665h-3.429L37.191 39h-.729zm1.755-2.313h2.871l-1.431-3.204-1.44 3.204zm6.849 2.358l-2.25-6.345h.774l1.8 5.247 1.728-5.265h.585l1.728 5.265 1.8-5.247h.747l-2.25 6.345h-.603l-1.728-5.112-1.737 5.112h-.594zM51.915 39l2.871-6.345h.666L58.323 39h-.765l-.738-1.665h-3.429L52.644 39h-.729zm1.755-2.313h2.871l-1.431-3.204-1.44 3.204zM59.565 39v-6.3h2.709c.774 0 1.395.234 1.791.63.306.306.486.747.486 1.242v.018c0 1.044-.72 1.656-1.71 1.836L64.776 39h-.873l-1.827-2.448h-1.8V39h-.711zm.711-3.087h1.935c.945 0 1.62-.486 1.62-1.296v-.018c0-.774-.594-1.242-1.611-1.242h-1.944v2.556zM66.072 39v-6.3h2.187c1.98 0 3.348 1.359 3.348 3.132v.018c0 1.773-1.368 3.15-3.348 3.15h-2.187zm2.187-5.643h-1.476v4.986h1.476c1.593 0 2.61-1.08 2.61-2.475v-.018c0-1.395-1.017-2.493-2.61-2.493zm6.921 5.733c-.999 0-1.818-.333-2.574-1.008l.441-.522c.657.594 1.287.891 2.16.891.846 0 1.404-.45 1.404-1.071v-.018c0-.585-.315-.918-1.638-1.197-1.449-.315-2.115-.783-2.115-1.818v-.018c0-.99.873-1.719 2.07-1.719.918 0 1.575.261 2.214.774l-.414.549c-.585-.477-1.17-.684-1.818-.684-.819 0-1.341.45-1.341 1.017v.018c0 .594.324.927 1.71 1.224 1.404.306 2.052.819 2.052 1.782v.018c0 1.08-.9 1.782-2.151 1.782z" fill="#212529"/><path d="M25.438 42.311s-.053-.013-.154-.043l-.45-.124c-.2-.05-.44-.122-.725-.207-.287-.078-.61-.184-.975-.3-.185-.054-.373-.122-.572-.193-.198-.072-.41-.138-.622-.226l-.671-.259-.557-.236c.297-.196.641-.517.953-.96.486-.678.884-1.622 1.1-2.77.27-1.44-.36-2.347-1.083-3.025a7.088 7.088 0 0 0-1.05-.79 5.283 5.283 0 0 0-.368-.217l-.145-.076s-.018.096-.067.271c-.05.177-.13.437-.256.772-.124.333-.284.735-.502 1.208-.217.471-.478 1-.814 1.59-.683 1.19-.447 2.195.067 2.901a18.09 18.09 0 0 1-1.068-.673 19.148 19.148 0 0 1-1.829-1.414c.347-.107.81-.35 1.28-.743.318-.265.64-.598.94-.993.299-.394.58-.854.825-1.375.61-1.305.193-2.333-.36-3.124a6.847 6.847 0 0 0-1.271-1.33s-.15.353-.517.946c-.187.3-.427.66-.728 1.068-.303.41-.676.873-1.118 1.366-.883.974-.925 1.91-.662 2.645l-.37-.415c-.223-.275-.459-.547-.683-.83l-.784-.934a4.314 4.314 0 0 0 1.173-.47c.711-.399 1.475-1.046 2.143-1.959.833-1.145.624-2.2.248-3.035a6.406 6.406 0 0 0-.31-.574c-.104-.174-.22-.325-.31-.455-.187-.257-.336-.41-.336-.41s-.195.313-.655.829a17.15 17.15 0 0 1-2.178 2.05c-1.004.791-1.23 1.65-1.139 2.369-.237-.3-.47-.607-.687-.924-.227-.313-.422-.642-.62-.972-.091-.17-.183-.34-.27-.513.332.007.827-.073 1.389-.286.741-.277 1.578-.779 2.374-1.546.991-.964.99-1.99.795-2.82a3.547 3.547 0 0 0-.182-.576 4.231 4.231 0 0 0-.293-.636 1.994 1.994 0 0 0-.063-.103c-.037-.057-.062-.088-.062-.088s-.064.055-.197.154c-.066.052-.152.108-.25.187-.095.085-.206.18-.336.286a18.134 18.134 0 0 1-2.416 1.639c-.644.366-1.035.788-1.265 1.218-.12.235-.19.472-.224.702-.296-.774-.603-1.547-.873-2.332.299.022.703-.004 1.166-.108.736-.163 1.622-.525 2.492-1.136.284-.178.514-.352.693-.531.189-.188.32-.368.428-.561a2.38 2.38 0 0 0 .222-.578 3.08 3.08 0 0 0 .075-.571c.026-.74-.188-1.393-.188-1.393s-.3.198-.881.486c-.59.289-1.46.675-2.635 1.06-1.132.367-1.67 1.001-1.877 1.61a14.313 14.313 0 0 1-.38-2.463c.26.104.71.185 1.284.166.712-.02 1.617-.197 2.57-.593 1.212-.499 1.638-1.322 1.826-2.057a4.28 4.28 0 0 0 .119-.964c.007-.254-.01-.418-.01-.418s-.078.039-.232.102a11.87 11.87 0 0 1-.68.254 17.94 17.94 0 0 1-2.642.662c-1.358.232-1.981.932-2.247 1.569.016-.223.044-.446.082-.666.08-.365.152-.725.214-1.085l.135-.981c.231.116.598.228 1.07.28.663.077 1.51.032 2.478-.218 1.205-.317 1.767-1.048 2.069-1.719.155-.333.233-.655.29-.892.05-.238.057-.395.057-.395s-.309.11-.899.231c-.596.119-1.446.26-2.557.31-1.248.055-1.953.593-2.32 1.132.156-.936.449-1.828.807-2.672.16.154.52.346 1.037.474.59.15 1.388.214 2.308.093.588-.073 1.04-.266 1.392-.515.366-.244.612-.55.82-.842.1-.147.182-.294.248-.43.073-.136.13-.261.173-.37.088-.215.122-.361.122-.361s-.304.07-.866.118a15.092 15.092 0 0 1-2.401.004c-1.197-.095-1.94.348-2.366.815l.064-.13c.154-.3.318-.592.47-.881.165-.286.328-.566.482-.845l.308-.514c.147.148.418.326.802.476.513.202 1.23.351 2.09.34.549-.004 1-.133 1.36-.327.372-.189.664-.441.89-.696.238-.25.406-.505.517-.7.12-.188.178-.318.178-.318s-.296.033-.82.021c-.518-.008-1.27-.06-2.2-.239a3.013 3.013 0 0 0-1.373.028 2.375 2.375 0 0 0-.782.367l.009-.013c.437-.666.884-1.279 1.325-1.838.104.153.332.357.68.543.439.234 1.059.434 1.856.51a2.73 2.73 0 0 0 1.287-.176c.372-.14.668-.35.917-.564.254-.21.446-.432.575-.602l.153-.203.053-.077s-.069.002-.198-.004a9.797 9.797 0 0 1-.554-.041c-.474-.05-1.155-.161-1.976-.406a2.752 2.752 0 0 0-1.254-.097 2.37 2.37 0 0 0-.902.34l-.005.004.024-.03c.332-.372.65-.719.955-1.03.212-.204.406-.4.596-.58.069.149.25.36.551.565.366.25.899.483 1.608.614.45.084.849.046 1.196-.06.342-.109.66-.266.91-.447.126-.089.236-.183.337-.27a3.854 3.854 0 0 0 .483-.484s-.252-.009-.68-.09c-.216-.04-.476-.1-.771-.183a9.655 9.655 0 0 1-.974-.327c-.777-.306-1.443-.203-1.899.012l.267-.223c.227-.18.428-.325.59-.444l.372-.267.13-.09a.228.228 0 0 0 .082-.084c.279.034.543.048.786.025a2.13 2.13 0 0 0 1.039-.38c.33-.227.531-.575.706-.938.17-.368.286-.777.397-1.154a9.148 9.148 0 0 0-1.417.067 5.594 5.594 0 0 0-.38.065 4.13 4.13 0 0 0-.358.102c-.23.077-.443.176-.618.299a1.416 1.416 0 0 0-.608.84 2.064 2.064 0 0 0-.041.65.305.305 0 0 0-.111.065s-.04.036-.112.109l-.33.314-.543.497c-.095.093-.199.192-.308.296.24-.41.416-.967.041-1.666a4.494 4.494 0 0 1-.35-.844 3.615 3.615 0 0 1-.127-.674c-.035-.383.008-.616.008-.616s-.154.075-.38.214a6.45 6.45 0 0 0-.383.253c-.137.1-.277.22-.416.349-.274.262-.55.561-.7.91-.156.345-.213.716-.088 1.092.198.598.573 1.006.925 1.262.307.223.603.336.79.362-.192.187-.392.387-.612.596a56.913 56.913 0 0 0-1.074 1.113l.034-.07c.103-.237.192-.508.178-.82-.009-.308-.118-.658-.364-1.02a4.592 4.592 0 0 1-.723-1.626 2.727 2.727 0 0 1-.067-.5c-.004-.116 0-.18 0-.18l-.11.069c-.07.046-.172.111-.284.202a6.496 6.496 0 0 0-.807.746c-.274.314-.515.69-.65 1.08-.128.394-.13.816.062 1.217a2.933 2.933 0 0 0 1.2 1.287c.362.206.694.299.904.312a27.541 27.541 0 0 0-1.465 1.836c-.014.02-.03.042-.043.063.057-.246.086-.52.034-.817-.06-.334-.231-.7-.558-1.07a5.21 5.21 0 0 1-1.035-1.696 2.87 2.87 0 0 1-.168-.737s-.163.124-.395.34c-.223.221-.51.538-.768.91-.247.377-.46.812-.54 1.257-.069.451-.014.906.262 1.322a3.462 3.462 0 0 0 1.527 1.26c.39.166.74.231.973.234-.11.175-.219.352-.325.533-.158.285-.316.576-.468.874-.14.302-.287.607-.423.92-.032.072-.06.148-.09.22.003-.03.01-.057.012-.087.066-.59-.066-1.35-.905-2.066a6.656 6.656 0 0 1-.891-.908 5.14 5.14 0 0 1-.523-.795c-.248-.468-.317-.782-.317-.782s-.15.157-.358.423a7.555 7.555 0 0 0-.34.475c-.113.184-.227.39-.33.61a3.47 3.47 0 0 0-.355 1.433c.006.496.155.983.531 1.394.607.658 1.296.99 1.88 1.155.534.149.978.155 1.212.101-.338.89-.652 1.814-.993 2.762-.054-.638-.34-1.424-1.376-2.077-.892-.558-1.49-1.17-1.836-1.638-.353-.47-.485-.8-.485-.8s-.132.19-.303.504a5.648 5.648 0 0 0-.51 1.258c-.265 1.002-.231 2.238.754 3.017a4.59 4.59 0 0 0 2.24.97c.481.067.883.044 1.145-.015-.08.334-.158.671-.2 1.014-.057.373-.045.753-.05 1.132.01.26.002.517-.01.776l-.021-.082c-.185-.67-.662-1.469-1.888-2.023-1.07-.473-1.804-1.044-2.275-1.5a4.892 4.892 0 0 1-.507-.567c-.107-.14-.157-.223-.157-.223s-.109.22-.232.58a6.018 6.018 0 0 0-.286 1.423c-.088 1.113.222 2.45 1.429 3.142.961.55 1.865.7 2.581.699.593-.005 1.052-.114 1.305-.233-.025.87-.017 1.753.088 2.638-.409-.581-1.08-1.182-2.282-1.522-1.225-.34-2.14-.846-2.726-1.27-.596-.423-.87-.755-.87-.755l-.04.177c-.027.114-.054.28-.076.486-.05.41-.074.978.015 1.598.046.31.113.631.227.952.106.318.258.637.447.932.185.294.428.575.7.808.283.238.607.438.972.57 1.161.373 2.148.349 2.89.205.481-.094.858-.24 1.108-.382.23.848.516 1.686.897 2.488a3.784 3.784 0 0 0-.76-.517c-.491-.264-1.121-.466-1.916-.532a11.334 11.334 0 0 1-1.83-.303 9.354 9.354 0 0 1-1.842-.681c-.141-.076-.26-.158-.356-.222-.192-.13-.291-.214-.291-.214l.016.216.026.251a8.548 8.548 0 0 0 .202 1.032c.078.272.178.567.303.868.51 1.204 1.547 2.478 3.182 2.76 1.284.229 2.33.057 3.073-.198.585-.204.993-.462 1.206-.67.101.176.2.354.293.533.198.342.37.692.564 1.032.19.356.388.707.591 1.053-.712-.477-1.725-.874-3.157-.806a11.265 11.265 0 0 1-3.493-.345c-.829-.226-1.297-.467-1.297-.467a7.183 7.183 0 0 0 .547 1.468c.132.277.302.571.502.868a6.147 6.147 0 0 0 1.594 1.65c.663.457 1.447.77 2.334.802 1.397.057 2.45-.277 3.17-.654.46-.243.788-.507.99-.731.26.341.533.672.827.983.26.283.546.543.814.808l.477.439c-.854-.398-2.006-.676-3.508-.396-.754.145-1.448.205-2.078.216-.63.012-1.185-.03-1.643-.09-.923-.121-1.455-.315-1.455-.315s.12.293.388.728c.26.438.668 1.02 1.223 1.592.277.286.586.57.935.828a6.47 6.47 0 0 0 1.125.69c.805.388 1.71.602 2.645.502a6.746 6.746 0 0 0 1.882-.457c.52-.212.935-.466 1.264-.723.496-.39.796-.782.924-1.068a43.607 43.607 0 0 0 1.914 1.488c.383.277.76.54 1.132.79a6.198 6.198 0 0 0-3.854.19 11.579 11.579 0 0 1-3.845.742c-.494.008-.897-.019-1.175-.046-.28-.027-.431-.057-.431-.057s.05.072.155.195c.102.124.253.301.45.512.394.42.986.971 1.735 1.485.375.256.792.501 1.23.718.452.21.91.404 1.403.531.487.133.982.217 1.482.226.496.013.986-.041 1.462-.184 1.498-.442 2.374-1.188 2.88-1.846.338-.444.515-.855.58-1.166l.562.317c.233.12.457.237.673.35.215.113.434.205.637.301.205.095.4.186.591.263.38.16.721.298 1.028.402.304.11.566.198.783.259l.493.143c.112.032.172.045.172.045.48.11.98-.143 1.126-.573.149-.438-.083-.886-.517-.998M90.562 42.311s.053-.013.154-.043l.45-.124c.2-.05.44-.122.725-.207.287-.078.61-.184.975-.3.185-.054.373-.122.572-.193.198-.072.41-.138.622-.226l.671-.259.557-.236a3.733 3.733 0 0 1-.953-.96c-.486-.678-.884-1.622-1.1-2.77-.27-1.44.36-2.347 1.083-3.025.36-.336.75-.601 1.05-.79.148-.096.277-.169.368-.217l.145-.076s.018.096.067.271c.05.177.13.437.256.772.124.333.284.735.502 1.208.217.471.478 1 .814 1.59.683 1.19.447 2.195-.067 2.901.354-.207.711-.43 1.068-.673a19.148 19.148 0 0 0 1.829-1.414c-.347-.107-.81-.35-1.28-.743a6.069 6.069 0 0 1-.94-.993 7.757 7.757 0 0 1-.825-1.375c-.61-1.305-.193-2.333.36-3.124.28-.393.596-.722.843-.958.252-.232.428-.372.428-.372s.15.353.517.946c.187.3.427.66.728 1.068.303.41.676.873 1.118 1.366.883.974.925 1.91.662 2.645l.37-.415c.223-.275.459-.547.683-.83l.784-.934a4.314 4.314 0 0 1-1.173-.47c-.711-.399-1.475-1.046-2.143-1.959-.833-1.145-.624-2.2-.248-3.035.096-.208.207-.399.31-.574.104-.174.22-.325.31-.455.187-.257.336-.41.336-.41s.195.313.655.829a17.15 17.15 0 0 0 2.178 2.05c1.004.791 1.23 1.65 1.139 2.369.237-.3.47-.607.687-.924.227-.313.422-.642.62-.972.091-.17.183-.34.27-.513-.332.007-.827-.073-1.389-.286-.741-.277-1.578-.779-2.374-1.546-.991-.964-.99-1.99-.795-2.82.046-.208.11-.402.182-.576a4.231 4.231 0 0 1 .293-.636c.023-.04.045-.075.063-.103.037-.057.062-.088.062-.088s.064.055.197.154c.066.052.152.108.25.187.095.085.206.18.336.286a18.134 18.134 0 0 0 2.416 1.639c.644.366 1.035.788 1.265 1.218.12.235.19.472.224.702.296-.774.603-1.547.873-2.332a4.127 4.127 0 0 1-1.166-.108c-.736-.163-1.622-.525-2.492-1.136a3.936 3.936 0 0 1-.693-.531 2.455 2.455 0 0 1-.428-.561 2.38 2.38 0 0 1-.222-.578 3.08 3.08 0 0 1-.075-.571c-.026-.74.188-1.393.188-1.393s.3.198.881.486c.59.289 1.46.675 2.635 1.06 1.132.367 1.67 1.001 1.877 1.61.195-.81.329-1.636.38-2.463-.26.104-.71.185-1.284.166-.712-.02-1.617-.197-2.57-.593-1.212-.499-1.638-1.322-1.826-2.057a4.28 4.28 0 0 1-.119-.964c-.007-.254.01-.418.01-.418s.078.039.232.102c.15.064.386.152.68.254.595.202 1.487.459 2.642.662 1.358.232 1.981.932 2.247 1.569a6.357 6.357 0 0 0-.082-.666c-.08-.365-.152-.725-.214-1.085l-.135-.981c-.231.116-.598.228-1.07.28-.663.077-1.51.032-2.478-.218-1.205-.317-1.767-1.048-2.069-1.719a4.548 4.548 0 0 1-.29-.892 2.76 2.76 0 0 1-.057-.395s.309.11.899.231c.596.119 1.446.26 2.557.31 1.248.055 1.953.593 2.32 1.132-.156-.936-.449-1.828-.807-2.672-.16.154-.52.346-1.037.474-.59.15-1.388.214-2.308.093-.588-.073-1.04-.266-1.392-.515-.366-.244-.612-.55-.82-.842a3.364 3.364 0 0 1-.248-.43 3.634 3.634 0 0 1-.173-.37c-.088-.215-.122-.361-.122-.361s.304.07.866.118a15.092 15.092 0 0 0 2.401.004c1.197-.095 1.94.348 2.366.815l-.064-.13c-.154-.3-.318-.592-.47-.881-.165-.286-.328-.566-.482-.845l-.308-.514c-.147.148-.418.326-.802.476-.513.202-1.23.351-2.09.34-.549-.004-1-.133-1.36-.327a3.042 3.042 0 0 1-.89-.696 3.626 3.626 0 0 1-.517-.7 2.777 2.777 0 0 1-.178-.318s.296.033.82.021c.518-.008 1.27-.06 2.2-.239.54-.105.99-.073 1.373.028.313.084.573.217.782.367l-.009-.013a26.378 26.378 0 0 0-1.325-1.838c-.104.153-.332.357-.68.543-.439.234-1.059.434-1.856.51a2.73 2.73 0 0 1-1.287-.176 3.037 3.037 0 0 1-.917-.564 3.689 3.689 0 0 1-.575-.602l-.153-.203-.053-.077s.069.002.198-.004c.13-.006.32-.017.554-.041.474-.05 1.155-.161 1.976-.406a2.752 2.752 0 0 1 1.254-.097c.358.06.67.186.902.34l.005.004-.024-.03c-.332-.372-.65-.719-.955-1.03-.212-.204-.406-.4-.596-.58-.069.149-.25.36-.551.565-.366.25-.899.483-1.608.614a2.484 2.484 0 0 1-1.196-.06 3.236 3.236 0 0 1-.91-.447 4.168 4.168 0 0 1-.337-.27 3.854 3.854 0 0 1-.483-.484s.252-.009.68-.09c.216-.04.476-.1.771-.183.292-.08.62-.187.974-.327.777-.306 1.443-.203 1.899.012a41.723 41.723 0 0 0-.267-.223c-.227-.18-.428-.325-.59-.444l-.372-.267-.13-.09a.228.228 0 0 1-.082-.084 3.72 3.72 0 0 1-.786.025 2.13 2.13 0 0 1-1.039-.38c-.33-.227-.531-.575-.706-.938-.17-.368-.286-.777-.397-1.154.39-.009.904-.003 1.417.067.127.018.255.04.38.065.123.03.243.063.358.102.23.077.443.176.618.299.355.243.527.533.608.84.05.207.058.422.041.65.042.014.08.036.111.065 0 0 .04.036.112.109l.33.314.543.497c.095.093.199.192.308.296-.24-.41-.416-.967-.041-1.666.16-.3.273-.585.35-.844.073-.255.11-.483.127-.674.035-.383-.008-.616-.008-.616s.154.075.38.214c.113.07.244.154.383.253.137.1.277.22.416.349.274.262.55.561.7.91.156.345.213.716.088 1.092a2.547 2.547 0 0 1-.925 1.262c-.307.223-.603.336-.79.362.192.187.392.387.612.596a56.914 56.914 0 0 1 1.074 1.113l-.034-.07c-.103-.237-.192-.508-.178-.82.009-.308.118-.658.364-1.02.43-.625.632-1.203.723-1.626a2.727 2.727 0 0 0 .066-.68l.111.069c.07.046.172.111.284.202.229.178.528.436.807.746.274.314.515.69.65 1.08.128.394.13.816-.062 1.217a2.933 2.933 0 0 1-1.2 1.287c-.362.206-.694.299-.904.312.483.556.977 1.167 1.465 1.836.014.02.03.042.043.063a2.002 2.002 0 0 1-.034-.817c.06-.334.231-.7.558-1.07a5.21 5.21 0 0 0 1.035-1.696 2.87 2.87 0 0 0 .168-.737s.163.124.395.34c.223.221.51.538.768.91.247.377.46.812.54 1.257.069.451.014.906-.262 1.322a3.462 3.462 0 0 1-1.527 1.26c-.39.166-.74.231-.973.234.11.175.219.352.325.533.158.285.316.576.468.874.14.302.287.607.423.92.032.072.06.148.09.22-.003-.03-.01-.057-.012-.087-.066-.59.066-1.35.905-2.066.363-.307.656-.616.891-.908a5.14 5.14 0 0 0 .523-.795c.248-.468.317-.782.317-.782s.15.157.358.423c.103.133.22.294.34.475.113.184.227.39.33.61.213.435.346.941.355 1.433-.006.496-.155.983-.531 1.394a4.016 4.016 0 0 1-1.88 1.155c-.534.149-.978.155-1.212.101.338.89.652 1.814.993 2.762.054-.638.34-1.424 1.376-2.077.892-.558 1.49-1.17 1.836-1.638.353-.47.485-.8.485-.8s.132.19.303.504c.178.313.373.757.51 1.258.265 1.002.231 2.238-.754 3.017a4.59 4.59 0 0 1-2.24.97c-.481.067-.883.044-1.145-.015.08.334.158.671.2 1.014.057.373.045.753.05 1.132-.01.26-.002.517.01.776l.021-.082c.185-.67.662-1.469 1.888-2.023 1.07-.473 1.804-1.044 2.275-1.5.24-.229.398-.426.507-.567.107-.14.157-.223.157-.223s.109.22.232.58c.113.362.252.864.286 1.423.088 1.113-.222 2.45-1.429 3.142-.961.55-1.865.7-2.581.699-.593-.005-1.052-.114-1.305-.233.025.87.017 1.753-.088 2.638.409-.581 1.08-1.182 2.282-1.522 1.225-.34 2.14-.846 2.726-1.27.596-.423.87-.755.87-.755l.04.177c.027.114.054.28.076.486.05.41.074.978-.015 1.598-.046.31-.113.631-.227.952a4.238 4.238 0 0 1-.447.932 3.64 3.64 0 0 1-.7.808 3.217 3.217 0 0 1-.972.57c-1.161.373-2.148.349-2.89.205a3.777 3.777 0 0 1-1.108-.382c-.23.848-.516 1.686-.897 2.488.212-.185.46-.363.76-.517.491-.264 1.121-.466 1.916-.532a11.334 11.334 0 0 0 1.83-.303 9.354 9.354 0 0 0 1.842-.681c.141-.076.26-.158.356-.222.192-.13.291-.214.291-.214l-.016.216-.026.251a8.548 8.548 0 0 1-.202 1.032 8.244 8.244 0 0 1-.303.868c-.51 1.204-1.547 2.478-3.182 2.76-1.284.229-2.33.057-3.073-.198-.585-.204-.993-.462-1.206-.67-.101.176-.2.354-.293.533-.198.342-.37.692-.564 1.032-.19.356-.388.707-.591 1.053.712-.477 1.725-.874 3.157-.806a11.265 11.265 0 0 0 3.493-.345c.829-.226 1.297-.467 1.297-.467s-.066.283-.224.72c-.075.22-.19.472-.323.748a6.843 6.843 0 0 1-.502.868 6.147 6.147 0 0 1-1.594 1.65c-.663.457-1.447.77-2.334.802-1.397.057-2.45-.277-3.17-.654-.46-.243-.788-.507-.99-.731-.26.341-.533.672-.827.983-.26.283-.546.543-.814.808l-.477.439c.854-.398 2.006-.676 3.508-.396.754.145 1.448.205 2.078.216.63.012 1.185-.03 1.643-.09.923-.121 1.455-.315 1.455-.315s-.12.293-.388.728a8.834 8.834 0 0 1-1.223 1.592c-.277.286-.586.57-.935.828a6.47 6.47 0 0 1-1.125.69c-.805.388-1.71.602-2.645.502a6.746 6.746 0 0 1-1.882-.457 5.298 5.298 0 0 1-1.264-.723c-.496-.39-.796-.782-.924-1.068a43.607 43.607 0 0 1-1.914 1.488c-.383.277-.76.54-1.132.79a6.198 6.198 0 0 1 3.854.19 11.579 11.579 0 0 0 3.845.742c.494.008.897-.019 1.175-.046.28-.027.431-.057.431-.057s-.05.072-.155.195c-.102.124-.253.301-.45.512-.394.42-.986.971-1.735 1.485-.375.256-.792.501-1.23.718-.452.21-.91.404-1.403.531a6.073 6.073 0 0 1-1.482.226 4.623 4.623 0 0 1-1.462-.184c-1.498-.442-2.374-1.188-2.88-1.846-.338-.444-.515-.855-.58-1.166l-.562.317c-.233.12-.457.237-.673.35-.215.113-.434.205-.637.301-.205.095-.4.186-.591.263-.38.16-.721.298-1.028.402a11.8 11.8 0 0 1-.783.259l-.493.143a2.568 2.568 0 0 1-.172.045c-.48.11-.98-.143-1.126-.573-.149-.438.083-.886.517-.998" fill="#D6BD82"/></g></svg>