<svg width="64" height="64" xmlns="http://www.w3.org/2000/svg" xmlns:xlink="http://www.w3.org/1999/xlink"><defs><path id="a" d="M.255.316h21.847v5.873H.255z"/></defs><g fill="none" fill-rule="evenodd" opacity=".44"><path fill="#FFF" opacity=".01" d="M0 0h64v64H0z"/><path d="M13.66 50.096c-1.648 0-2.872-1.272-2.872-2.88V47.2c0-1.592 1.2-2.896 2.92-2.896 1.056 0 1.688.352 2.208.864l-.784.904c-.432-.392-.872-.632-1.432-.632-.944 0-1.624.784-1.624 1.744v.016c0 .96.664 1.76 1.624 1.76.64 0 1.032-.256 1.472-.656l.784.792c-.576.616-1.216 1-2.296 1zM16.807 50v-5.6h4.224v1.096h-3v1.136h2.64v1.096h-2.64v1.176h3.04V50h-4.264zm5.226 0v-5.6h2.56c.712 0 1.264.2 1.632.568.312.312.48.752.48 1.28v.016c0 .904-.488 1.472-1.2 1.736l1.368 2h-1.44l-1.2-1.792h-.968V50h-1.232zm1.232-2.88h1.248c.6 0 .944-.32.944-.792v-.016c0-.528-.368-.8-.968-.8h-1.224v1.608zM28.988 50v-4.464h-1.704V44.4h4.64v1.136H30.22V50h-1.232zm3.803 0v-5.6h1.232V50H32.79zm2.498 0v-5.6h4.264v1.12h-3.032v1.192h2.672v1.12h-2.672V50H35.29zm5.171 0v-5.6h1.232V50H40.46zm2.499 0v-5.6h4.224v1.096h-3v1.136h2.64v1.096h-2.64v1.176h3.04V50h-4.264zm5.226 0v-5.6h2.184c1.76 0 2.976 1.208 2.976 2.784v.016c0 1.576-1.216 2.8-2.976 2.8h-2.184zm2.184-4.488h-.952v3.376h.952c1.008 0 1.688-.68 1.688-1.672V47.2c0-.992-.68-1.688-1.688-1.688z" fill="#000"/><path d="M40.895 24.643c-.083.39-.347.796-.761.942-.66.29-1.552.21-2.164-.13-.512-.358-.578-.958-.644-1.526-.051-1.119-.131-2.305.182-3.329.246-.635.924-.797 1.537-.845.644 0 1.27.098 1.668.617.248.374.232.861.28 1.3-.016.925.067 2.03-.098 2.971m3.9-4.627c-.297-.78-.91-1.478-1.653-1.98-2.148-1.365-5.421-1.462-7.634-.23-1.207.616-2 1.834-2.247 3.088-.447 2.06-.332 4.511 1.255 6.055 1.852 1.623 4.545 1.981 6.94 1.315.114-.02.475-.112.724-.245l.07-.03a4.903 4.903 0 0 0 1.983-1.494c1.223-1.788 1.306-4.466.562-6.479M21.313 25.652c-.545-.033-1.157.014-1.685-.05l.016-5.7.033-.049 1.636-.015c.018-.925.033-1.918-.017-2.76l-6.228-.019-1.026.018c-.016.86-.016 1.866 0 2.744.563.017 1.09 0 1.636.05v5.52l-.016.228-1.636.033a35.194 35.194 0 0 0 0 2.68h7.287v-2.68zM33.508 34.224l-.777.243c-.132-.064-.247-.162-.364-.26l.033-.049a14.718 14.718 0 0 0 2.925-2.257c.446.178.876.423 1.273.697-.924.734-2 1.22-3.09 1.626zm-1.586.453c-1.75.376-3.703.391-5.454-.03-.032-.082.082-.099.133-.147 1.536-.99 3.932-.99 5.437.08.05.097-.083.066-.115.097zm-6.13-.21a11.722 11.722 0 0 1-3.868-1.818v-.05c.397-.242.794-.503 1.223-.683.942.93 1.916 1.626 2.975 2.29a1.278 1.278 0 0 1-.33.261zm-2.133-2.776c.646-.31 1.322-.538 2.016-.715l.067.017c.477.893 1.073 1.737 1.667 2.581-.23.13-.512.21-.742.341a11.162 11.162 0 0 1-3.008-2.176v-.048zm2.662-.878c.858-.162 1.75-.292 2.675-.292l.017 2.747c-.348.08-.728.08-1.058.162a14.51 14.51 0 0 1-1.718-2.553l.084-.064zm3.187-.292c.943.017 1.885.115 2.76.325l.017.05a16.587 16.587 0 0 1-1.669 2.516c-.28.033-.545-.08-.825-.097l-.283-.033c-.033-.958-.05-1.802 0-2.76zm3.256.488l.05-.033c.711.162 1.388.39 2.016.697-.53.6-1.207 1.121-1.834 1.56-.38.225-.76.471-1.158.665l-.709-.309.048-.11a19.518 19.518 0 0 0 1.587-2.47zm6.89-1.462c-.693.991-1.569 1.95-2.526 2.695-.035.05-.134.031-.165-.016-.415-.259-.86-.47-1.258-.73.53-.632 1.042-1.265 1.438-1.966h-.513c-.412.603-.842 1.236-1.387 1.771-.728-.292-1.388-.553-2.132-.748l-.082-.062c.115-.329.33-.636.396-.96h-.446l-.446.877c-.974-.212-2.049-.326-3.04-.39-.05-.146.015-.357-.05-.488h-.43c-.034.196.05.342-.05.506a18.98 18.98 0 0 0-2.974.357l-.447-.863c-.164 0-.347-.032-.462.017l.413.958-.049.048a21.23 21.23 0 0 0-2.18.764l-.067-.033a12.979 12.979 0 0 1-1.273-1.606c-.083-.277-.413-.115-.594-.148.395.715.925 1.347 1.453 2-.446.258-.89.55-1.356.762a11.888 11.888 0 0 1-2.609-2.745c-.199-.03-.33-.017-.53 0 1.19 1.852 3.042 3.475 4.975 4.433 0 0 0-.015.017-.015.015 0 .048.03.015.048 1.306.633 2.694 1.087 4.165 1.283 5.073.665 9.915-1.494 12.723-5.749a2.748 2.748 0 0 0-.529 0z" fill="#1A1919"/><g transform="translate(18 9.684)"><mask id="b" fill="#fff"><use xlink:href="#a"/></mask><path d="M3.858 3.106A11.87 11.87 0 0 1 7.28 1.385c.05-.05.082-.097.148-.097v.032c.133.031.232-.115.347-.018.1.083.216.147.298.228a16.766 16.766 0 0 0-2.958 2.287c-.446-.159-.859-.404-1.256-.68v-.031zM13.94 1.092v.032c-1.439 1.038-3.768 1.135-5.288.177-.084-.065-.248-.095-.266-.21 1.753-.403 3.817-.436 5.554 0zm.66.161c1.388.36 2.693.975 3.884 1.82l-.034.063-1.139.635h-.084a14.342 14.342 0 0 0-2.94-2.24c.032-.114.198-.196.313-.277zm2.116 2.778c-.646.275-1.307.535-2.017.683a27.27 27.27 0 0 0-1.703-2.552c.232-.127.514-.224.761-.354a11.66 11.66 0 0 1 2.991 2.173l-.032.05zm-5.273 1.138c-.032-.863-.015-1.82 0-2.713l1.025-.147c.644.811 1.273 1.642 1.704 2.531-.894.213-1.803.329-2.729.329zm-.51-.017c-.463.063-.876-.016-1.34-.051-.445-.064-1.008-.112-1.454-.26a14.462 14.462 0 0 1 1.72-2.546l1.057.144c.048.844.016 1.819.016 2.713zm-3.289-.439l-.066.016c-.677-.178-1.34-.39-1.967-.665l.032-.099c.91-.86 1.867-1.575 2.925-2.126.25.099.496.179.744.293l-.049.127c-.629.783-1.124 1.625-1.619 2.454zM.785 6.141c.397-.553.843-1.088 1.338-1.606.43-.407.826-.796 1.29-1.09.43.276.908.506 1.321.765-.512.63-1.04 1.266-1.42 1.947.114.05.33.034.495 0 .413-.6.86-1.2 1.388-1.737.71.26 1.405.537 2.132.732l.065.063-.412.942c.182.034.297.016.48 0 .146-.276.262-.583.427-.86.96.213 1.97.325 2.992.357.133.115.034.357.082.503h.447c.05-.16-.016-.34.05-.486.958-.049 1.965-.147 2.893-.375l.081.018.446.843c.15 0 .347.034.463-.032l-.414-.94.034-.033c.758-.196 1.471-.487 2.197-.779.514.535.991 1.168 1.423 1.784.181 0 .362.016.495-.032a6.685 6.685 0 0 0-.71-1.024 7.084 7.084 0 0 0-.729-.875v-.083l1.157-.664.167-.066a12.022 12.022 0 0 1 2.61 2.712c.198 0 .364.066.53-.016A13.077 13.077 0 0 0 12.286.362l-.017.032-.033-.032a7.585 7.585 0 0 0-1.472-.02c-.18-.013-.396 0-.612.02C6.19.667 2.537 2.701.255 6.157c.166-.016.364.05.53-.016z" fill="#1A1919" mask="url(#b)"/></g><path d="M28.948 25.778c-1.554.423-3.24.101-4.363-1.07-.132-.162-.215-.356-.347-.518l-2.23.016c-.035 1.314-.051 2.825 0 4.125l2.477-.016.033-.78c.282.13.563.292.844.437 1.718.715 3.93.877 5.633 0 1.24-.68 1.902-1.995 1.719-3.41-.181-1.38-1.503-2.63-2.841-2.97l-4-1.154-.296-.147c-.132-.113-.215-.257-.183-.438.314-.535 1.042-.372 1.587-.357 1.157.162 2.347.552 3.024 1.608.727 0 1.57.014 2.362-.017.034-1.33-.014-2.499-.032-3.847a36.114 36.114 0 0 0-2.396.017c-.033.193.032.467-.05.663l-.76-.406c-1.818-.762-4.363-.842-6.015.343-1.075.778-1.404 2.177-1.124 3.41.215 1.167 1.338 2.028 2.413 2.434 1.47.52 3.007.894 4.496 1.396.148.067.345.213.314.392 0 .143-.15.227-.265.29M41.645 31.778l-.49.36v-.526l.49-.357h.495v3.453h-.495v-2.93zm2.24 1.369v-.438h.17c.17 0 .3-.047.394-.14a.466.466 0 0 0 .14-.35.5.5 0 0 0-.145-.358.513.513 0 0 0-.36-.14.458.458 0 0 0-.289.102.512.512 0 0 0-.185.315h-.495c.026-.256.13-.471.31-.646a.902.902 0 0 1 .64-.266c.314.004.564.104.748.301.177.193.267.42.27.682 0 .133-.023.26-.07.384a.804.804 0 0 1-.297.329.86.86 0 0 1 .315.341.978.978 0 0 1 .093.417c-.004.323-.104.578-.301.765-.194.19-.444.288-.749.291a.948.948 0 0 1-.625-.227c-.181-.152-.299-.371-.353-.659h.495a.698.698 0 0 0 .187.28.469.469 0 0 0 .327.111c.146 0 .268-.05.367-.15.101-.092.153-.225.157-.397-.004-.175-.056-.311-.157-.407a.532.532 0 0 0-.379-.14h-.208zm1.535 1.047v-.467l1.153-2.472h.552l-1.168 2.472h.902v-.992h.495v.992h.275v.467h-.275v.514h-.495v-.514h-1.44zm2.939-1.98c.003.16.054.28.153.365.098.086.211.13.34.13a.504.504 0 0 0 .345-.13c.096-.084.146-.206.149-.365-.003-.164-.053-.288-.15-.372a.527.527 0 0 0-.345-.12c-.128 0-.24.04-.339.12-.099.084-.15.208-.153.372zm-.56 1.485a.9.9 0 0 1 .408-.777 1.013 1.013 0 0 1-.242-.31.72.72 0 0 1-.101-.389.974.974 0 0 1 .29-.712.94.94 0 0 1 .697-.285.965.965 0 0 1 .708.285.991.991 0 0 1 .282.712c0 .15-.03.28-.092.389-.065.117-.149.22-.251.31a.9.9 0 0 1 .407.777c-.003.31-.105.56-.306.746a1.07 1.07 0 0 1-.748.291c-.294-.003-.54-.1-.736-.291-.207-.187-.312-.435-.315-.746zm.496-.005c.003.158.06.287.17.388a.525.525 0 0 0 .386.16.534.534 0 0 0 .393-.16.525.525 0 0 0 .166-.388.53.53 0 0 0-.166-.393.57.57 0 0 0-.779 0 .523.523 0 0 0-.17.393zm1.963-.573v-1.866h1.84v.495h-1.374v.781a.87.87 0 0 1 .552-.19c.133.004.254.028.365.072a.794.794 0 0 1 .253.18.836.836 0 0 1 .209.329c.022.068.037.15.047.249.01.1.014.221.014.367 0 .224-.016.396-.047.516a.964.964 0 0 1-.462.561.876.876 0 0 1-.45.121c-.234 0-.448-.07-.642-.208-.197-.142-.32-.372-.367-.69h.495c.054.266.219.4.495.403a.505.505 0 0 0 .284-.071.361.361 0 0 0 .142-.18.843.843 0 0 0 .052-.242c.004-.085.005-.168.005-.248a.997.997 0 0 0-.092-.48.369.369 0 0 0-.154-.14.658.658 0 0 0-.253-.043.5.5 0 0 0-.247.061.557.557 0 0 0-.199.223h-.466z" fill="#1A1919"/></g></svg>