<svg width="29" height="58" xmlns="http://www.w3.org/2000/svg"><path d="M27.87 54.535s-.058-.017-.17-.056l-.492-.16c-.218-.064-.482-.158-.794-.266-.314-.102-.669-.238-1.069-.387-.201-.07-.408-.158-.626-.25-.217-.093-.45-.177-.682-.29l-.735-.334-.61-.305c.325-.253.702-.666 1.044-1.236.533-.875.97-2.092 1.205-3.572.296-1.856-.395-3.024-1.186-3.898a8.015 8.015 0 0 0-1.15-1.019 5.662 5.662 0 0 0-.404-.28l-.158-.097s-.02.123-.074.35c-.054.227-.143.562-.28.994a27.973 27.973 0 0 1-1.442 3.607c-.748 1.534-.49 2.83.073 3.739-.388-.267-.78-.554-1.17-.868a21.808 21.808 0 0 1-2.003-1.822c.38-.139.888-.45 1.401-.958.35-.342.702-.77 1.03-1.28.328-.508.635-1.1.905-1.772.669-1.682.211-3.007-.396-4.027a8.545 8.545 0 0 0-.922-1.234c-.276-.299-.47-.48-.47-.48s-.164.456-.566 1.22c-.205.386-.468.85-.798 1.376a24.156 24.156 0 0 1-1.225 1.761c-.967 1.256-1.013 2.461-.725 3.409-.135-.177-.268-.356-.404-.535-.245-.355-.504-.705-.75-1.07l-.859-1.203c.357-.092.807-.286 1.285-.605.78-.516 1.617-1.35 2.348-2.526.913-1.476.684-2.837.272-3.912a8.816 8.816 0 0 0-.339-.74c-.115-.224-.241-.418-.34-.586-.204-.332-.369-.529-.369-.529s-.212.403-.717 1.068a20.528 20.528 0 0 1-2.386 2.643c-1.1 1.02-1.347 2.127-1.247 3.053-.26-.387-.516-.782-.753-1.19-.249-.404-.463-.828-.68-1.253-.1-.22-.2-.439-.295-.66.363.007.905-.095 1.521-.37.813-.358 1.729-1.004 2.6-1.993 1.087-1.242 1.087-2.566.872-3.634a5.174 5.174 0 0 0-.2-.743 5.995 5.995 0 0 0-.32-.82 2.685 2.685 0 0 0-.07-.133c-.04-.072-.067-.113-.067-.113s-.07.07-.216.199c-.072.067-.167.14-.274.241-.104.109-.226.232-.368.368a18.19 18.19 0 0 1-1.084.956c-.436.357-.954.75-1.562 1.157-.707.472-1.135 1.016-1.387 1.57-.13.303-.208.608-.245.904-.325-.997-.66-1.994-.957-3.005.328.028.77-.005 1.278-.14.806-.21 1.777-.676 2.73-1.463a4.48 4.48 0 0 0 .76-.685 3.17 3.17 0 0 0 .711-1.468c.047-.246.076-.497.082-.736.03-.954-.206-1.796-.206-1.796s-.328.256-.965.627c-.647.372-1.6.87-2.886 1.366-1.241.473-1.83 1.29-2.058 2.076a21.484 21.484 0 0 1-.415-3.175c.285.134.777.238 1.406.214.78-.027 1.771-.254 2.816-.764 1.328-.643 1.794-1.704 2-2.651.094-.473.133-.915.131-1.243.008-.327-.012-.539-.012-.539s-.085.05-.253.132c-.165.082-.423.195-.746.326-.65.26-1.629.592-2.894.854-1.488.3-2.17 1.202-2.461 2.022.017-.287.047-.574.09-.859.086-.469.166-.934.233-1.397l.149-1.265c.253.15.655.294 1.171.362.727.098 1.656.04 2.715-.282 1.32-.408 1.937-1.35 2.268-2.215.17-.43.255-.845.317-1.15.055-.307.063-.51.063-.51s-.338.144-.985.299c-.653.152-1.584.335-2.802.4-1.367.07-2.14.763-2.541 1.458.17-1.206.491-2.356.884-3.444.176.198.57.446 1.136.611.647.192 1.521.276 2.529.12a3.008 3.008 0 0 0 1.525-.664c.4-.314.67-.71.898-1.086.11-.19.2-.378.272-.555a5.1 5.1 0 0 0 .19-.475c.095-.278.132-.466.132-.466s-.332.091-.948.153c-.307.031-.69.054-1.13.06-.437.008-.94-.005-1.5-.055-1.312-.122-2.126.449-2.593 1.05l.07-.168c.17-.386.349-.762.516-1.135.18-.369.36-.73.527-1.089l.338-.663c.161.19.458.421.878.614.563.26 1.348.452 2.29.437a2.782 2.782 0 0 0 1.49-.42 3.48 3.48 0 0 0 .976-.897c.26-.322.445-.651.566-.901.132-.244.196-.411.196-.411s-.325.042-.9.027a11.935 11.935 0 0 1-2.409-.308c-.593-.136-1.085-.094-1.505.036a2.453 2.453 0 0 0-.857.473l.01-.018c.48-.857.97-1.647 1.452-2.368.114.197.363.46.746.7.48.302 1.159.56 2.032.658a2.585 2.585 0 0 0 1.41-.228c.407-.18.732-.452 1.005-.727.278-.271.488-.556.63-.775.07-.11.127-.2.168-.262l.058-.1s-.076.003-.217-.004a9.153 9.153 0 0 1-.608-.054 10.485 10.485 0 0 1-2.164-.523 2.583 2.583 0 0 0-1.374-.125c-.392.078-.733.24-.988.438-.002.002-.003.004-.006.005.01-.012.018-.024.027-.037.364-.48.71-.928 1.046-1.33.232-.262.445-.513.652-.745.076.19.274.463.605.727.4.322.984.623 1.761.791.492.109.93.06 1.31-.077.375-.14.724-.342.997-.576a4.79 4.79 0 0 0 .37-.349 4.57 4.57 0 0 0 .287-.308c.156-.184.242-.315.242-.315s-.276-.011-.746-.116a8.649 8.649 0 0 1-.844-.236 9.518 9.518 0 0 1-1.067-.42c-.852-.396-1.58-.262-2.08.015l.292-.289c.249-.23.469-.418.645-.571l.409-.345c.093-.077.143-.115.143-.115a.293.293 0 0 0 .09-.108c.305.043.594.062.86.031.412-.044.776-.2 1.138-.49.362-.292.583-.74.775-1.209.186-.474.313-1 .434-1.486a8.535 8.535 0 0 0-1.552.086c-.14.023-.28.05-.417.084a4.014 4.014 0 0 0-.392.13c-.252.1-.485.228-.677.386a1.847 1.847 0 0 0-.666 1.084 3.119 3.119 0 0 0-.045.837.326.326 0 0 0-.122.083l-.123.14-.362.405-.593.641c-.105.12-.218.248-.339.382.264-.529.457-1.247.046-2.148a6.403 6.403 0 0 1-.383-1.087 5.402 5.402 0 0 1-.14-.87C15.354.302 15.4 0 15.4 0s-.167.097-.415.276c-.124.089-.268.198-.42.326a5.57 5.57 0 0 0-.456.45c-.3.338-.602.723-.768 1.173-.17.444-.232.923-.096 1.407a3.29 3.29 0 0 0 1.015 1.627c.336.287.66.433.865.466-.21.241-.43.5-.67.768a69.494 69.494 0 0 0-1.178 1.435l.038-.09c.113-.306.21-.655.195-1.056-.01-.398-.13-.849-.4-1.315a6.495 6.495 0 0 1-.79-2.097 4.104 4.104 0 0 1-.074-.643c-.005-.15 0-.234 0-.234l-.12.09c-.077.059-.189.143-.312.26-.25.23-.578.562-.885.961-.3.405-.564.89-.71 1.392-.142.509-.143 1.053.066 1.569.33.82.85 1.344 1.316 1.66.396.265.76.384.99.401-.53.717-1.07 1.505-1.605 2.366l-.048.082c.063-.318.095-.67.037-1.053-.065-.43-.253-.903-.61-1.378A7.04 7.04 0 0 1 9.23 6.656c-.17-.58-.184-.95-.184-.95s-.178.16-.432.439a8.37 8.37 0 0 0-.842 1.171c-.27.487-.504 1.047-.591 1.621-.076.582-.016 1.168.287 1.704.49.855 1.118 1.347 1.672 1.625.429.213.81.297 1.067.3-.12.226-.24.454-.357.687a41.46 41.46 0 0 0-.512 1.127c-.154.39-.315.783-.464 1.186-.035.093-.066.19-.1.284.005-.038.012-.074.015-.113.072-.761-.072-1.74-.991-2.662a8.11 8.11 0 0 1-.977-1.17 6.842 6.842 0 0 1-.573-1.026c-.271-.603-.347-1.008-.347-1.008s-.165.203-.392.546a9.87 9.87 0 0 0-.374.612 8.77 8.77 0 0 0-.36.785 5.12 5.12 0 0 0-.39 1.848c.008.64.17 1.267.582 1.797.665.848 1.42 1.277 2.061 1.489.584.191 1.07.2 1.327.13-.37 1.147-.715 2.338-1.088 3.56-.059-.822-.372-1.836-1.507-2.677-.978-.72-1.633-1.508-2.012-2.112-.386-.606-.531-1.03-.531-1.03s-.145.244-.333.65a8.052 8.052 0 0 0-.558 1.62c-.29 1.291-.253 2.885.827 3.89.841.796 1.738 1.131 2.452 1.25.529.085.968.056 1.256-.02-.089.43-.174.865-.22 1.307-.062.48-.049.97-.054 1.459.012.334.002.667-.012 1-.008-.036-.013-.07-.023-.106-.202-.862-.725-1.893-2.068-2.607a8.568 8.568 0 0 1-2.493-1.934 6.099 6.099 0 0 1-.555-.73c-.117-.181-.172-.288-.172-.288s-.12.283-.254.748c-.123.467-.276 1.113-.313 1.834-.097 1.435.243 3.158 1.565 4.05 1.053.71 2.044.903 2.829.9.649-.005 1.152-.147 1.429-.3-.027 1.122-.02 2.26.097 3.4-.449-.749-1.183-1.523-2.5-1.96a8.93 8.93 0 0 1-2.987-1.637c-.654-.547-.953-.974-.953-.974l-.045.228a6.765 6.765 0 0 0-.083.626 9.332 9.332 0 0 0 .017 2.06c.05.4.124.813.249 1.227.116.41.282.82.489 1.201.203.38.47.741.766 1.041.311.307.666.565 1.066.735 1.272.48 2.353.45 3.166.265.528-.122.94-.31 1.215-.493.252 1.093.564 2.174.983 3.207a4.19 4.19 0 0 0-.833-.667c-.539-.34-1.23-.6-2.1-.685a10.727 10.727 0 0 1-2.006-.391 9.237 9.237 0 0 1-2.017-.878c-.155-.098-.285-.203-.39-.286-.21-.168-.319-.276-.319-.276l.017.278.029.325a12.726 12.726 0 0 0 .22 1.33c.087.35.197.73.334 1.119.558 1.55 1.694 3.194 3.485 3.556 1.407.295 2.553.074 3.368-.255.64-.262 1.088-.595 1.32-.864.112.228.22.457.322.687.217.442.405.893.618 1.331.208.459.424.911.648 1.357-.78-.614-1.89-1.126-3.46-1.039-1.596.101-2.908-.156-3.826-.444-.908-.292-1.422-.602-1.422-.602a10.513 10.513 0 0 0 .6 1.892c.144.357.33.736.55 1.119.433.766 1.02 1.538 1.746 2.127.727.588 1.586.992 2.557 1.033 1.53.074 2.685-.357 3.474-.843.503-.313.863-.653 1.085-.942.285.44.583.866.906 1.267.283.364.597.7.891 1.041l.523.566c-.936-.512-2.198-.87-3.844-.51-.826.187-1.587.264-2.276.278a10.104 10.104 0 0 1-1.8-.117c-1.012-.155-1.595-.405-1.595-.405s.131.378.425.939c.286.563.733 1.315 1.34 2.051.304.369.643.736 1.025 1.068.374.337.791.64 1.232.89.882.499 1.873.775 2.898.647a6.502 6.502 0 0 0 2.062-.59 5.663 5.663 0 0 0 1.384-.931c.545-.504.873-1.01 1.013-1.377a49.729 49.729 0 0 0 2.097 1.917c.42.357.834.696 1.24 1.02-1.11-.344-2.529-.493-4.222.244-.806.354-1.593.595-2.305.74-.71.143-1.363.205-1.908.216a9.71 9.71 0 0 1-1.287-.06c-.307-.034-.472-.073-.472-.073s.056.093.17.252a12.708 12.708 0 0 0 2.394 2.573c.41.33.867.646 1.348.926.494.271.996.52 1.536.685.534.17 1.076.279 1.625.29A4.354 4.354 0 0 0 18 57.76c1.641-.57 2.6-1.531 3.156-2.38.37-.572.563-1.101.635-1.501l.615.408.737.45c.236.146.476.265.699.39.224.121.437.24.647.338.416.206.79.384 1.127.517.333.142.62.256.857.334l.54.185c.123.042.188.058.188.058.526.141 1.075-.184 1.235-.738.162-.565-.092-1.142-.567-1.286" fill="#D6BD82" fill-rule="evenodd"/></svg>