<svg width="64" height="64" xmlns="http://www.w3.org/2000/svg"><g fill="none" fill-rule="evenodd" opacity=".4"><path fill="#FFF" opacity=".01" d="M0 0h64v64H0z"/><path d="M9.301 50l2.4-5.64h1.136l2.4 5.64H13.95l-.512-1.256H11.07L10.557 50H9.301zm2.208-2.344h1.488l-.744-1.816-.744 1.816zM15.968 50v-5.6h2.288c1.336 0 2.144.792 2.144 1.936v.016c0 1.296-1.008 1.968-2.264 1.968H17.2V50h-1.232zm1.232-2.776h.976c.616 0 .976-.368.976-.848v-.016c0-.552-.384-.848-1-.848H17.2v1.712zM21.179 50v-5.6h2.288c1.336 0 2.144.792 2.144 1.936v.016c0 1.296-1.008 1.968-2.264 1.968h-.936V50h-1.232zm1.232-2.776h.976c.616 0 .976-.368.976-.848v-.016c0-.552-.384-.848-1-.848h-.952v1.712zM26.389 50v-5.6h2.56c.712 0 1.264.2 1.632.568.312.312.48.752.48 1.28v.016c0 .904-.488 1.472-1.2 1.736l1.368 2h-1.44l-1.2-1.792h-.968V50H26.39zm1.232-2.88h1.248c.6 0 .944-.32.944-.792v-.016c0-.528-.368-.8-.968-.8h-1.224v1.608zm7.139 2.976c-1.728 0-2.968-1.288-2.968-2.88V47.2c0-1.592 1.256-2.896 2.984-2.896s2.968 1.288 2.968 2.88v.016c0 1.592-1.256 2.896-2.984 2.896zm.016-1.136c.992 0 1.68-.784 1.68-1.744V47.2c0-.96-.704-1.76-1.696-1.76s-1.68.784-1.68 1.744v.016c0 .96.704 1.76 1.696 1.76zm5.355 1.08l-2.264-5.64h1.36l1.464 3.944 1.464-3.944h1.328l-2.264 5.64H40.13zm4.082-.04v-5.6h4.224v1.096h-3v1.136h2.64v1.096h-2.64v1.176h3.04V50h-4.264zm5.227 0v-5.6h2.184c1.76 0 2.976 1.208 2.976 2.784v.016c0 1.576-1.216 2.8-2.976 2.8H49.44zm2.184-4.488h-.952v3.376h.952c1.008 0 1.688-.68 1.688-1.672V47.2c0-.992-.68-1.688-1.688-1.688z" fill="#000"/><g fill="#1A1919"><path d="M12.846 31.997h2.078v-5.45l.06-.031h5.694v-2.142h-7.75l-.082-.001z"/><path d="M12.847 16.89l15.558-.003.033-.014c3.358.032 6.07 2.754 6.07 6.108 0 3.36-2.721 6.085-6.087 6.108l-.053-.003-3.807-.004v-7.71h2.149v5.614l.179-.005H28.454a4 4 0 0 0 3.924-3.992 4 4 0 0 0-3.957-3.993H14.925v2.331l.002.042 5.736.002.006 2.142-7.8-.002h-.022v-6.622zM44.007 14.084l9.399 15.844 1.343-2.224-8.33-13.62zM34.361 31.999L44 15.94l7.95 13.155H40.992v-2.053h7.113L44 20.193 37.27 31.999z"/><path d="M53.406 29.928l-12.414-.003v2.074l11.193-.005.017-.049zM21.519 29.86l.009-8.489h2.148v8.506h4.696l.049.002c3.804-.027 6.88-3.109 6.88-6.906 0-3.79-3.067-6.869-6.864-6.905l-.065.002H12.079l-.001 15.927H10l.001-17.996H28.455c4.369.04 7.995 3.074 8.779 7.21l4.361-7.127h2.412l-7.479 12.527-.725 1.226c-1.608 2.357-4.279 4.112-7.348 4.14h-6.936V29.86z"/></g></g></svg>